<svg width="84" height="19" viewBox="0 0 84 19" fill="none" xmlns="http://www.w3.org/2000/svg">
<rect x="8" width="55" height="19" rx="5" fill="#F8D24E"/>
<path d="M10.6742 13V6H13.9542C14.7942 6 15.4342 6.16667 15.8742 6.5C16.3142 6.82667 16.5342 7.26667 16.5342 7.82C16.5342 8.19333 16.4475 8.51333 16.2742 8.78C16.1008 9.04 15.8675 9.24333 15.5742 9.39C15.2875 9.53 14.9742 9.6 14.6342 9.6L14.8142 9.24C15.2075 9.24 15.5608 9.31333 15.8742 9.46C16.1875 9.6 16.4342 9.80667 16.6142 10.08C16.8008 10.3533 16.8942 10.6933 16.8942 11.1C16.8942 11.7 16.6642 12.1667 16.2042 12.5C15.7442 12.8333 15.0608 13 14.1542 13H10.6742ZM11.9742 11.98H14.0742C14.5608 11.98 14.9342 11.9 15.1942 11.74C15.4542 11.58 15.5842 11.3233 15.5842 10.97C15.5842 10.6233 15.4542 10.37 15.1942 10.21C14.9342 10.0433 14.5608 9.96 14.0742 9.96H11.8742V8.95H13.8142C14.2675 8.95 14.6142 8.87 14.8542 8.71C15.1008 8.55 15.2242 8.31 15.2242 7.99C15.2242 7.66333 15.1008 7.42 14.8542 7.26C14.6142 7.1 14.2675 7.02 13.8142 7.02H11.9742V11.98ZM20.4216 13.07C19.9683 13.07 19.5683 12.9867 19.2216 12.82C18.8749 12.6467 18.6049 12.3867 18.4116 12.04C18.2183 11.6867 18.1216 11.2433 18.1216 10.71V7.66H19.3716V10.54C19.3716 11.02 19.4783 11.38 19.6916 11.62C19.9116 11.8533 20.2216 11.97 20.6216 11.97C20.9149 11.97 21.1683 11.91 21.3816 11.79C21.6016 11.67 21.7716 11.49 21.8916 11.25C22.0183 11.01 22.0816 10.7133 22.0816 10.36V7.66H23.3316V13H22.1416V11.56L22.3516 12C22.1716 12.3467 21.9083 12.6133 21.5616 12.8C21.2149 12.98 20.8349 13.07 20.4216 13.07ZM25.4082 15.01C25.1482 15.01 24.8882 14.9667 24.6282 14.88C24.3682 14.7933 24.1516 14.6733 23.9782 14.52L24.4782 13.6C24.6049 13.7133 24.7482 13.8033 24.9082 13.87C25.0682 13.9367 25.2316 13.97 25.3982 13.97C25.6249 13.97 25.8082 13.9133 25.9482 13.8C26.0882 13.6867 26.2182 13.4967 26.3382 13.23L26.6482 12.53L26.7482 12.38L28.7682 7.66H29.9682L27.4682 13.43C27.3016 13.83 27.1149 14.1467 26.9082 14.38C26.7082 14.6133 26.4816 14.7767 26.2282 14.87C25.9816 14.9633 25.7082 15.01 25.4082 15.01ZM26.5082 13.19L24.0982 7.66H25.3982L27.3582 12.27L26.5082 13.19ZM36.5432 7.6C36.9698 7.6 37.3498 7.68333 37.6832 7.85C38.0232 8.01667 38.2898 8.27333 38.4832 8.62C38.6765 8.96 38.7732 9.4 38.7732 9.94V13H37.5232V10.1C37.5232 9.62667 37.4098 9.27333 37.1832 9.04C36.9632 8.80667 36.6532 8.69 36.2532 8.69C35.9598 8.69 35.6998 8.75 35.4732 8.87C35.2465 8.99 35.0698 9.17 34.9432 9.41C34.8232 9.64333 34.7632 9.94 34.7632 10.3V13H33.5132V7.66H34.7032V9.1L34.4932 8.66C34.6798 8.32 34.9498 8.06 35.3032 7.88C35.6632 7.69333 36.0765 7.6 36.5432 7.6ZM42.7686 13.07C42.222 13.07 41.7353 12.9533 41.3086 12.72C40.882 12.48 40.5453 12.1533 40.2986 11.74C40.052 11.3267 39.9286 10.8567 39.9286 10.33C39.9286 9.79667 40.052 9.32667 40.2986 8.92C40.5453 8.50667 40.882 8.18333 41.3086 7.95C41.7353 7.71667 42.222 7.6 42.7686 7.6C43.322 7.6 43.812 7.71667 44.2386 7.95C44.672 8.18333 45.0086 8.50333 45.2486 8.91C45.4953 9.31667 45.6186 9.79 45.6186 10.33C45.6186 10.8567 45.4953 11.3267 45.2486 11.74C45.0086 12.1533 44.672 12.48 44.2386 12.72C43.812 12.9533 43.322 13.07 42.7686 13.07ZM42.7686 12C43.0753 12 43.3486 11.9333 43.5886 11.8C43.8286 11.6667 44.0153 11.4733 44.1486 11.22C44.2886 10.9667 44.3586 10.67 44.3586 10.33C44.3586 9.98333 44.2886 9.68667 44.1486 9.44C44.0153 9.18667 43.8286 8.99333 43.5886 8.86C43.3486 8.72667 43.0786 8.66 42.7786 8.66C42.472 8.66 42.1986 8.72667 41.9586 8.86C41.7253 8.99333 41.5386 9.18667 41.3986 9.44C41.2586 9.68667 41.1886 9.98333 41.1886 10.33C41.1886 10.67 41.2586 10.9667 41.3986 11.22C41.5386 11.4733 41.7253 11.6667 41.9586 11.8C42.1986 11.9333 42.4686 12 42.7686 12ZM47.8475 13L45.8875 7.66H47.0675L48.7475 12.37H48.1875L49.9475 7.66H50.9975L52.7075 12.37H52.1575L53.8875 7.66H54.9975L53.0275 13H51.8275L50.2675 8.83H50.6375L49.0475 13H47.8475Z" fill="#131313"/>
<path d="M76 5L80.95 9L76 13" stroke="#131313" stroke-width="2" stroke-linecap="round" stroke-linejoin="round"/>
</svg>
