<svg width="93" height="103" viewBox="0 0 93 103" fill="none" xmlns="http://www.w3.org/2000/svg">
<rect x="15" y="14" width="63" height="88" rx="31.5" stroke="#9CBE8F" stroke-width="2"/>
<g filter="url(#filter0_d_2_37027)">
<circle cx="46.5" cy="40.5" r="26.5" fill="#9CBE8F"/>
</g>
<path d="M36.9848 44.096C36.3048 44.096 35.7168 43.996 35.2208 43.796C34.7248 43.596 34.3408 43.312 34.0688 42.944C33.7968 42.568 33.6608 42.128 33.6608 41.624C33.6608 41.128 33.7888 40.708 34.0448 40.364C34.3088 40.012 34.6888 39.748 35.1848 39.572C35.6808 39.388 36.2808 39.296 36.9848 39.296C37.6888 39.296 38.2888 39.388 38.7848 39.572C39.2888 39.748 39.6728 40.012 39.9368 40.364C40.2008 40.716 40.3328 41.136 40.3328 41.624C40.3328 42.128 40.1968 42.568 39.9248 42.944C39.6528 43.312 39.2648 43.596 38.7608 43.796C38.2568 43.996 37.6648 44.096 36.9848 44.096ZM36.9848 43.124C37.6568 43.124 38.1808 42.988 38.5568 42.716C38.9408 42.436 39.1328 42.06 39.1328 41.588C39.1328 41.124 38.9408 40.76 38.5568 40.496C38.1808 40.224 37.6568 40.088 36.9848 40.088C36.3208 40.088 35.8008 40.224 35.4248 40.496C35.0488 40.76 34.8608 41.124 34.8608 41.588C34.8608 42.06 35.0488 42.436 35.4248 42.716C35.8008 42.988 36.3208 43.124 36.9848 43.124ZM36.9848 39.944C36.3448 39.944 35.8008 39.86 35.3528 39.692C34.9048 39.516 34.5608 39.268 34.3208 38.948C34.0808 38.62 33.9608 38.232 33.9608 37.784C33.9608 37.312 34.0848 36.908 34.3328 36.572C34.5888 36.228 34.9448 35.964 35.4008 35.78C35.8568 35.596 36.3848 35.504 36.9848 35.504C37.5928 35.504 38.1248 35.596 38.5808 35.78C39.0368 35.964 39.3928 36.228 39.6488 36.572C39.9048 36.908 40.0328 37.312 40.0328 37.784C40.0328 38.232 39.9128 38.62 39.6728 38.948C39.4328 39.268 39.0848 39.516 38.6288 39.692C38.1728 39.86 37.6248 39.944 36.9848 39.944ZM36.9848 39.176C37.5688 39.176 38.0248 39.056 38.3528 38.816C38.6888 38.576 38.8568 38.248 38.8568 37.832C38.8568 37.408 38.6848 37.076 38.3408 36.836C37.9968 36.596 37.5448 36.476 36.9848 36.476C36.4248 36.476 35.9768 36.596 35.6408 36.836C35.3128 37.076 35.1488 37.408 35.1488 37.832C35.1488 38.248 35.3088 38.576 35.6288 38.816C35.9568 39.056 36.4088 39.176 36.9848 39.176ZM41.6087 45.776L42.2087 43.352L42.3647 44.048C42.1327 44.048 41.9367 43.976 41.7767 43.832C41.6247 43.688 41.5487 43.492 41.5487 43.244C41.5487 43.004 41.6247 42.808 41.7767 42.656C41.9367 42.504 42.1287 42.428 42.3527 42.428C42.5847 42.428 42.7727 42.508 42.9167 42.668C43.0607 42.82 43.1327 43.012 43.1327 43.244C43.1327 43.324 43.1247 43.404 43.1087 43.484C43.1007 43.556 43.0807 43.644 43.0487 43.748C43.0247 43.844 42.9847 43.964 42.9287 44.108L42.3647 45.776H41.6087ZM44.2526 44V43.184L47.6726 39.884C47.9766 39.596 48.2006 39.344 48.3446 39.128C48.4966 38.904 48.5966 38.7 48.6446 38.516C48.7006 38.324 48.7286 38.14 48.7286 37.964C48.7286 37.532 48.5766 37.192 48.2726 36.944C47.9686 36.696 47.5246 36.572 46.9406 36.572C46.4926 36.572 46.0886 36.648 45.7286 36.8C45.3686 36.944 45.0566 37.172 44.7926 37.484L43.9766 36.776C44.2966 36.368 44.7246 36.056 45.2606 35.84C45.8046 35.616 46.4006 35.504 47.0486 35.504C47.6326 35.504 48.1406 35.6 48.5726 35.792C49.0046 35.976 49.3366 36.244 49.5686 36.596C49.8086 36.948 49.9286 37.364 49.9286 37.844C49.9286 38.116 49.8926 38.384 49.8206 38.648C49.7486 38.912 49.6126 39.192 49.4126 39.488C49.2126 39.784 48.9246 40.116 48.5486 40.484L45.5006 43.424L45.2126 42.956H50.2886V44H44.2526ZM54.458 46.4C53.874 46.4 53.306 46.316 52.754 46.148C52.21 45.988 51.766 45.756 51.422 45.452L51.974 44.564C52.27 44.82 52.634 45.02 53.066 45.164C53.498 45.316 53.95 45.392 54.422 45.392C55.174 45.392 55.726 45.216 56.078 44.864C56.43 44.512 56.606 43.976 56.606 43.256V41.912L56.726 40.652L56.666 39.38V37.64H57.758V43.136C57.758 44.256 57.478 45.08 56.918 45.608C56.358 46.136 55.538 46.4 54.458 46.4ZM54.314 43.736C53.698 43.736 53.146 43.608 52.658 43.352C52.178 43.088 51.794 42.724 51.506 42.26C51.226 41.796 51.086 41.26 51.086 40.652C51.086 40.036 51.226 39.5 51.506 39.044C51.794 38.58 52.178 38.22 52.658 37.964C53.146 37.708 53.698 37.58 54.314 37.58C54.858 37.58 55.354 37.692 55.802 37.916C56.25 38.132 56.606 38.468 56.87 38.924C57.142 39.38 57.278 39.956 57.278 40.652C57.278 41.34 57.142 41.912 56.87 42.368C56.606 42.824 56.25 43.168 55.802 43.4C55.354 43.624 54.858 43.736 54.314 43.736ZM54.446 42.728C54.87 42.728 55.246 42.64 55.574 42.464C55.902 42.288 56.158 42.044 56.342 41.732C56.534 41.42 56.63 41.06 56.63 40.652C56.63 40.244 56.534 39.884 56.342 39.572C56.158 39.26 55.902 39.02 55.574 38.852C55.246 38.676 54.87 38.588 54.446 38.588C54.022 38.588 53.642 38.676 53.306 38.852C52.978 39.02 52.718 39.26 52.526 39.572C52.342 39.884 52.25 40.244 52.25 40.652C52.25 41.06 52.342 41.42 52.526 41.732C52.718 42.044 52.978 42.288 53.306 42.464C53.642 42.64 54.022 42.728 54.446 42.728Z" fill="#131313"/>
<path d="M36.5858 81.668H41.0258V82.436H36.5858V81.668ZM36.6818 86H35.7938V77.6H41.5538V78.368H36.6818V86ZM46.8977 86V84.608L46.8617 84.38V82.052C46.8617 81.516 46.7097 81.104 46.4057 80.816C46.1097 80.528 45.6657 80.384 45.0737 80.384C44.6657 80.384 44.2777 80.452 43.9097 80.588C43.5417 80.724 43.2297 80.904 42.9737 81.128L42.5897 80.492C42.9097 80.22 43.2937 80.012 43.7417 79.868C44.1897 79.716 44.6617 79.64 45.1577 79.64C45.9737 79.64 46.6017 79.844 47.0417 80.252C47.4897 80.652 47.7137 81.264 47.7137 82.088V86H46.8977ZM44.7257 86.06C44.2537 86.06 43.8417 85.984 43.4897 85.832C43.1457 85.672 42.8817 85.456 42.6977 85.184C42.5137 84.904 42.4217 84.584 42.4217 84.224C42.4217 83.896 42.4977 83.6 42.6497 83.336C42.8097 83.064 43.0657 82.848 43.4177 82.688C43.7777 82.52 44.2577 82.436 44.8577 82.436H47.0297V83.072H44.8817C44.2737 83.072 43.8497 83.18 43.6097 83.396C43.3777 83.612 43.2617 83.88 43.2617 84.2C43.2617 84.56 43.4017 84.848 43.6817 85.064C43.9617 85.28 44.3537 85.388 44.8577 85.388C45.3377 85.388 45.7497 85.28 46.0937 85.064C46.4457 84.84 46.7017 84.52 46.8617 84.104L47.0537 84.692C46.8937 85.108 46.6137 85.44 46.2137 85.688C45.8217 85.936 45.3257 86.06 44.7257 86.06ZM52.0198 86.06C51.4278 86.06 50.9718 85.9 50.6518 85.58C50.3318 85.26 50.1718 84.808 50.1718 84.224V78.308H51.0238V84.176C51.0238 84.544 51.1158 84.828 51.2998 85.028C51.4918 85.228 51.7638 85.328 52.1158 85.328C52.4918 85.328 52.8038 85.22 53.0518 85.004L53.3518 85.616C53.1838 85.768 52.9798 85.88 52.7398 85.952C52.5078 86.024 52.2678 86.06 52.0198 86.06ZM49.0438 80.408V79.7H52.9438V80.408H49.0438ZM56.5948 86.06C56.0748 86.06 55.5828 85.988 55.1188 85.844C54.6548 85.692 54.2908 85.504 54.0268 85.28L54.4108 84.608C54.6668 84.8 54.9948 84.968 55.3948 85.112C55.7948 85.248 56.2148 85.316 56.6548 85.316C57.2548 85.316 57.6868 85.224 57.9508 85.04C58.2148 84.848 58.3468 84.596 58.3468 84.284C58.3468 84.052 58.2708 83.872 58.1188 83.744C57.9748 83.608 57.7828 83.508 57.5428 83.444C57.3028 83.372 57.0348 83.312 56.7388 83.264C56.4428 83.216 56.1468 83.16 55.8508 83.096C55.5628 83.032 55.2988 82.94 55.0588 82.82C54.8188 82.692 54.6228 82.52 54.4708 82.304C54.3268 82.088 54.2548 81.8 54.2548 81.44C54.2548 81.096 54.3508 80.788 54.5428 80.516C54.7348 80.244 55.0148 80.032 55.3828 79.88C55.7588 79.72 56.2148 79.64 56.7508 79.64C57.1588 79.64 57.5668 79.696 57.9748 79.808C58.3828 79.912 58.7188 80.052 58.9828 80.228L58.6108 80.912C58.3308 80.72 58.0308 80.584 57.7108 80.504C57.3908 80.416 57.0708 80.372 56.7508 80.372C56.1828 80.372 55.7628 80.472 55.4908 80.672C55.2268 80.864 55.0948 81.112 55.0948 81.416C55.0948 81.656 55.1668 81.844 55.3108 81.98C55.4628 82.116 55.6588 82.224 55.8988 82.304C56.1468 82.376 56.4148 82.436 56.7028 82.484C56.9988 82.532 57.2908 82.592 57.5788 82.664C57.8748 82.728 58.1428 82.82 58.3828 82.94C58.6308 83.052 58.8268 83.216 58.9708 83.432C59.1228 83.64 59.1988 83.916 59.1988 84.26C59.1988 84.628 59.0948 84.948 58.8868 85.22C58.6868 85.484 58.3908 85.692 57.9988 85.844C57.6148 85.988 57.1468 86.06 56.5948 86.06Z" fill="#131313"/>
<defs>
<filter id="filter0_d_2_37027" x="0" y="0" width="93" height="93" filterUnits="userSpaceOnUse" color-interpolation-filters="sRGB">
<feFlood flood-opacity="0" result="BackgroundImageFix"/>
<feColorMatrix in="SourceAlpha" type="matrix" values="0 0 0 0 0 0 0 0 0 0 0 0 0 0 0 0 0 0 127 0" result="hardAlpha"/>
<feOffset dy="6"/>
<feGaussianBlur stdDeviation="10"/>
<feComposite in2="hardAlpha" operator="out"/>
<feColorMatrix type="matrix" values="0 0 0 0 0 0 0 0 0 0 0 0 0 0 0 0 0 0 0.25 0"/>
<feBlend mode="normal" in2="BackgroundImageFix" result="effect1_dropShadow_2_37027"/>
<feBlend mode="normal" in="SourceGraphic" in2="effect1_dropShadow_2_37027" result="shape"/>
</filter>
</defs>
</svg>
