<svg width="93" height="104" viewBox="0 0 93 104" fill="none" xmlns="http://www.w3.org/2000/svg">
<rect x="15" y="15" width="63" height="88" rx="31.5" stroke="#9CBE8F" stroke-width="2"/>
<g filter="url(#filter0_d_2_37033)">
<circle cx="46.5" cy="40.5" r="26.5" fill="#9CBE8F"/>
</g>
<path d="M29.4716 41.936V41.096L33.7676 35.6H35.0636L30.8036 41.096L30.1916 40.904H36.8996V41.936H29.4716ZM34.1396 44V41.936L34.1756 40.904V39.08H35.3036V44H34.1396ZM41.051 44.096C40.395 44.096 39.807 43.928 39.287 43.592C38.775 43.256 38.367 42.768 38.063 42.128C37.767 41.488 37.619 40.712 37.619 39.8C37.619 38.888 37.767 38.112 38.063 37.472C38.367 36.832 38.775 36.344 39.287 36.008C39.807 35.672 40.395 35.504 41.051 35.504C41.699 35.504 42.283 35.672 42.803 36.008C43.323 36.344 43.731 36.832 44.027 37.472C44.323 38.112 44.471 38.888 44.471 39.8C44.471 40.712 44.323 41.488 44.027 42.128C43.731 42.768 43.323 43.256 42.803 43.592C42.283 43.928 41.699 44.096 41.051 44.096ZM41.051 43.028C41.491 43.028 41.875 42.908 42.203 42.668C42.539 42.428 42.799 42.068 42.983 41.588C43.175 41.108 43.271 40.512 43.271 39.8C43.271 39.088 43.175 38.492 42.983 38.012C42.799 37.532 42.539 37.172 42.203 36.932C41.875 36.692 41.491 36.572 41.051 36.572C40.611 36.572 40.223 36.692 39.887 36.932C39.551 37.172 39.287 37.532 39.095 38.012C38.911 38.492 38.819 39.088 38.819 39.8C38.819 40.512 38.911 41.108 39.095 41.588C39.287 42.068 39.551 42.428 39.887 42.668C40.223 42.908 40.611 43.028 41.051 43.028ZM45.5423 45.776L46.1423 43.352L46.2983 44.048C46.0663 44.048 45.8703 43.976 45.7103 43.832C45.5583 43.688 45.4823 43.492 45.4823 43.244C45.4823 43.004 45.5583 42.808 45.7103 42.656C45.8703 42.504 46.0623 42.428 46.2863 42.428C46.5183 42.428 46.7063 42.508 46.8503 42.668C46.9943 42.82 47.0663 43.012 47.0663 43.244C47.0663 43.324 47.0583 43.404 47.0423 43.484C47.0343 43.556 47.0143 43.644 46.9823 43.748C46.9583 43.844 46.9183 43.964 46.8623 44.108L46.2983 45.776H45.5423ZM47.9755 41.936V41.096L52.2715 35.6H53.5675L49.3075 41.096L48.6955 40.904H55.4035V41.936H47.9755ZM52.6435 44V41.936L52.6795 40.904V39.08H53.8075V44H52.6435ZM59.5752 46.4C58.9912 46.4 58.4232 46.316 57.8712 46.148C57.3272 45.988 56.8832 45.756 56.5392 45.452L57.0912 44.564C57.3872 44.82 57.7512 45.02 58.1832 45.164C58.6152 45.316 59.0672 45.392 59.5392 45.392C60.2912 45.392 60.8432 45.216 61.1952 44.864C61.5472 44.512 61.7232 43.976 61.7232 43.256V41.912L61.8432 40.652L61.7832 39.38V37.64H62.8752V43.136C62.8752 44.256 62.5952 45.08 62.0352 45.608C61.4752 46.136 60.6552 46.4 59.5752 46.4ZM59.4312 43.736C58.8152 43.736 58.2632 43.608 57.7752 43.352C57.2952 43.088 56.9112 42.724 56.6232 42.26C56.3432 41.796 56.2032 41.26 56.2032 40.652C56.2032 40.036 56.3432 39.5 56.6232 39.044C56.9112 38.58 57.2952 38.22 57.7752 37.964C58.2632 37.708 58.8152 37.58 59.4312 37.58C59.9752 37.58 60.4712 37.692 60.9192 37.916C61.3672 38.132 61.7232 38.468 61.9872 38.924C62.2592 39.38 62.3952 39.956 62.3952 40.652C62.3952 41.34 62.2592 41.912 61.9872 42.368C61.7232 42.824 61.3672 43.168 60.9192 43.4C60.4712 43.624 59.9752 43.736 59.4312 43.736ZM59.5632 42.728C59.9872 42.728 60.3632 42.64 60.6912 42.464C61.0192 42.288 61.2752 42.044 61.4592 41.732C61.6512 41.42 61.7472 41.06 61.7472 40.652C61.7472 40.244 61.6512 39.884 61.4592 39.572C61.2752 39.26 61.0192 39.02 60.6912 38.852C60.3632 38.676 59.9872 38.588 59.5632 38.588C59.1392 38.588 58.7592 38.676 58.4232 38.852C58.0952 39.02 57.8352 39.26 57.6432 39.572C57.4592 39.884 57.3672 40.244 57.3672 40.652C57.3672 41.06 57.4592 41.42 57.6432 41.732C57.8352 42.044 58.0952 42.288 58.4232 42.464C58.7592 42.64 59.1392 42.728 59.5632 42.728Z" fill="#131313"/>
<path d="M34.3539 87.072C33.7219 87.072 33.1379 86.968 32.6019 86.76C32.0659 86.544 31.6019 86.244 31.2099 85.86C30.8179 85.476 30.5099 85.024 30.2859 84.504C30.0699 83.984 29.9619 83.416 29.9619 82.8C29.9619 82.184 30.0699 81.616 30.2859 81.096C30.5099 80.576 30.8179 80.124 31.2099 79.74C31.6099 79.356 32.0779 79.06 32.6139 78.852C33.1499 78.636 33.7339 78.528 34.3659 78.528C34.9739 78.528 35.5459 78.632 36.0819 78.84C36.6179 79.04 37.0699 79.344 37.4379 79.752L36.8739 80.316C36.5299 79.964 36.1499 79.712 35.7339 79.56C35.3179 79.4 34.8699 79.32 34.3899 79.32C33.8859 79.32 33.4179 79.408 32.9859 79.584C32.5539 79.752 32.1779 79.996 31.8579 80.316C31.5379 80.628 31.2859 80.996 31.1019 81.42C30.9259 81.836 30.8379 82.296 30.8379 82.8C30.8379 83.304 30.9259 83.768 31.1019 84.192C31.2859 84.608 31.5379 84.976 31.8579 85.296C32.1779 85.608 32.5539 85.852 32.9859 86.028C33.4179 86.196 33.8859 86.28 34.3899 86.28C34.8699 86.28 35.3179 86.2 35.7339 86.04C36.1499 85.88 36.5299 85.624 36.8739 85.272L37.4379 85.836C37.0699 86.244 36.6179 86.552 36.0819 86.76C35.5459 86.968 34.9699 87.072 34.3539 87.072ZM43.0051 87V85.608L42.9691 85.38V83.052C42.9691 82.516 42.8171 82.104 42.5131 81.816C42.2171 81.528 41.7731 81.384 41.1811 81.384C40.7731 81.384 40.3851 81.452 40.0171 81.588C39.6491 81.724 39.3371 81.904 39.0811 82.128L38.6971 81.492C39.0171 81.22 39.4011 81.012 39.8491 80.868C40.2971 80.716 40.7691 80.64 41.2651 80.64C42.0811 80.64 42.7091 80.844 43.1491 81.252C43.5971 81.652 43.8211 82.264 43.8211 83.088V87H43.0051ZM40.8331 87.06C40.3611 87.06 39.9491 86.984 39.5971 86.832C39.2531 86.672 38.9891 86.456 38.8051 86.184C38.6211 85.904 38.5291 85.584 38.5291 85.224C38.5291 84.896 38.6051 84.6 38.7571 84.336C38.9171 84.064 39.1731 83.848 39.5251 83.688C39.8851 83.52 40.3651 83.436 40.9651 83.436H43.1371V84.072H40.9891C40.3811 84.072 39.9571 84.18 39.7171 84.396C39.4851 84.612 39.3691 84.88 39.3691 85.2C39.3691 85.56 39.5091 85.848 39.7891 86.064C40.0691 86.28 40.4611 86.388 40.9651 86.388C41.4451 86.388 41.8571 86.28 42.2011 86.064C42.5531 85.84 42.8091 85.52 42.9691 85.104L43.1611 85.692C43.0011 86.108 42.7211 86.44 42.3211 86.688C41.9291 86.936 41.4331 87.06 40.8331 87.06ZM46.1353 87V80.7H46.9513V82.416L46.8673 82.116C47.0433 81.636 47.3393 81.272 47.7553 81.024C48.1713 80.768 48.6873 80.64 49.3033 80.64V81.468C49.2713 81.468 49.2393 81.468 49.2073 81.468C49.1753 81.46 49.1433 81.456 49.1113 81.456C48.4473 81.456 47.9273 81.66 47.5513 82.068C47.1753 82.468 46.9873 83.04 46.9873 83.784V87H46.1353ZM54.1099 87.06C53.5579 87.06 53.0619 86.936 52.6219 86.688C52.1819 86.432 51.8339 86.064 51.5779 85.584C51.3219 85.104 51.1939 84.524 51.1939 83.844C51.1939 83.156 51.3219 82.576 51.5779 82.104C51.8419 81.624 52.1939 81.26 52.6339 81.012C53.0739 80.764 53.5659 80.64 54.1099 80.64C54.7099 80.64 55.2459 80.776 55.7179 81.048C56.1979 81.312 56.5739 81.684 56.8459 82.164C57.1179 82.644 57.2539 83.204 57.2539 83.844C57.2539 84.476 57.1179 85.036 56.8459 85.524C56.5739 86.004 56.1979 86.38 55.7179 86.652C55.2459 86.924 54.7099 87.06 54.1099 87.06ZM50.8579 87V78.096H51.7099V82.56L51.5899 83.832L51.6739 85.104V87H50.8579ZM54.0499 86.304C54.4979 86.304 54.8979 86.204 55.2499 86.004C55.6019 85.796 55.8819 85.508 56.0899 85.14C56.2979 84.764 56.4019 84.332 56.4019 83.844C56.4019 83.348 56.2979 82.916 56.0899 82.548C55.8819 82.18 55.6019 81.896 55.2499 81.696C54.8979 81.488 54.4979 81.384 54.0499 81.384C53.6019 81.384 53.1979 81.488 52.8379 81.696C52.4859 81.896 52.2059 82.18 51.9979 82.548C51.7979 82.916 51.6979 83.348 51.6979 83.844C51.6979 84.332 51.7979 84.764 51.9979 85.14C52.2059 85.508 52.4859 85.796 52.8379 86.004C53.1979 86.204 53.6019 86.304 54.0499 86.304ZM60.6827 87.06C60.1627 87.06 59.6707 86.988 59.2067 86.844C58.7427 86.692 58.3787 86.504 58.1147 86.28L58.4987 85.608C58.7547 85.8 59.0827 85.968 59.4827 86.112C59.8827 86.248 60.3027 86.316 60.7427 86.316C61.3427 86.316 61.7747 86.224 62.0387 86.04C62.3027 85.848 62.4347 85.596 62.4347 85.284C62.4347 85.052 62.3587 84.872 62.2067 84.744C62.0627 84.608 61.8707 84.508 61.6307 84.444C61.3907 84.372 61.1227 84.312 60.8267 84.264C60.5307 84.216 60.2347 84.16 59.9387 84.096C59.6507 84.032 59.3867 83.94 59.1467 83.82C58.9067 83.692 58.7107 83.52 58.5587 83.304C58.4147 83.088 58.3427 82.8 58.3427 82.44C58.3427 82.096 58.4387 81.788 58.6307 81.516C58.8227 81.244 59.1027 81.032 59.4707 80.88C59.8467 80.72 60.3027 80.64 60.8387 80.64C61.2467 80.64 61.6547 80.696 62.0627 80.808C62.4707 80.912 62.8067 81.052 63.0707 81.228L62.6987 81.912C62.4187 81.72 62.1187 81.584 61.7987 81.504C61.4787 81.416 61.1587 81.372 60.8387 81.372C60.2707 81.372 59.8507 81.472 59.5787 81.672C59.3147 81.864 59.1827 82.112 59.1827 82.416C59.1827 82.656 59.2547 82.844 59.3987 82.98C59.5507 83.116 59.7467 83.224 59.9867 83.304C60.2347 83.376 60.5027 83.436 60.7907 83.484C61.0867 83.532 61.3787 83.592 61.6667 83.664C61.9627 83.728 62.2307 83.82 62.4707 83.94C62.7187 84.052 62.9147 84.216 63.0587 84.432C63.2107 84.64 63.2867 84.916 63.2867 85.26C63.2867 85.628 63.1827 85.948 62.9747 86.22C62.7747 86.484 62.4787 86.692 62.0867 86.844C61.7027 86.988 61.2347 87.06 60.6827 87.06Z" fill="#131313"/>
<defs>
<filter id="filter0_d_2_37033" x="0" y="0" width="93" height="93" filterUnits="userSpaceOnUse" color-interpolation-filters="sRGB">
<feFlood flood-opacity="0" result="BackgroundImageFix"/>
<feColorMatrix in="SourceAlpha" type="matrix" values="0 0 0 0 0 0 0 0 0 0 0 0 0 0 0 0 0 0 127 0" result="hardAlpha"/>
<feOffset dy="6"/>
<feGaussianBlur stdDeviation="10"/>
<feComposite in2="hardAlpha" operator="out"/>
<feColorMatrix type="matrix" values="0 0 0 0 0.0392157 0 0 0 0 0.533333 0 0 0 0 0.0901961 0 0 0 0.25 0"/>
<feBlend mode="normal" in2="BackgroundImageFix" result="effect1_dropShadow_2_37033"/>
<feBlend mode="normal" in="SourceGraphic" in2="effect1_dropShadow_2_37033" result="shape"/>
</filter>
</defs>
</svg>
