<svg width="93" height="103" viewBox="0 0 93 103" fill="none" xmlns="http://www.w3.org/2000/svg">
<rect x="15" y="14" width="63" height="88" rx="31.5" stroke="#9CBE8F" stroke-width="2"/>
<g filter="url(#filter0_d_2_37021)">
<circle cx="46.5" cy="40.5" r="26.5" fill="#9CBE8F"/>
</g>
<path d="M38.7236 41.936V41.096L43.0196 35.6H44.3156L40.0556 41.096L39.4436 40.904H46.1516V41.936H38.7236ZM43.3916 44V41.936L43.4276 40.904V39.08H44.5556V44H43.3916ZM50.3233 46.4C49.7393 46.4 49.1713 46.316 48.6193 46.148C48.0753 45.988 47.6313 45.756 47.2873 45.452L47.8393 44.564C48.1353 44.82 48.4993 45.02 48.9313 45.164C49.3633 45.316 49.8153 45.392 50.2873 45.392C51.0393 45.392 51.5913 45.216 51.9433 44.864C52.2953 44.512 52.4713 43.976 52.4713 43.256V41.912L52.5913 40.652L52.5313 39.38V37.64H53.6233V43.136C53.6233 44.256 53.3433 45.08 52.7833 45.608C52.2233 46.136 51.4033 46.4 50.3233 46.4ZM50.1793 43.736C49.5633 43.736 49.0113 43.608 48.5233 43.352C48.0433 43.088 47.6593 42.724 47.3713 42.26C47.0913 41.796 46.9513 41.26 46.9513 40.652C46.9513 40.036 47.0913 39.5 47.3713 39.044C47.6593 38.58 48.0433 38.22 48.5233 37.964C49.0113 37.708 49.5633 37.58 50.1793 37.58C50.7233 37.58 51.2193 37.692 51.6673 37.916C52.1153 38.132 52.4713 38.468 52.7353 38.924C53.0073 39.38 53.1433 39.956 53.1433 40.652C53.1433 41.34 53.0073 41.912 52.7353 42.368C52.4713 42.824 52.1153 43.168 51.6673 43.4C51.2193 43.624 50.7233 43.736 50.1793 43.736ZM50.3113 42.728C50.7353 42.728 51.1113 42.64 51.4393 42.464C51.7673 42.288 52.0233 42.044 52.2073 41.732C52.3993 41.42 52.4953 41.06 52.4953 40.652C52.4953 40.244 52.3993 39.884 52.2073 39.572C52.0233 39.26 51.7673 39.02 51.4393 38.852C51.1113 38.676 50.7353 38.588 50.3113 38.588C49.8873 38.588 49.5073 38.676 49.1713 38.852C48.8433 39.02 48.5833 39.26 48.3913 39.572C48.2073 39.884 48.1153 40.244 48.1153 40.652C48.1153 41.06 48.2073 41.42 48.3913 41.732C48.5833 42.044 48.8433 42.288 49.1713 42.464C49.5073 42.64 49.8873 42.728 50.3113 42.728Z" fill="#131313"/>
<path d="M22.6746 86V77.6H25.8186C26.5306 77.6 27.1426 77.716 27.6546 77.948C28.1666 78.172 28.5586 78.5 28.8306 78.932C29.1106 79.356 29.2506 79.872 29.2506 80.48C29.2506 81.072 29.1106 81.584 28.8306 82.016C28.5586 82.44 28.1666 82.768 27.6546 83C27.1426 83.232 26.5306 83.348 25.8186 83.348H23.1666L23.5626 82.928V86H22.6746ZM23.5626 83L23.1666 82.568H25.7946C26.6346 82.568 27.2706 82.388 27.7026 82.028C28.1426 81.66 28.3626 81.144 28.3626 80.48C28.3626 79.808 28.1426 79.288 27.7026 78.92C27.2706 78.552 26.6346 78.368 25.7946 78.368H23.1666L23.5626 77.948V83ZM30.8384 86V79.7H31.6544V81.416L31.5704 81.116C31.7464 80.636 32.0424 80.272 32.4584 80.024C32.8744 79.768 33.3904 79.64 34.0064 79.64V80.468C33.9744 80.468 33.9424 80.468 33.9104 80.468C33.8784 80.46 33.8464 80.456 33.8144 80.456C33.1504 80.456 32.6304 80.66 32.2544 81.068C31.8784 81.468 31.6904 82.04 31.6904 82.784V86H30.8384ZM38.0705 86.06C37.4625 86.06 36.9145 85.924 36.4265 85.652C35.9465 85.372 35.5665 84.992 35.2865 84.512C35.0065 84.024 34.8665 83.468 34.8665 82.844C34.8665 82.212 35.0065 81.656 35.2865 81.176C35.5665 80.696 35.9465 80.32 36.4265 80.048C36.9065 79.776 37.4545 79.64 38.0705 79.64C38.6945 79.64 39.2465 79.776 39.7265 80.048C40.2145 80.32 40.5945 80.696 40.8665 81.176C41.1465 81.656 41.2865 82.212 41.2865 82.844C41.2865 83.468 41.1465 84.024 40.8665 84.512C40.5945 84.992 40.2145 85.372 39.7265 85.652C39.2385 85.924 38.6865 86.06 38.0705 86.06ZM38.0705 85.304C38.5265 85.304 38.9305 85.204 39.2825 85.004C39.6345 84.796 39.9105 84.508 40.1105 84.14C40.3185 83.764 40.4225 83.332 40.4225 82.844C40.4225 82.348 40.3185 81.916 40.1105 81.548C39.9105 81.18 39.6345 80.896 39.2825 80.696C38.9305 80.488 38.5305 80.384 38.0825 80.384C37.6345 80.384 37.2345 80.488 36.8825 80.696C36.5305 80.896 36.2505 81.18 36.0425 81.548C35.8345 81.916 35.7305 82.348 35.7305 82.844C35.7305 83.332 35.8345 83.764 36.0425 84.14C36.2505 84.508 36.5305 84.796 36.8825 85.004C37.2345 85.204 37.6305 85.304 38.0705 85.304ZM45.0179 86.06C44.4259 86.06 43.9699 85.9 43.6499 85.58C43.3299 85.26 43.1699 84.808 43.1699 84.224V78.308H44.0219V84.176C44.0219 84.544 44.1139 84.828 44.2979 85.028C44.4899 85.228 44.7619 85.328 45.1139 85.328C45.4899 85.328 45.8019 85.22 46.0499 85.004L46.3499 85.616C46.1819 85.768 45.9779 85.88 45.7379 85.952C45.5059 86.024 45.2659 86.06 45.0179 86.06ZM42.0419 80.408V79.7H45.9419V80.408H42.0419ZM50.3542 86.06C49.6982 86.06 49.1222 85.924 48.6262 85.652C48.1302 85.372 47.7422 84.992 47.4622 84.512C47.1822 84.024 47.0422 83.468 47.0422 82.844C47.0422 82.22 47.1742 81.668 47.4382 81.188C47.7102 80.708 48.0782 80.332 48.5422 80.06C49.0142 79.78 49.5422 79.64 50.1262 79.64C50.7182 79.64 51.2422 79.776 51.6982 80.048C52.1622 80.312 52.5262 80.688 52.7902 81.176C53.0542 81.656 53.1862 82.212 53.1862 82.844C53.1862 82.884 53.1822 82.928 53.1742 82.976C53.1742 83.016 53.1742 83.06 53.1742 83.108H47.6902V82.472H52.7182L52.3822 82.724C52.3822 82.268 52.2822 81.864 52.0822 81.512C51.8902 81.152 51.6262 80.872 51.2902 80.672C50.9542 80.472 50.5662 80.372 50.1262 80.372C49.6942 80.372 49.3062 80.472 48.9622 80.672C48.6182 80.872 48.3502 81.152 48.1582 81.512C47.9662 81.872 47.8702 82.284 47.8702 82.748V82.88C47.8702 83.36 47.9742 83.784 48.1822 84.152C48.3982 84.512 48.6942 84.796 49.0702 85.004C49.4542 85.204 49.8902 85.304 50.3782 85.304C50.7622 85.304 51.1182 85.236 51.4462 85.1C51.7822 84.964 52.0702 84.756 52.3102 84.476L52.7902 85.028C52.5102 85.364 52.1582 85.62 51.7342 85.796C51.3182 85.972 50.8582 86.06 50.3542 86.06ZM54.9204 86V79.7H55.7724V86H54.9204ZM55.3524 78.308C55.1764 78.308 55.0284 78.248 54.9084 78.128C54.7884 78.008 54.7284 77.864 54.7284 77.696C54.7284 77.528 54.7884 77.388 54.9084 77.276C55.0284 77.156 55.1764 77.096 55.3524 77.096C55.5284 77.096 55.6764 77.152 55.7964 77.264C55.9164 77.376 55.9764 77.516 55.9764 77.684C55.9764 77.86 55.9164 78.008 55.7964 78.128C55.6844 78.248 55.5364 78.308 55.3524 78.308ZM61.3591 79.64C61.8711 79.64 62.3191 79.74 62.7031 79.94C63.0951 80.132 63.3991 80.428 63.6151 80.828C63.8391 81.228 63.9511 81.732 63.9511 82.34V86H63.0991V82.424C63.0991 81.76 62.9311 81.26 62.5951 80.924C62.2671 80.58 61.8031 80.408 61.2031 80.408C60.7551 80.408 60.3631 80.5 60.0271 80.684C59.6991 80.86 59.4431 81.12 59.2591 81.464C59.0831 81.8 58.9951 82.208 58.9951 82.688V86H58.1431V79.7H58.9591V81.428L58.8271 81.104C59.0271 80.648 59.3471 80.292 59.7871 80.036C60.2271 79.772 60.7511 79.64 61.3591 79.64ZM66.3365 86.06C66.1605 86.06 66.0085 85.996 65.8805 85.868C65.7605 85.74 65.7005 85.584 65.7005 85.4C65.7005 85.208 65.7605 85.052 65.8805 84.932C66.0085 84.812 66.1605 84.752 66.3365 84.752C66.5125 84.752 66.6605 84.812 66.7805 84.932C66.9085 85.052 66.9725 85.208 66.9725 85.4C66.9725 85.584 66.9085 85.74 66.7805 85.868C66.6605 85.996 66.5125 86.06 66.3365 86.06ZM68.8794 86.06C68.7034 86.06 68.5514 85.996 68.4234 85.868C68.3034 85.74 68.2434 85.584 68.2434 85.4C68.2434 85.208 68.3034 85.052 68.4234 84.932C68.5514 84.812 68.7034 84.752 68.8794 84.752C69.0554 84.752 69.2034 84.812 69.3234 84.932C69.4514 85.052 69.5154 85.208 69.5154 85.4C69.5154 85.584 69.4514 85.74 69.3234 85.868C69.2034 85.996 69.0554 86.06 68.8794 86.06ZM71.4224 86.06C71.2464 86.06 71.0944 85.996 70.9664 85.868C70.8464 85.74 70.7864 85.584 70.7864 85.4C70.7864 85.208 70.8464 85.052 70.9664 84.932C71.0944 84.812 71.2464 84.752 71.4224 84.752C71.5984 84.752 71.7464 84.812 71.8664 84.932C71.9944 85.052 72.0584 85.208 72.0584 85.4C72.0584 85.584 71.9944 85.74 71.8664 85.868C71.7464 85.996 71.5984 86.06 71.4224 86.06Z" fill="#131313"/>
<defs>
<filter id="filter0_d_2_37021" x="0" y="0" width="93" height="93" filterUnits="userSpaceOnUse" color-interpolation-filters="sRGB">
<feFlood flood-opacity="0" result="BackgroundImageFix"/>
<feColorMatrix in="SourceAlpha" type="matrix" values="0 0 0 0 0 0 0 0 0 0 0 0 0 0 0 0 0 0 127 0" result="hardAlpha"/>
<feOffset dy="6"/>
<feGaussianBlur stdDeviation="10"/>
<feComposite in2="hardAlpha" operator="out"/>
<feColorMatrix type="matrix" values="0 0 0 0 0.0392157 0 0 0 0 0.533333 0 0 0 0 0.0901961 0 0 0 0.25 0"/>
<feBlend mode="normal" in2="BackgroundImageFix" result="effect1_dropShadow_2_37021"/>
<feBlend mode="normal" in="SourceGraphic" in2="effect1_dropShadow_2_37021" result="shape"/>
</filter>
</defs>
</svg>
