<svg width="93" height="103" viewBox="0 0 93 103" fill="none" xmlns="http://www.w3.org/2000/svg">
<rect x="15" y="14" width="63" height="88" rx="31.5" stroke="#9CBE8F" stroke-width="2"/>
<g filter="url(#filter0_d_2_37015)">
<circle cx="46.5" cy="40.5" r="26.5" fill="#9CBE8F"/>
<circle cx="46.5" cy="40.5" r="25.5" stroke="#9CBE8F" stroke-width="2"/>
</g>
<path d="M35.3483 84.368L35.3723 83.276L39.2963 79.7H40.3403L37.5683 82.352L37.0883 82.76L35.3483 84.368ZM34.6763 86V77.096H35.5283V86H34.6763ZM39.5603 86L36.9323 82.724L37.4843 82.064L40.6043 86H39.5603ZM44.2532 86.06C43.6292 86.06 43.0692 85.924 42.5732 85.652C42.0852 85.372 41.7012 84.992 41.4212 84.512C41.1412 84.024 41.0012 83.468 41.0012 82.844C41.0012 82.212 41.1412 81.656 41.4212 81.176C41.7012 80.696 42.0852 80.32 42.5732 80.048C43.0692 79.776 43.6292 79.64 44.2532 79.64C44.7892 79.64 45.2732 79.744 45.7052 79.952C46.1372 80.16 46.4772 80.472 46.7252 80.888L46.0892 81.32C45.8732 81 45.6052 80.764 45.2852 80.612C44.9652 80.46 44.6172 80.384 44.2412 80.384C43.7932 80.384 43.3892 80.488 43.0292 80.696C42.6692 80.896 42.3852 81.18 42.1772 81.548C41.9692 81.916 41.8652 82.348 41.8652 82.844C41.8652 83.34 41.9692 83.772 42.1772 84.14C42.3852 84.508 42.6692 84.796 43.0292 85.004C43.3892 85.204 43.7932 85.304 44.2412 85.304C44.6172 85.304 44.9652 85.228 45.2852 85.076C45.6052 84.924 45.8732 84.692 46.0892 84.38L46.7252 84.812C46.4772 85.22 46.1372 85.532 45.7052 85.748C45.2732 85.956 44.7892 86.06 44.2532 86.06ZM52.3469 86V84.608L52.3109 84.38V82.052C52.3109 81.516 52.1589 81.104 51.8549 80.816C51.5589 80.528 51.1149 80.384 50.5229 80.384C50.1149 80.384 49.7269 80.452 49.3589 80.588C48.9909 80.724 48.6789 80.904 48.4229 81.128L48.0389 80.492C48.3589 80.22 48.7429 80.012 49.1909 79.868C49.6389 79.716 50.1109 79.64 50.6069 79.64C51.4229 79.64 52.0509 79.844 52.4909 80.252C52.9389 80.652 53.1629 81.264 53.1629 82.088V86H52.3469ZM50.1749 86.06C49.7029 86.06 49.2909 85.984 48.9389 85.832C48.5949 85.672 48.3309 85.456 48.1469 85.184C47.9629 84.904 47.8709 84.584 47.8709 84.224C47.8709 83.896 47.9469 83.6 48.0989 83.336C48.2589 83.064 48.5149 82.848 48.8669 82.688C49.2269 82.52 49.7069 82.436 50.3069 82.436H52.4789V83.072H50.3309C49.7229 83.072 49.2989 83.18 49.0589 83.396C48.8269 83.612 48.7109 83.88 48.7109 84.2C48.7109 84.56 48.8509 84.848 49.1309 85.064C49.4109 85.28 49.8029 85.388 50.3069 85.388C50.7869 85.388 51.1989 85.28 51.5429 85.064C51.8949 84.84 52.1509 84.52 52.3109 84.104L52.5029 84.692C52.3429 85.108 52.0629 85.44 51.6629 85.688C51.2709 85.936 50.7749 86.06 50.1749 86.06ZM55.4771 86V77.096H56.3291V86H55.4771Z" fill="#131313"/>
<path d="M38.7983 44.096C38.2063 44.096 37.6303 44.004 37.0703 43.82C36.5183 43.636 36.0663 43.388 35.7143 43.076L36.2663 42.128C36.5463 42.392 36.9103 42.608 37.3583 42.776C37.8063 42.944 38.2863 43.028 38.7983 43.028C39.4223 43.028 39.9063 42.896 40.2503 42.632C40.6023 42.36 40.7783 41.996 40.7783 41.54C40.7783 41.1 40.6103 40.748 40.2743 40.484C39.9463 40.212 39.4223 40.076 38.7023 40.076H38.0303V39.236L40.5263 36.164L40.6943 36.644H36.0983V35.6H41.6423V36.416L39.1583 39.476L38.5343 39.104H38.9303C39.9463 39.104 40.7063 39.332 41.2103 39.788C41.7223 40.244 41.9783 40.824 41.9783 41.528C41.9783 42 41.8623 42.432 41.6303 42.824C41.3983 43.216 41.0463 43.528 40.5743 43.76C40.1103 43.984 39.5183 44.096 38.7983 44.096ZM42.9069 44V43.184L46.3269 39.884C46.6309 39.596 46.8549 39.344 46.9989 39.128C47.1509 38.904 47.2509 38.7 47.2989 38.516C47.3549 38.324 47.3829 38.14 47.3829 37.964C47.3829 37.532 47.2309 37.192 46.9269 36.944C46.6229 36.696 46.1789 36.572 45.5949 36.572C45.1469 36.572 44.7429 36.648 44.3829 36.8C44.0229 36.944 43.7109 37.172 43.4469 37.484L42.6309 36.776C42.9509 36.368 43.3789 36.056 43.9149 35.84C44.4589 35.616 45.0549 35.504 45.7029 35.504C46.2869 35.504 46.7949 35.6 47.2269 35.792C47.6589 35.976 47.9909 36.244 48.2229 36.596C48.4629 36.948 48.5829 37.364 48.5829 37.844C48.5829 38.116 48.5469 38.384 48.4749 38.648C48.4029 38.912 48.2669 39.192 48.0669 39.488C47.8669 39.784 47.5789 40.116 47.2029 40.484L44.1549 43.424L43.8669 42.956H48.9429V44H42.9069ZM53.3498 44.096C52.6938 44.096 52.1058 43.928 51.5858 43.592C51.0738 43.256 50.6658 42.768 50.3618 42.128C50.0658 41.488 49.9178 40.712 49.9178 39.8C49.9178 38.888 50.0658 38.112 50.3618 37.472C50.6658 36.832 51.0738 36.344 51.5858 36.008C52.1058 35.672 52.6938 35.504 53.3498 35.504C53.9978 35.504 54.5818 35.672 55.1018 36.008C55.6218 36.344 56.0298 36.832 56.3258 37.472C56.6218 38.112 56.7698 38.888 56.7698 39.8C56.7698 40.712 56.6218 41.488 56.3258 42.128C56.0298 42.768 55.6218 43.256 55.1018 43.592C54.5818 43.928 53.9978 44.096 53.3498 44.096ZM53.3498 43.028C53.7898 43.028 54.1738 42.908 54.5018 42.668C54.8378 42.428 55.0978 42.068 55.2818 41.588C55.4738 41.108 55.5698 40.512 55.5698 39.8C55.5698 39.088 55.4738 38.492 55.2818 38.012C55.0978 37.532 54.8378 37.172 54.5018 36.932C54.1738 36.692 53.7898 36.572 53.3498 36.572C52.9098 36.572 52.5218 36.692 52.1858 36.932C51.8498 37.172 51.5858 37.532 51.3938 38.012C51.2098 38.492 51.1178 39.088 51.1178 39.8C51.1178 40.512 51.2098 41.108 51.3938 41.588C51.5858 42.068 51.8498 42.428 52.1858 42.668C52.5218 42.908 52.9098 43.028 53.3498 43.028Z" fill="#131313"/>
<defs>
<filter id="filter0_d_2_37015" x="0" y="0" width="93" height="93" filterUnits="userSpaceOnUse" color-interpolation-filters="sRGB">
<feFlood flood-opacity="0" result="BackgroundImageFix"/>
<feColorMatrix in="SourceAlpha" type="matrix" values="0 0 0 0 0 0 0 0 0 0 0 0 0 0 0 0 0 0 127 0" result="hardAlpha"/>
<feOffset dy="6"/>
<feGaussianBlur stdDeviation="10"/>
<feComposite in2="hardAlpha" operator="out"/>
<feColorMatrix type="matrix" values="0 0 0 0 0.0392157 0 0 0 0 0.533333 0 0 0 0 0.0901961 0 0 0 0.25 0"/>
<feBlend mode="normal" in2="BackgroundImageFix" result="effect1_dropShadow_2_37015"/>
<feBlend mode="normal" in="SourceGraphic" in2="effect1_dropShadow_2_37015" result="shape"/>
</filter>
</defs>
</svg>
