<svg width="22" height="10" viewBox="0 0 22 10" fill="none" xmlns="http://www.w3.org/2000/svg">
<path d="M3.7983 9.096C3.2063 9.096 2.6303 9.004 2.0703 8.82C1.5183 8.636 1.0663 8.388 0.714297 8.076L1.2663 7.128C1.5463 7.392 1.9103 7.608 2.3583 7.776C2.8063 7.944 3.2863 8.028 3.7983 8.028C4.4223 8.028 4.9063 7.896 5.2503 7.632C5.6023 7.36 5.7783 6.996 5.7783 6.54C5.7783 6.1 5.6103 5.748 5.2743 5.484C4.9463 5.212 4.4223 5.076 3.7023 5.076H3.0303V4.236L5.5263 1.164L5.6943 1.644H1.0983V0.599999H6.6423V1.416L4.1583 4.476L3.5343 4.104H3.9303C4.9463 4.104 5.7063 4.332 6.2103 4.788C6.7223 5.244 6.9783 5.824 6.9783 6.528C6.9783 7 6.8623 7.432 6.6303 7.824C6.3983 8.216 6.0463 8.528 5.5743 8.76C5.1103 8.984 4.5183 9.096 3.7983 9.096ZM7.90689 9V8.184L11.3269 4.884C11.6309 4.596 11.8549 4.344 11.9989 4.128C12.1509 3.904 12.2509 3.7 12.2989 3.516C12.3549 3.324 12.3829 3.14 12.3829 2.964C12.3829 2.532 12.2309 2.192 11.9269 1.944C11.6229 1.696 11.1789 1.572 10.5949 1.572C10.1469 1.572 9.74289 1.648 9.38289 1.8C9.02289 1.944 8.71089 2.172 8.44689 2.484L7.63089 1.776C7.95089 1.368 8.37889 1.056 8.91489 0.84C9.45889 0.616 10.0549 0.504 10.7029 0.504C11.2869 0.504 11.7949 0.6 12.2269 0.792C12.6589 0.976 12.9909 1.244 13.2229 1.596C13.4629 1.948 13.5829 2.364 13.5829 2.844C13.5829 3.116 13.5469 3.384 13.4749 3.648C13.4029 3.912 13.2669 4.192 13.0669 4.488C12.8669 4.784 12.5789 5.116 12.2029 5.484L9.15489 8.424L8.86689 7.956H13.9429V9H7.90689ZM18.3498 9.096C17.6938 9.096 17.1058 8.928 16.5858 8.592C16.0738 8.256 15.6658 7.768 15.3618 7.128C15.0658 6.488 14.9178 5.712 14.9178 4.8C14.9178 3.888 15.0658 3.112 15.3618 2.472C15.6658 1.832 16.0738 1.344 16.5858 1.008C17.1058 0.672 17.6938 0.504 18.3498 0.504C18.9978 0.504 19.5818 0.672 20.1018 1.008C20.6218 1.344 21.0298 1.832 21.3258 2.472C21.6218 3.112 21.7698 3.888 21.7698 4.8C21.7698 5.712 21.6218 6.488 21.3258 7.128C21.0298 7.768 20.6218 8.256 20.1018 8.592C19.5818 8.928 18.9978 9.096 18.3498 9.096ZM18.3498 8.028C18.7898 8.028 19.1738 7.908 19.5018 7.668C19.8378 7.428 20.0978 7.068 20.2818 6.588C20.4738 6.108 20.5698 5.512 20.5698 4.8C20.5698 4.088 20.4738 3.492 20.2818 3.012C20.0978 2.532 19.8378 2.172 19.5018 1.932C19.1738 1.692 18.7898 1.572 18.3498 1.572C17.9098 1.572 17.5218 1.692 17.1858 1.932C16.8498 2.172 16.5858 2.532 16.3938 3.012C16.2098 3.492 16.1178 4.088 16.1178 4.8C16.1178 5.512 16.2098 6.108 16.3938 6.588C16.5858 7.068 16.8498 7.428 17.1858 7.668C17.5218 7.908 17.9098 8.028 18.3498 8.028Z" fill="#131313"/>
</svg>
