<svg width="93" height="103" viewBox="0 0 93 103" fill="none" xmlns="http://www.w3.org/2000/svg">
<rect x="15" y="14" width="63" height="88" rx="31.5" stroke="#9CBE8F" stroke-width="2"/>
<g filter="url(#filter0_d_2_37015)">
<circle cx="46.5" cy="40.5" r="26.5" fill="#9CBE8F"/>
<circle cx="46.5" cy="40.5" r="25.5" stroke="#9CBE8F" stroke-width="2"/>
</g>
<path d="M38.7983 44.096C38.2063 44.096 37.6303 44.004 37.0703 43.82C36.5183 43.636 36.0663 43.388 35.7143 43.076L36.2663 42.128C36.5463 42.392 36.9103 42.608 37.3583 42.776C37.8063 42.944 38.2863 43.028 38.7983 43.028C39.4223 43.028 39.9063 42.896 40.2503 42.632C40.6023 42.36 40.7783 41.996 40.7783 41.54C40.7783 41.1 40.6103 40.748 40.2743 40.484C39.9463 40.212 39.4223 40.076 38.7023 40.076H38.0303V39.236L40.5263 36.164L40.6943 36.644H36.0983V35.6H41.6423V36.416L39.1583 39.476L38.5343 39.104H38.9303C39.9463 39.104 40.7063 39.332 41.2103 39.788C41.7223 40.244 41.9783 40.824 41.9783 41.528C41.9783 42 41.8623 42.432 41.6303 42.824C41.3983 43.216 41.0463 43.528 40.5743 43.76C40.1103 43.984 39.5183 44.096 38.7983 44.096ZM42.9069 44V43.184L46.3269 39.884C46.6309 39.596 46.8549 39.344 46.9989 39.128C47.1509 38.904 47.2509 38.7 47.2989 38.516C47.3549 38.324 47.3829 38.14 47.3829 37.964C47.3829 37.532 47.2309 37.192 46.9269 36.944C46.6229 36.696 46.1789 36.572 45.5949 36.572C45.1469 36.572 44.7429 36.648 44.3829 36.8C44.0229 36.944 43.7109 37.172 43.4469 37.484L42.6309 36.776C42.9509 36.368 43.3789 36.056 43.9149 35.84C44.4589 35.616 45.0549 35.504 45.7029 35.504C46.2869 35.504 46.7949 35.6 47.2269 35.792C47.6589 35.976 47.9909 36.244 48.2229 36.596C48.4629 36.948 48.5829 37.364 48.5829 37.844C48.5829 38.116 48.5469 38.384 48.4749 38.648C48.4029 38.912 48.2669 39.192 48.0669 39.488C47.8669 39.784 47.5789 40.116 47.2029 40.484L44.1549 43.424L43.8669 42.956H48.9429V44H42.9069ZM53.3498 44.096C52.6938 44.096 52.1058 43.928 51.5858 43.592C51.0738 43.256 50.6658 42.768 50.3618 42.128C50.0658 41.488 49.9178 40.712 49.9178 39.8C49.9178 38.888 50.0658 38.112 50.3618 37.472C50.6658 36.832 51.0738 36.344 51.5858 36.008C52.1058 35.672 52.6938 35.504 53.3498 35.504C53.9978 35.504 54.5818 35.672 55.1018 36.008C55.6218 36.344 56.0298 36.832 56.3258 37.472C56.6218 38.112 56.7698 38.888 56.7698 39.8C56.7698 40.712 56.6218 41.488 56.3258 42.128C56.0298 42.768 55.6218 43.256 55.1018 43.592C54.5818 43.928 53.9978 44.096 53.3498 44.096ZM53.3498 43.028C53.7898 43.028 54.1738 42.908 54.5018 42.668C54.8378 42.428 55.0978 42.068 55.2818 41.588C55.4738 41.108 55.5698 40.512 55.5698 39.8C55.5698 39.088 55.4738 38.492 55.2818 38.012C55.0978 37.532 54.8378 37.172 54.5018 36.932C54.1738 36.692 53.7898 36.572 53.3498 36.572C52.9098 36.572 52.5218 36.692 52.1858 36.932C51.8498 37.172 51.5858 37.532 51.3938 38.012C51.2098 38.492 51.1178 39.088 51.1178 39.8C51.1178 40.512 51.2098 41.108 51.3938 41.588C51.5858 42.068 51.8498 42.428 52.1858 42.668C52.5218 42.908 52.9098 43.028 53.3498 43.028Z" fill="#131313"/>
<path d="M37.0703 43.82L36.4378 45.7174L36.446 45.7201L37.0703 43.82ZM35.7143 43.076L33.9859 42.0696L33.1614 43.4857L34.3877 44.5727L35.7143 43.076ZM36.2663 42.128L37.6383 40.6728L35.8055 38.9447L34.5379 41.1216L36.2663 42.128ZM37.3583 42.776L38.0605 40.9033H38.0605L37.3583 42.776ZM40.2503 42.632L41.4679 44.2186L41.4732 44.2146L40.2503 42.632ZM40.2743 40.484L38.9976 42.0235L39.0179 42.0403L39.0387 42.0566L40.2743 40.484ZM38.0303 40.076H36.0303V42.076H38.0303V40.076ZM38.0303 39.236L36.4781 37.9748L36.0303 38.5259V39.236H38.0303ZM40.5263 36.164L42.414 35.5033L41.2314 32.1245L38.9741 34.9028L40.5263 36.164ZM40.6943 36.644V38.644H43.5133L42.582 35.9833L40.6943 36.644ZM36.0983 36.644H34.0983V38.644H36.0983V36.644ZM36.0983 35.6V33.6H34.0983V35.6H36.0983ZM41.6423 35.6H43.6423V33.6H41.6423V35.6ZM41.6423 36.416L43.1951 37.6765L43.6423 37.1256V36.416H41.6423ZM39.1583 39.476L38.1342 41.1939L39.6205 42.08L40.7111 40.7365L39.1583 39.476ZM38.5343 39.104V37.104H31.2737L37.5102 40.8219L38.5343 39.104ZM41.2103 39.788L39.8685 41.2711L39.8743 41.2763L39.8801 41.2815L41.2103 39.788ZM41.6303 42.824L43.3514 43.8426H43.3515L41.6303 42.824ZM40.5743 43.76L41.4438 45.5611L41.4502 45.558L41.4565 45.5549L40.5743 43.76ZM38.7983 42.096C38.4174 42.096 38.0522 42.0374 37.6946 41.9199L36.446 45.7201C37.2084 45.9706 37.9951 46.096 38.7983 46.096V42.096ZM37.7028 41.9226C37.3479 41.8043 37.1491 41.6752 37.0409 41.5793L34.3877 44.5727C34.9835 45.1008 35.6887 45.4677 36.4378 45.7174L37.7028 41.9226ZM37.4426 44.0824L37.9946 43.1344L34.5379 41.1216L33.9859 42.0696L37.4426 44.0824ZM34.8943 43.5832C35.4084 44.068 36.0179 44.4093 36.6561 44.6487L38.0605 40.9033C37.8027 40.8067 37.6842 40.716 37.6383 40.6728L34.8943 43.5832ZM36.6561 44.6487C37.3439 44.9066 38.0634 45.028 38.7983 45.028V41.028C38.5092 41.028 38.2687 40.9814 38.0605 40.9033L36.6561 44.6487ZM38.7983 45.028C39.6754 45.028 40.6506 44.8459 41.4679 44.2186L39.0327 41.0454C39.0964 40.9965 39.1334 40.9912 39.1031 40.9995C39.0683 41.009 38.9738 41.028 38.7983 41.028V45.028ZM41.4732 44.2146C42.3295 43.5529 42.7783 42.5972 42.7783 41.54H38.7783C38.7783 41.5053 38.7866 41.4067 38.8457 41.2844C38.9056 41.1605 38.9833 41.0835 39.0274 41.0494L41.4732 44.2146ZM42.7783 41.54C42.7783 40.5075 42.345 39.5675 41.5099 38.9114L39.0387 42.0566C38.9882 42.017 38.9082 41.9349 38.8473 41.8075C38.7874 41.6818 38.7783 41.5797 38.7783 41.54H42.7783ZM41.551 38.9445C40.6888 38.2295 39.594 38.076 38.7023 38.076V42.076C38.9448 42.076 39.0786 42.0998 39.1329 42.1139C39.1852 42.1274 39.112 42.1183 38.9976 42.0235L41.551 38.9445ZM38.7023 38.076H38.0303V42.076H38.7023V38.076ZM40.0303 40.076V39.236H36.0303V40.076H40.0303ZM39.5825 40.4972L42.0785 37.4252L38.9741 34.9028L36.4781 37.9748L39.5825 40.4972ZM38.6386 36.8247L38.8066 37.3047L42.582 35.9833L42.414 35.5033L38.6386 36.8247ZM40.6943 34.644H36.0983V38.644H40.6943V34.644ZM38.0983 36.644V35.6H34.0983V36.644H38.0983ZM36.0983 37.6H41.6423V33.6H36.0983V37.6ZM39.6423 35.6V36.416H43.6423V35.6H39.6423ZM40.0895 35.1555L37.6055 38.2155L40.7111 40.7365L43.1951 37.6765L40.0895 35.1555ZM40.1824 37.7581L39.5584 37.3861L37.5102 40.8219L38.1342 41.1939L40.1824 37.7581ZM38.5343 41.104H38.9303V37.104H38.5343V41.104ZM38.9303 41.104C39.2953 41.104 39.5378 41.1457 39.6876 41.1907C39.7602 41.2124 39.8062 41.2335 39.8324 41.2477C39.8579 41.2615 39.8676 41.2702 39.8685 41.2711L42.5521 38.3049C41.5349 37.3846 40.2029 37.104 38.9303 37.104V41.104ZM39.8801 41.2815C39.9401 41.335 39.9533 41.3651 39.9566 41.3726C39.9605 41.3814 39.9783 41.4233 39.9783 41.528H43.9783C43.9783 40.2708 43.4914 39.1414 42.5405 38.2945L39.8801 41.2815ZM39.9783 41.528C39.9783 41.6552 39.9518 41.7333 39.9091 41.8054L43.3515 43.8426C43.7728 43.1307 43.9783 42.3448 43.9783 41.528H39.9783ZM39.9091 41.8054C39.9045 41.8131 39.8702 41.8775 39.6921 41.9651L41.4565 45.5549C42.2224 45.1785 42.892 44.6189 43.3514 43.8426L39.9091 41.8054ZM39.7048 41.9589C39.5976 42.0107 39.3294 42.096 38.7983 42.096V46.096C39.7072 46.096 40.623 45.9573 41.4438 45.5611L39.7048 41.9589ZM42.9069 44H40.9069V46H42.9069V44ZM42.9069 43.184L41.5182 41.7448L40.9069 42.3346V43.184H42.9069ZM46.3269 39.884L44.9514 38.4321L44.9447 38.4384L44.9382 38.4448L46.3269 39.884ZM46.9989 39.128L45.3439 38.005L45.3393 38.0118L45.3348 38.0186L46.9989 39.128ZM47.2989 38.516L45.3789 37.956L45.3709 37.9835L45.3637 38.0112L47.2989 38.516ZM46.9269 36.944L45.6626 38.4937L45.6626 38.4937L46.9269 36.944ZM44.3829 36.8L45.1257 38.657L45.1433 38.6499L45.1608 38.6425L44.3829 36.8ZM43.4469 37.484L42.1362 38.9946L43.6657 40.3217L44.9737 38.7759L43.4469 37.484ZM42.6309 36.776L41.0572 35.5417L39.8826 37.0393L41.3202 38.2866L42.6309 36.776ZM43.9149 35.84L44.6624 37.695L44.6694 37.6922L44.6764 37.6894L43.9149 35.84ZM47.2269 35.792L46.4146 37.6196L46.4288 37.6259L46.4432 37.632L47.2269 35.792ZM48.2229 36.596L46.553 37.6966L46.5616 37.7097L46.5704 37.7227L48.2229 36.596ZM48.4749 38.648L50.4044 39.1742V39.1742L48.4749 38.648ZM48.0669 39.488L46.4097 38.3683L46.4097 38.3683L48.0669 39.488ZM47.2029 40.484L48.5914 41.9235L48.5966 41.9184L48.6018 41.9133L47.2029 40.484ZM44.1549 43.424L42.4516 44.4722L43.7543 46.5892L45.5434 44.8635L44.1549 43.424ZM43.8669 42.956V40.956H40.2878L42.1636 44.0042L43.8669 42.956ZM48.9429 42.956H50.9429V40.956H48.9429V42.956ZM48.9429 44V46H50.9429V44H48.9429ZM44.9069 44V43.184H40.9069V44H44.9069ZM44.2956 44.6232L47.7156 41.3232L44.9382 38.4448L41.5182 41.7448L44.2956 44.6232ZM47.7024 41.3359C48.0576 40.9994 48.4012 40.6301 48.663 40.2374L45.3348 38.0186C45.3086 38.0579 45.2042 38.1926 44.9514 38.4321L47.7024 41.3359ZM48.6538 40.251C48.8841 39.9117 49.1098 39.4972 49.2341 39.0208L45.3637 38.0112C45.3716 37.9806 45.3793 37.9584 45.3845 37.945C45.3896 37.9315 45.3927 37.9253 45.392 37.9267C45.3914 37.928 45.3877 37.9354 45.3797 37.949C45.3717 37.9626 45.3601 37.9812 45.3439 38.005L48.6538 40.251ZM49.2189 39.076C49.3209 38.7264 49.3829 38.3533 49.3829 37.964H45.3829C45.3829 37.9267 45.3889 37.9216 45.3789 37.956L49.2189 39.076ZM49.3829 37.964C49.3829 37.0002 49.0117 36.0637 48.1911 35.3943L45.6626 38.4937C45.5861 38.4313 45.5013 38.3315 45.443 38.2013C45.3873 38.0766 45.3829 37.9846 45.3829 37.964H49.3829ZM48.1911 35.3943C47.3922 34.7425 46.4228 34.572 45.5949 34.572V38.572C45.6708 38.572 45.7274 38.5761 45.7671 38.5809C45.8069 38.5856 45.8258 38.5907 45.8279 38.5913C45.8303 38.592 45.7583 38.5717 45.6626 38.4937L48.1911 35.3943ZM45.5949 34.572C44.9185 34.572 44.2446 34.6874 43.6049 34.9575L45.1608 38.6425C45.2412 38.6086 45.3753 38.572 45.5949 38.572V34.572ZM43.6401 34.943C42.96 35.2151 42.3835 35.6444 41.9201 36.1921L44.9737 38.7759C45.0382 38.6996 45.0858 38.6729 45.1257 38.657L43.6401 34.943ZM44.7576 35.9734L43.9416 35.2654L41.3202 38.2866L42.1362 38.9946L44.7576 35.9734ZM44.2046 38.0103C44.2844 37.9086 44.4134 37.7954 44.6624 37.695L43.1673 33.985C42.3444 34.3166 41.6174 34.8274 41.0572 35.5417L44.2046 38.0103ZM44.6764 37.6894C44.9554 37.5745 45.2895 37.504 45.7029 37.504V33.504C44.8202 33.504 43.9624 33.6575 43.1534 33.9906L44.6764 37.6894ZM45.7029 37.504C46.0711 37.504 46.291 37.5647 46.4146 37.6196L48.0392 33.9644C47.2987 33.6353 46.5026 33.504 45.7029 33.504V37.504ZM46.4432 37.632C46.5062 37.6589 46.5349 37.6802 46.5437 37.6872C46.5511 37.6932 46.5519 37.695 46.553 37.6966L49.8928 35.4954C49.4203 34.7785 48.7616 34.2718 48.0106 33.952L46.4432 37.632ZM46.5704 37.7227C46.5706 37.7229 46.57 37.722 46.5695 37.7209C46.569 37.7198 46.5698 37.7212 46.5712 37.7263C46.574 37.7358 46.5829 37.7714 46.5829 37.844H50.5829C50.5829 37.0148 50.3698 36.1945 49.8753 35.4693L46.5704 37.7227ZM46.5829 37.844C46.5829 37.9372 46.5709 38.0282 46.5454 38.1218L50.4044 39.1742C50.5229 38.7398 50.5829 38.2948 50.5829 37.844H46.5829ZM46.5454 38.1218C46.5456 38.121 46.5224 38.2015 46.4097 38.3683L49.7241 40.6077C50.0114 40.1825 50.2602 39.703 50.4044 39.1742L46.5454 38.1218ZM46.4097 38.3683C46.3114 38.5137 46.1243 38.7411 45.804 39.0547L48.6018 41.9133C49.0335 41.4909 49.4224 41.0543 49.7241 40.6077L46.4097 38.3683ZM45.8144 39.0445L42.7664 41.9845L45.5434 44.8635L48.5914 41.9235L45.8144 39.0445ZM45.8582 42.3758L45.5702 41.9078L42.1636 44.0042L42.4516 44.4722L45.8582 42.3758ZM43.8669 44.956H48.9429V40.956H43.8669V44.956ZM46.9429 42.956V44H50.9429V42.956H46.9429ZM48.9429 42H42.9069V46H48.9429V42ZM51.5858 43.592L50.4885 45.2641L50.4944 45.268L50.5004 45.2718L51.5858 43.592ZM50.3618 42.128L48.5465 42.9676L48.5508 42.9769L48.5552 42.9861L50.3618 42.128ZM50.3618 37.472L48.5552 36.6139L48.5508 36.6231L48.5465 36.6324L50.3618 37.472ZM51.5858 36.008L50.5004 34.3282L50.4944 34.332L50.4885 34.3359L51.5858 36.008ZM56.3258 37.472L58.1411 36.6324L56.3258 37.472ZM56.3258 42.128L58.1411 42.9676L56.3258 42.128ZM55.1018 43.592L56.1872 45.2718L55.1018 43.592ZM54.5018 42.668L53.3393 41.0405L53.33 41.0472L53.3208 41.0539L54.5018 42.668ZM55.2818 41.588L53.4248 40.8452L53.4195 40.8586L53.4143 40.8721L55.2818 41.588ZM55.2818 38.012L53.4143 38.7279L53.4195 38.7414L53.4248 38.7548L55.2818 38.012ZM54.5018 36.932L53.3208 38.5461L53.33 38.5528L53.3393 38.5595L54.5018 36.932ZM52.1858 36.932L51.0233 35.3045L51.0233 35.3045L52.1858 36.932ZM51.3938 38.012L49.5368 37.2692L49.5315 37.2826L49.5263 37.2961L51.3938 38.012ZM51.3938 41.588L49.5263 42.3039L49.5315 42.3174L49.5368 42.3308L51.3938 41.588ZM52.1858 42.668L53.3483 41.0405H53.3483L52.1858 42.668ZM53.3498 42.096C53.0548 42.096 52.8481 42.0265 52.6712 41.9122L50.5004 45.2718C51.3634 45.8295 52.3328 46.096 53.3498 46.096V42.096ZM52.6831 41.9199C52.5232 41.8149 52.3401 41.6315 52.1684 41.2699L48.5552 42.9861C48.9915 43.9045 49.6244 44.6971 50.4885 45.2641L52.6831 41.9199ZM52.1771 41.2884C52.0329 40.9769 51.9178 40.5038 51.9178 39.8H47.9178C47.9178 40.9202 48.0986 41.9991 48.5465 42.9676L52.1771 41.2884ZM51.9178 39.8C51.9178 39.0962 52.0329 38.6231 52.1771 38.3116L48.5465 36.6324C48.0986 37.6009 47.9178 38.6798 47.9178 39.8H51.9178ZM52.1684 38.3301C52.3401 37.9685 52.5232 37.7851 52.6831 37.6801L50.4885 34.3359C49.6244 34.9029 48.9915 35.6955 48.5552 36.6139L52.1684 38.3301ZM52.6712 37.6878C52.8481 37.5735 53.0548 37.504 53.3498 37.504V33.504C52.3328 33.504 51.3634 33.7705 50.5004 34.3282L52.6712 37.6878ZM53.3498 37.504C53.6316 37.504 53.8353 37.5709 54.0164 37.6878L56.1872 34.3282C55.3283 33.7731 54.364 33.504 53.3498 33.504V37.504ZM54.0164 37.6878C54.176 37.791 54.3508 37.9661 54.5105 38.3116L58.1411 36.6324C57.7088 35.6979 57.0676 34.897 56.1872 34.3282L54.0164 37.6878ZM54.5105 38.3116C54.6546 38.6231 54.7698 39.0962 54.7698 39.8H58.7698C58.7698 38.6798 58.5889 37.6009 58.1411 36.6324L54.5105 38.3116ZM54.7698 39.8C54.7698 40.5038 54.6546 40.9769 54.5105 41.2884L58.1411 42.9676C58.5889 41.9991 58.7698 40.9202 58.7698 39.8H54.7698ZM54.5105 41.2884C54.3508 41.6339 54.176 41.809 54.0164 41.9122L56.1872 45.2718C57.0676 44.703 57.7088 43.9021 58.1411 42.9676L54.5105 41.2884ZM54.0164 41.9122C53.8353 42.0291 53.6316 42.096 53.3498 42.096V46.096C54.364 46.096 55.3283 45.8269 56.1872 45.2718L54.0164 41.9122ZM53.3498 45.028C54.1774 45.028 54.9833 44.7939 55.6828 44.2821L53.3208 41.0539C53.3252 41.0507 53.3327 41.0458 53.3429 41.0407C53.3531 41.0355 53.3629 41.0316 53.3712 41.029C53.3795 41.0265 53.3832 41.0261 53.3811 41.0264C53.3787 41.0267 53.3688 41.028 53.3498 41.028V45.028ZM55.6643 44.2955C56.3899 43.7771 56.8593 43.0604 57.1493 42.3039L53.4143 40.8721C53.3748 40.9752 53.3416 41.0274 53.3274 41.047C53.315 41.0642 53.3177 41.056 53.3393 41.0405L55.6643 44.2955ZM57.1388 42.3308C57.4536 41.5436 57.5698 40.6769 57.5698 39.8H53.5698C53.5698 40.3471 53.494 40.6724 53.4248 40.8452L57.1388 42.3308ZM57.5698 39.8C57.5698 38.9231 57.4536 38.0564 57.1388 37.2692L53.4248 38.7548C53.494 38.9276 53.5698 39.2529 53.5698 39.8H57.5698ZM57.1493 37.2961C56.8593 36.5396 56.3899 35.8229 55.6643 35.3045L53.3393 38.5595C53.3177 38.544 53.315 38.5358 53.3274 38.553C53.3416 38.5726 53.3748 38.6248 53.4143 38.7279L57.1493 37.2961ZM55.6828 35.3179C54.9833 34.8061 54.1774 34.572 53.3498 34.572V38.572C53.3688 38.572 53.3787 38.5733 53.3811 38.5736C53.3832 38.5739 53.3795 38.5735 53.3712 38.571C53.3629 38.5684 53.3531 38.5645 53.3429 38.5593C53.3327 38.5542 53.3252 38.5493 53.3208 38.5461L55.6828 35.3179ZM53.3498 34.572C52.5219 34.572 51.7213 34.8059 51.0233 35.3045L53.3483 38.5595C53.3479 38.5597 53.3444 38.5622 53.338 38.5653C53.3316 38.5685 53.3252 38.571 53.3197 38.5727C53.3144 38.5744 53.3128 38.5743 53.3164 38.5738C53.3202 38.5733 53.3309 38.572 53.3498 38.572V34.572ZM51.0233 35.3045C50.306 35.8169 49.8352 36.5232 49.5368 37.2692L53.2507 38.7548C53.2938 38.6471 53.3304 38.5896 53.3486 38.5647C53.3652 38.5421 53.3665 38.5464 53.3483 38.5595L51.0233 35.3045ZM49.5263 37.2961C49.2281 38.0742 49.1178 38.9308 49.1178 39.8H53.1178C53.1178 39.2452 53.1915 38.9098 53.2613 38.7279L49.5263 37.2961ZM49.1178 39.8C49.1178 40.6692 49.2281 41.5258 49.5263 42.3039L53.2613 40.8721C53.1915 40.6902 53.1178 40.3548 53.1178 39.8H49.1178ZM49.5368 42.3308C49.8352 43.0768 50.306 43.7831 51.0233 44.2955L53.3483 41.0405C53.3665 41.0536 53.3652 41.0579 53.3486 41.0353C53.3304 41.0104 53.2938 40.9529 53.2507 40.8452L49.5368 42.3308ZM51.0233 44.2955C51.7213 44.7941 52.5219 45.028 53.3498 45.028V41.028C53.3309 41.028 53.3202 41.0267 53.3164 41.0262C53.3128 41.0257 53.3144 41.0256 53.3197 41.0273C53.3252 41.029 53.3316 41.0315 53.338 41.0347C53.3444 41.0378 53.3479 41.0403 53.3483 41.0405L51.0233 44.2955Z" fill="#9CBE8F"/>
<path d="M35.3483 84.368L35.3723 83.276L39.2963 79.7H40.3403L37.5683 82.352L37.0883 82.76L35.3483 84.368ZM34.6763 86V77.096H35.5283V86H34.6763ZM39.5603 86L36.9323 82.724L37.4843 82.064L40.6043 86H39.5603ZM44.2532 86.06C43.6292 86.06 43.0692 85.924 42.5732 85.652C42.0852 85.372 41.7012 84.992 41.4212 84.512C41.1412 84.024 41.0012 83.468 41.0012 82.844C41.0012 82.212 41.1412 81.656 41.4212 81.176C41.7012 80.696 42.0852 80.32 42.5732 80.048C43.0692 79.776 43.6292 79.64 44.2532 79.64C44.7892 79.64 45.2732 79.744 45.7052 79.952C46.1372 80.16 46.4772 80.472 46.7252 80.888L46.0892 81.32C45.8732 81 45.6052 80.764 45.2852 80.612C44.9652 80.46 44.6172 80.384 44.2412 80.384C43.7932 80.384 43.3892 80.488 43.0292 80.696C42.6692 80.896 42.3852 81.18 42.1772 81.548C41.9692 81.916 41.8652 82.348 41.8652 82.844C41.8652 83.34 41.9692 83.772 42.1772 84.14C42.3852 84.508 42.6692 84.796 43.0292 85.004C43.3892 85.204 43.7932 85.304 44.2412 85.304C44.6172 85.304 44.9652 85.228 45.2852 85.076C45.6052 84.924 45.8732 84.692 46.0892 84.38L46.7252 84.812C46.4772 85.22 46.1372 85.532 45.7052 85.748C45.2732 85.956 44.7892 86.06 44.2532 86.06ZM52.3469 86V84.608L52.3109 84.38V82.052C52.3109 81.516 52.1589 81.104 51.8549 80.816C51.5589 80.528 51.1149 80.384 50.5229 80.384C50.1149 80.384 49.7269 80.452 49.3589 80.588C48.9909 80.724 48.6789 80.904 48.4229 81.128L48.0389 80.492C48.3589 80.22 48.7429 80.012 49.1909 79.868C49.6389 79.716 50.1109 79.64 50.6069 79.64C51.4229 79.64 52.0509 79.844 52.4909 80.252C52.9389 80.652 53.1629 81.264 53.1629 82.088V86H52.3469ZM50.1749 86.06C49.7029 86.06 49.2909 85.984 48.9389 85.832C48.5949 85.672 48.3309 85.456 48.1469 85.184C47.9629 84.904 47.8709 84.584 47.8709 84.224C47.8709 83.896 47.9469 83.6 48.0989 83.336C48.2589 83.064 48.5149 82.848 48.8669 82.688C49.2269 82.52 49.7069 82.436 50.3069 82.436H52.4789V83.072H50.3309C49.7229 83.072 49.2989 83.18 49.0589 83.396C48.8269 83.612 48.7109 83.88 48.7109 84.2C48.7109 84.56 48.8509 84.848 49.1309 85.064C49.4109 85.28 49.8029 85.388 50.3069 85.388C50.7869 85.388 51.1989 85.28 51.5429 85.064C51.8949 84.84 52.1509 84.52 52.3109 84.104L52.5029 84.692C52.3429 85.108 52.0629 85.44 51.6629 85.688C51.2709 85.936 50.7749 86.06 50.1749 86.06ZM55.4771 86V77.096H56.3291V86H55.4771Z" fill="#131313"/>
<defs>
<filter id="filter0_d_2_37015" x="0" y="0" width="93" height="93" filterUnits="userSpaceOnUse" color-interpolation-filters="sRGB">
<feFlood flood-opacity="0" result="BackgroundImageFix"/>
<feColorMatrix in="SourceAlpha" type="matrix" values="0 0 0 0 0 0 0 0 0 0 0 0 0 0 0 0 0 0 127 0" result="hardAlpha"/>
<feOffset dy="6"/>
<feGaussianBlur stdDeviation="10"/>
<feComposite in2="hardAlpha" operator="out"/>
<feColorMatrix type="matrix" values="0 0 0 0 0.0392157 0 0 0 0 0.533333 0 0 0 0 0.0901961 0 0 0 0.25 0"/>
<feBlend mode="normal" in2="BackgroundImageFix" result="effect1_dropShadow_2_37015"/>
<feBlend mode="normal" in="SourceGraphic" in2="effect1_dropShadow_2_37015" result="shape"/>
</filter>
</defs>
</svg>
