<svg width="22" height="10" viewBox="0 0 22 10" fill="none" xmlns="http://www.w3.org/2000/svg">
<path d="M3.7983 9.096C3.2063 9.096 2.6303 9.004 2.0703 8.82C1.5183 8.636 1.0663 8.388 0.714297 8.076L1.2663 7.128C1.5463 7.392 1.9103 7.608 2.3583 7.776C2.8063 7.944 3.2863 8.028 3.7983 8.028C4.4223 8.028 4.9063 7.896 5.2503 7.632C5.6023 7.36 5.7783 6.996 5.7783 6.54C5.7783 6.1 5.6103 5.748 5.2743 5.484C4.9463 5.212 4.4223 5.076 3.7023 5.076H3.0303V4.236L5.5263 1.164L5.6943 1.644H1.0983V0.599999H6.6423V1.416L4.1583 4.476L3.5343 4.104H3.9303C4.9463 4.104 5.7063 4.332 6.2103 4.788C6.7223 5.244 6.9783 5.824 6.9783 6.528C6.9783 7 6.8623 7.432 6.6303 7.824C6.3983 8.216 6.0463 8.528 5.5743 8.76C5.1103 8.984 4.5183 9.096 3.7983 9.096ZM7.90689 9V8.184L11.3269 4.884C11.6309 4.596 11.8549 4.344 11.9989 4.128C12.1509 3.904 12.2509 3.7 12.2989 3.516C12.3549 3.324 12.3829 3.14 12.3829 2.964C12.3829 2.532 12.2309 2.192 11.9269 1.944C11.6229 1.696 11.1789 1.572 10.5949 1.572C10.1469 1.572 9.74289 1.648 9.38289 1.8C9.02289 1.944 8.71089 2.172 8.44689 2.484L7.63089 1.776C7.95089 1.368 8.37889 1.056 8.91489 0.84C9.45889 0.616 10.0549 0.504 10.7029 0.504C11.2869 0.504 11.7949 0.6 12.2269 0.792C12.6589 0.976 12.9909 1.244 13.2229 1.596C13.4629 1.948 13.5829 2.364 13.5829 2.844C13.5829 3.116 13.5469 3.384 13.4749 3.648C13.4029 3.912 13.2669 4.192 13.0669 4.488C12.8669 4.784 12.5789 5.116 12.2029 5.484L9.15489 8.424L8.86689 7.956H13.9429V9H7.90689ZM18.3498 9.096C17.6938 9.096 17.1058 8.928 16.5858 8.592C16.0738 8.256 15.6658 7.768 15.3618 7.128C15.0658 6.488 14.9178 5.712 14.9178 4.8C14.9178 3.888 15.0658 3.112 15.3618 2.472C15.6658 1.832 16.0738 1.344 16.5858 1.008C17.1058 0.672 17.6938 0.504 18.3498 0.504C18.9978 0.504 19.5818 0.672 20.1018 1.008C20.6218 1.344 21.0298 1.832 21.3258 2.472C21.6218 3.112 21.7698 3.888 21.7698 4.8C21.7698 5.712 21.6218 6.488 21.3258 7.128C21.0298 7.768 20.6218 8.256 20.1018 8.592C19.5818 8.928 18.9978 9.096 18.3498 9.096ZM18.3498 8.028C18.7898 8.028 19.1738 7.908 19.5018 7.668C19.8378 7.428 20.0978 7.068 20.2818 6.588C20.4738 6.108 20.5698 5.512 20.5698 4.8C20.5698 4.088 20.4738 3.492 20.2818 3.012C20.0978 2.532 19.8378 2.172 19.5018 1.932C19.1738 1.692 18.7898 1.572 18.3498 1.572C17.9098 1.572 17.5218 1.692 17.1858 1.932C16.8498 2.172 16.5858 2.532 16.3938 3.012C16.2098 3.492 16.1178 4.088 16.1178 4.8C16.1178 5.512 16.2098 6.108 16.3938 6.588C16.5858 7.068 16.8498 7.428 17.1858 7.668C17.5218 7.908 17.9098 8.028 18.3498 8.028Z" fill="#131313"/>
<path d="M2.0703 8.82L1.43784 10.7174L1.44599 10.7201L2.0703 8.82ZM0.714297 8.076L-1.01405 7.06962L-1.83863 8.48574L-0.612318 9.57269L0.714297 8.076ZM1.2663 7.128L2.63832 5.67282L0.805501 3.94473L-0.462054 6.12162L1.2663 7.128ZM2.3583 7.776L3.06054 5.90334L3.06054 5.90334L2.3583 7.776ZM5.2503 7.632L6.46794 9.21863L6.47319 9.21457L5.2503 7.632ZM5.2743 5.484L3.99763 7.02352L4.01792 7.04035L4.03865 7.05664L5.2743 5.484ZM3.0303 5.076H1.0303V7.076H3.0303V5.076ZM3.0303 4.236L1.47807 2.97481L1.0303 3.52592V4.236H3.0303ZM5.5263 1.164L7.41401 0.503299L6.23144 -2.87549L3.97407 -0.0971858L5.5263 1.164ZM5.6943 1.644V3.644H8.51326L7.58201 0.983299L5.6943 1.644ZM1.0983 1.644H-0.901703V3.644H1.0983V1.644ZM1.0983 0.599999V-1.4H-0.901703V0.599999H1.0983ZM6.6423 0.599999H8.6423V-1.4H6.6423V0.599999ZM6.6423 1.416L8.19508 2.6765L8.6423 2.12558V1.416H6.6423ZM4.1583 4.476L3.13417 6.19389L4.6205 7.07997L5.71108 5.7365L4.1583 4.476ZM3.5343 4.104V2.104H-3.7263L2.51017 5.82189L3.5343 4.104ZM6.2103 4.788L4.86847 6.27107L4.87428 6.27632L4.88012 6.28153L6.2103 4.788ZM6.6303 7.824L8.35145 8.84264L8.35145 8.84264L6.6303 7.824ZM5.5743 8.76L6.4438 10.5611L6.45018 10.558L6.45654 10.5549L5.5743 8.76ZM3.7983 7.096C3.41745 7.096 3.05223 7.03744 2.6946 6.91994L1.44599 10.7201C2.20836 10.9706 2.99515 11.096 3.7983 11.096V7.096ZM2.70275 6.92263C2.3479 6.80435 2.14914 6.67524 2.04091 6.57931L-0.612318 9.57269C-0.0165457 10.1008 0.688696 10.4677 1.43784 10.7174L2.70275 6.92263ZM2.44265 9.08238L2.99465 8.13438L-0.462054 6.12162L-1.01405 7.06962L2.44265 9.08238ZM-0.105729 8.58318C0.408435 9.06796 1.01787 9.40934 1.65605 9.64866L3.06054 5.90334C2.80272 5.80666 2.68416 5.71604 2.63832 5.67282L-0.105729 8.58318ZM1.65605 9.64866C2.34392 9.90661 3.06339 10.028 3.7983 10.028V6.028C3.5092 6.028 3.26867 5.98139 3.06054 5.90334L1.65605 9.64866ZM3.7983 10.028C4.6754 10.028 5.65061 9.84587 6.46793 9.21862L4.03266 6.04538C4.0964 5.99647 4.13339 5.9912 4.10306 5.99947C4.06828 6.00896 3.97381 6.028 3.7983 6.028V10.028ZM6.47319 9.21457C7.32952 8.55287 7.7783 7.59722 7.7783 6.54H3.7783C3.7783 6.50525 3.78658 6.40673 3.84573 6.2844C3.90564 6.16049 3.98326 6.08354 4.0274 6.04943L6.47319 9.21457ZM7.7783 6.54C7.7783 5.50752 7.34498 4.56747 6.50994 3.91136L4.03865 7.05664C3.98819 7.01699 3.90817 6.93492 3.84733 6.80746C3.78737 6.68182 3.7783 6.57972 3.7783 6.54H7.7783ZM6.55097 3.94448C5.68883 3.22954 4.59404 3.076 3.7023 3.076V7.076C3.94481 7.076 4.07865 7.09979 4.13286 7.11386C4.18516 7.12744 4.11197 7.11834 3.99763 7.02352L6.55097 3.94448ZM3.7023 3.076H3.0303V7.076H3.7023V3.076ZM5.0303 5.076V4.236H1.0303V5.076H5.0303ZM4.58253 5.49718L7.07853 2.42518L3.97407 -0.0971858L1.47807 2.97481L4.58253 5.49718ZM3.63858 1.8247L3.80658 2.3047L7.58201 0.983299L7.41401 0.503299L3.63858 1.8247ZM5.6943 -0.356H1.0983V3.644H5.6943V-0.356ZM3.0983 1.644V0.599999H-0.901703V1.644H3.0983ZM1.0983 2.6H6.6423V-1.4H1.0983V2.6ZM4.6423 0.599999V1.416H8.6423V0.599999H4.6423ZM5.08951 0.155502L2.60551 3.2155L5.71108 5.7365L8.19508 2.6765L5.08951 0.155502ZM5.18243 2.75811L4.55843 2.38611L2.51017 5.82189L3.13417 6.19389L5.18243 2.75811ZM3.5343 6.104H3.9303V2.104H3.5343V6.104ZM3.9303 6.104C4.29528 6.104 4.53777 6.1457 4.6876 6.19065C4.76024 6.21244 4.80617 6.2335 4.83245 6.24772C4.85792 6.26151 4.86755 6.27024 4.86847 6.27107L7.55212 3.30493C6.53494 2.38462 5.2029 2.104 3.9303 2.104V6.104ZM4.88012 6.28153C4.94012 6.33496 4.9533 6.36513 4.9566 6.37259C4.96047 6.38137 4.9783 6.42325 4.9783 6.528H8.9783C8.9783 5.27085 8.49143 4.14142 7.54047 3.29447L4.88012 6.28153ZM4.9783 6.528C4.9783 6.65518 4.95181 6.73327 4.90914 6.80536L8.35145 8.84264C8.77278 8.13073 8.9783 7.34482 8.9783 6.528H4.9783ZM4.90914 6.80536C4.90455 6.81312 4.8702 6.87754 4.69206 6.9651L6.45654 10.5549C7.22239 10.1785 7.89205 9.61888 8.35145 8.84264L4.90914 6.80536ZM4.7048 6.9589C4.59758 7.01066 4.32943 7.096 3.7983 7.096V11.096C4.70717 11.096 5.62302 10.9573 6.4438 10.5611L4.7048 6.9589ZM7.90689 9H5.90689V11H7.90689V9ZM7.90689 8.184L6.51815 6.74476L5.90689 7.33458V8.184H7.90689ZM11.3269 4.884L9.9514 3.43209L9.94475 3.4384L9.93815 3.44476L11.3269 4.884ZM11.9989 4.128L10.3439 3.005L10.3393 3.01178L10.3348 3.0186L11.9989 4.128ZM12.2989 3.516L10.3789 2.956L10.3709 2.98347L10.3637 3.01116L12.2989 3.516ZM11.9269 1.944L10.6626 3.49373L10.6626 3.49373L11.9269 1.944ZM9.38289 1.8L10.1257 3.65695L10.1433 3.64989L10.1608 3.6425L9.38289 1.8ZM8.44689 2.484L7.13618 3.99464L8.66567 5.3217L9.97366 3.77588L8.44689 2.484ZM7.63089 1.776L6.05718 0.541719L4.88259 2.03932L6.32018 3.28664L7.63089 1.776ZM8.91489 0.84L9.66244 2.69504L9.66943 2.69222L9.67639 2.68936L8.91489 0.84ZM12.2269 0.792L11.4146 2.61962L11.4288 2.62595L11.4432 2.63205L12.2269 0.792ZM13.2229 1.596L11.553 2.69663L11.5616 2.70972L11.5704 2.72267L13.2229 1.596ZM13.4749 3.648L15.4044 4.17424L15.4044 4.17423L13.4749 3.648ZM13.0669 4.488L11.4097 3.36828L11.4097 3.36829L13.0669 4.488ZM12.2029 5.484L13.5914 6.92349L13.5966 6.91843L13.6018 6.91334L12.2029 5.484ZM9.15489 8.424L7.45157 9.47219L8.75432 11.5892L10.5434 9.86349L9.15489 8.424ZM8.86689 7.956V5.956H5.28776L7.16357 9.00419L8.86689 7.956ZM13.9429 7.956H15.9429V5.956H13.9429V7.956ZM13.9429 9V11H15.9429V9H13.9429ZM9.90689 9V8.184H5.90689V9H9.90689ZM9.29563 9.62324L12.7156 6.32324L9.93815 3.44476L6.51815 6.74476L9.29563 9.62324ZM12.7024 6.33591C13.0576 5.9994 13.4012 5.6301 13.663 5.2374L10.3348 3.0186C10.3086 3.0579 10.2042 3.1926 9.9514 3.43209L12.7024 6.33591ZM13.6538 5.251C13.8841 4.91166 14.1098 4.49723 14.2341 4.02084L10.3637 3.01116C10.3716 2.98061 10.3793 2.95839 10.3845 2.94496C10.3896 2.93152 10.3927 2.92535 10.392 2.92669C10.3914 2.92799 10.3877 2.93538 10.3797 2.94901C10.3717 2.96259 10.3601 2.98123 10.3439 3.005L13.6538 5.251ZM14.2189 4.076C14.3209 3.7264 14.3829 3.35329 14.3829 2.964H10.3829C10.3829 2.92671 10.3889 2.9216 10.3789 2.956L14.2189 4.076ZM14.3829 2.964C14.3829 2.00018 14.0117 1.0637 13.1911 0.394269L10.6626 3.49373C10.5861 3.43125 10.5013 3.33148 10.443 3.20126C10.3873 3.07658 10.3829 2.98464 10.3829 2.964H14.3829ZM13.1911 0.394271C12.3922 -0.257525 11.4228 -0.428 10.5949 -0.428V3.572C10.6708 3.572 10.7274 3.57607 10.7671 3.58086C10.8069 3.58565 10.8258 3.5907 10.8279 3.59129C10.8303 3.59197 10.7583 3.57174 10.6626 3.49373L13.1911 0.394271ZM10.5949 -0.428C9.91852 -0.428 9.24457 -0.312564 8.60495 -0.0424995L10.1608 3.6425C10.2412 3.60856 10.3753 3.572 10.5949 3.572V-0.428ZM8.64011 -0.0569536C7.96001 0.215087 7.38354 0.644439 6.92012 1.19211L9.97366 3.77588C10.0382 3.69956 10.0858 3.67291 10.1257 3.65695L8.64011 -0.0569536ZM9.7576 0.973355L8.9416 0.265355L6.32018 3.28664L7.13618 3.99464L9.7576 0.973355ZM9.2046 3.01028C9.28435 2.90859 9.41338 2.79541 9.66244 2.69504L8.16734 -1.01504C7.3444 -0.683407 6.61743 -0.172595 6.05718 0.541719L9.2046 3.01028ZM9.67639 2.68936C9.95541 2.57447 10.2895 2.504 10.7029 2.504V-1.496C9.82024 -1.496 8.96238 -1.34247 8.15339 -1.00936L9.67639 2.68936ZM10.7029 2.504C11.0711 2.504 11.291 2.5647 11.4146 2.61962L13.0392 -1.03562C12.2987 -1.3647 11.5026 -1.496 10.7029 -1.496V2.504ZM11.4432 2.63205C11.5062 2.6589 11.5349 2.68018 11.5437 2.68723C11.5511 2.69321 11.5519 2.69503 11.553 2.69663L14.8928 0.495373C14.4203 -0.221539 13.7616 -0.728197 13.0106 -1.04805L11.4432 2.63205ZM11.5704 2.72267C11.5706 2.72285 11.57 2.72199 11.5695 2.72087C11.569 2.71978 11.5698 2.72115 11.5712 2.72632C11.574 2.73578 11.5829 2.77142 11.5829 2.844H15.5829C15.5829 2.01484 15.3698 1.19452 14.8753 0.469326L11.5704 2.72267ZM11.5829 2.844C11.5829 2.93715 11.5709 3.02822 11.5454 3.12177L15.4044 4.17423C15.5229 3.73978 15.5829 3.29485 15.5829 2.844H11.5829ZM11.5454 3.12176C11.5456 3.12098 11.5224 3.20151 11.4097 3.36828L14.7241 5.60771C15.0114 5.18249 15.2602 4.70302 15.4044 4.17424L11.5454 3.12176ZM11.4097 3.36829C11.3114 3.51374 11.1243 3.74113 10.804 4.05466L13.6018 6.91334C14.0335 6.49087 14.4224 6.05426 14.7241 5.60771L11.4097 3.36829ZM10.8144 4.04451L7.76641 6.98451L10.5434 9.86349L13.5914 6.92349L10.8144 4.04451ZM10.8582 7.37581L10.5702 6.90781L7.16357 9.00419L7.45157 9.47219L10.8582 7.37581ZM8.86689 9.956H13.9429V5.956H8.86689V9.956ZM11.9429 7.956V9H15.9429V7.956H11.9429ZM13.9429 7H7.90689V11H13.9429V7ZM16.5858 8.592L15.4885 10.2641L15.4944 10.268L15.5004 10.2718L16.5858 8.592ZM15.3618 7.128L13.5465 7.96755L13.5508 7.97686L13.5552 7.98611L15.3618 7.128ZM15.3618 2.472L13.5552 1.61389L13.5508 1.62314L13.5465 1.63244L15.3618 2.472ZM16.5858 1.008L15.5004 -0.671833L15.4944 -0.667986L15.4885 -0.664096L16.5858 1.008ZM21.3258 2.472L23.1411 1.63244L23.1411 1.63244L21.3258 2.472ZM21.3258 7.128L23.1411 7.96755L23.1411 7.96755L21.3258 7.128ZM20.1018 8.592L21.1872 10.2718L20.1018 8.592ZM19.5018 7.668L18.3393 6.04053L18.33 6.04718L18.3208 6.05394L19.5018 7.668ZM20.2818 6.588L18.4248 5.84522L18.4195 5.85863L18.4143 5.87213L20.2818 6.588ZM20.2818 3.012L18.4143 3.72787L18.4195 3.74136L18.4248 3.75478L20.2818 3.012ZM19.5018 1.932L18.3208 3.54606L18.33 3.55282L18.3393 3.55947L19.5018 1.932ZM17.1858 1.932L16.0233 0.304532L16.0233 0.304533L17.1858 1.932ZM16.3938 3.012L14.5368 2.26922L14.5315 2.28264L14.5263 2.29613L16.3938 3.012ZM16.3938 6.588L14.5263 7.30387L14.5315 7.31736L14.5368 7.33078L16.3938 6.588ZM17.1858 7.668L18.3483 6.04053L18.3483 6.04053L17.1858 7.668ZM18.3498 7.096C18.0548 7.096 17.8481 7.02648 17.6712 6.91217L15.5004 10.2718C16.3634 10.8295 17.3328 11.096 18.3498 11.096V7.096ZM17.6831 6.9199C17.5232 6.81495 17.3401 6.63155 17.1684 6.26989L13.5552 7.98611C13.9915 8.90445 14.6244 9.69705 15.4885 10.2641L17.6831 6.9199ZM17.1771 6.28845C17.0329 5.97687 16.9178 5.50381 16.9178 4.8H12.9178C12.9178 5.92019 13.0986 6.99913 13.5465 7.96755L17.1771 6.28845ZM16.9178 4.8C16.9178 4.09619 17.0329 3.62313 17.1771 3.31155L13.5465 1.63244C13.0986 2.60087 12.9178 3.67981 12.9178 4.8H16.9178ZM17.1684 3.33011C17.3401 2.96845 17.5232 2.78505 17.6831 2.6801L15.4885 -0.664096C14.6244 -0.097054 13.9915 0.695546 13.5552 1.61389L17.1684 3.33011ZM17.6712 2.68783C17.8481 2.57352 18.0548 2.504 18.3498 2.504V-1.496C17.3328 -1.496 16.3634 -1.22952 15.5004 -0.671833L17.6712 2.68783ZM18.3498 2.504C18.6316 2.504 18.8353 2.57086 19.0164 2.68783L21.1872 -0.671833C20.3283 -1.22686 19.364 -1.496 18.3498 -1.496V2.504ZM19.0164 2.68783C19.176 2.79101 19.3508 2.96611 19.5105 3.31155L23.1411 1.63244C22.7088 0.697892 22.0676 -0.103007 21.1872 -0.671833L19.0164 2.68783ZM19.5105 3.31155C19.6546 3.62313 19.7698 4.09619 19.7698 4.8H23.7698C23.7698 3.67981 23.5889 2.60087 23.1411 1.63244L19.5105 3.31155ZM19.7698 4.8C19.7698 5.50381 19.6546 5.97687 19.5105 6.28845L23.1411 7.96755C23.5889 6.99913 23.7698 5.92019 23.7698 4.8H19.7698ZM19.5105 6.28844C19.3508 6.63389 19.176 6.80899 19.0164 6.91217L21.1872 10.2718C22.0676 9.70301 22.7088 8.90211 23.1411 7.96755L19.5105 6.28844ZM19.0164 6.91217C18.8353 7.02914 18.6316 7.096 18.3498 7.096V11.096C19.364 11.096 20.3283 10.8269 21.1872 10.2718L19.0164 6.91217ZM18.3498 10.028C19.1774 10.028 19.9833 9.79387 20.6828 9.28206L18.3208 6.05394C18.3252 6.05073 18.3327 6.04582 18.3429 6.04067C18.3531 6.03552 18.3629 6.03164 18.3712 6.02904C18.3795 6.02648 18.3832 6.02606 18.3811 6.02638C18.3787 6.02672 18.3688 6.028 18.3498 6.028V10.028ZM20.6643 9.29547C21.3899 8.77715 21.8593 8.06036 22.1493 7.30387L18.4143 5.87213C18.3748 5.97521 18.3416 6.02744 18.3274 6.04702C18.315 6.06425 18.3177 6.05596 18.3393 6.04053L20.6643 9.29547ZM22.1388 7.33078C22.4536 6.54363 22.5698 5.6769 22.5698 4.8H18.5698C18.5698 5.34709 18.494 5.67237 18.4248 5.84522L22.1388 7.33078ZM22.5698 4.8C22.5698 3.92309 22.4536 3.05637 22.1388 2.26922L18.4248 3.75478C18.494 3.92763 18.5698 4.2529 18.5698 4.8H22.5698ZM22.1493 2.29613C21.8593 1.53964 21.3899 0.822855 20.6643 0.304533L18.3393 3.55947C18.3177 3.54404 18.315 3.53575 18.3274 3.55298C18.3416 3.57256 18.3748 3.62479 18.4143 3.72787L22.1493 2.29613ZM20.6828 0.317939C19.9833 -0.193874 19.1774 -0.428 18.3498 -0.428V3.572C18.3688 3.572 18.3787 3.57328 18.3811 3.57362C18.3832 3.57394 18.3795 3.57352 18.3712 3.57096C18.3629 3.56836 18.3531 3.56448 18.3429 3.55933C18.3327 3.55418 18.3252 3.54927 18.3208 3.54606L20.6828 0.317939ZM18.3498 -0.428C17.5219 -0.428 16.7213 -0.194056 16.0233 0.304532L18.3483 3.55947C18.3479 3.55973 18.3444 3.56217 18.338 3.56533C18.3316 3.56851 18.3252 3.57102 18.3197 3.5727C18.3144 3.57436 18.3128 3.57434 18.3164 3.57382C18.3202 3.57328 18.3309 3.572 18.3498 3.572V-0.428ZM16.0233 0.304533C15.306 0.816897 14.8352 1.52325 14.5368 2.26922L18.2508 3.75478C18.2938 3.6471 18.3304 3.58955 18.3486 3.56473C18.3652 3.54206 18.3665 3.54644 18.3483 3.55947L16.0233 0.304533ZM14.5263 2.29613C14.2281 3.07417 14.1178 3.93082 14.1178 4.8H18.1178C18.1178 4.24518 18.1915 3.90983 18.2613 3.72787L14.5263 2.29613ZM14.1178 4.8C14.1178 5.66918 14.2281 6.52583 14.5263 7.30387L18.2613 5.87213C18.1915 5.69017 18.1178 5.35482 18.1178 4.8H14.1178ZM14.5368 7.33078C14.8352 8.07675 15.306 8.7831 16.0233 9.29547L18.3483 6.04053C18.3665 6.05356 18.3652 6.05794 18.3486 6.03527C18.3304 6.01045 18.2938 5.9529 18.2508 5.84522L14.5368 7.33078ZM16.0233 9.29547C16.7213 9.79406 17.5219 10.028 18.3498 10.028V6.028C18.3309 6.028 18.3202 6.02672 18.3164 6.02618C18.3128 6.02566 18.3144 6.02564 18.3197 6.0273C18.3252 6.02898 18.3316 6.03149 18.338 6.03467C18.3444 6.03783 18.3479 6.04027 18.3483 6.04053L16.0233 9.29547Z" fill="#9CBE8F"/>
</svg>
