<svg width="57" height="26" viewBox="0 0 57 26" fill="none" xmlns="http://www.w3.org/2000/svg">
<circle cx="12.7" cy="12.7" r="12.2" fill="white" stroke="#DA387D"/>
<path d="M10.04 18V8.565L11.315 9.795H8.09V7.5H13.01V18H10.04Z" fill="#F37C98"/>
<path d="M31.98 18V8.2H36.46C37.356 8.2 38.126 8.34467 38.77 8.634C39.4233 8.92333 39.9273 9.34333 40.282 9.894C40.6367 10.4353 40.814 11.0793 40.814 11.826C40.814 12.5633 40.6367 13.2027 40.282 13.744C39.9273 14.2853 39.4233 14.7053 38.77 15.004C38.126 15.2933 37.356 15.438 36.46 15.438H33.52L34.752 14.234V18H31.98ZM34.752 14.528L33.52 13.254H36.292C36.8707 13.254 37.3 13.128 37.58 12.876C37.8693 12.624 38.014 12.274 38.014 11.826C38.014 11.3687 37.8693 11.014 37.58 10.762C37.3 10.51 36.8707 10.384 36.292 10.384H33.52L34.752 9.11V14.528ZM47.1883 18.196C46.4136 18.196 45.6949 18.0747 45.0323 17.832C44.3789 17.58 43.8096 17.2253 43.3243 16.768C42.8483 16.3107 42.4749 15.774 42.2043 15.158C41.9336 14.5327 41.7983 13.8467 41.7983 13.1C41.7983 12.3533 41.9336 11.672 42.2043 11.056C42.4749 10.4307 42.8483 9.88933 43.3243 9.432C43.8096 8.97467 44.3789 8.62467 45.0323 8.382C45.6949 8.13 46.4136 8.004 47.1883 8.004C48.0936 8.004 48.9009 8.16267 49.6103 8.48C50.3289 8.79733 50.9263 9.25467 51.4023 9.852L49.6383 11.448C49.3209 11.0747 48.9709 10.79 48.5883 10.594C48.2149 10.398 47.7949 10.3 47.3283 10.3C46.9269 10.3 46.5583 10.3653 46.2223 10.496C45.8863 10.6267 45.5969 10.818 45.3543 11.07C45.1209 11.3127 44.9343 11.6067 44.7943 11.952C44.6636 12.2973 44.5983 12.68 44.5983 13.1C44.5983 13.52 44.6636 13.9027 44.7943 14.248C44.9343 14.5933 45.1209 14.892 45.3543 15.144C45.5969 15.3867 45.8863 15.5733 46.2223 15.704C46.5583 15.8347 46.9269 15.9 47.3283 15.9C47.7949 15.9 48.2149 15.802 48.5883 15.606C48.9709 15.41 49.3209 15.1253 49.6383 14.752L51.4023 16.348C50.9263 16.936 50.3289 17.3933 49.6103 17.72C48.9009 18.0373 48.0936 18.196 47.1883 18.196Z" fill="black"/>
</svg>
