<svg width="94" height="13" viewBox="0 0 94 13" fill="none" xmlns="http://www.w3.org/2000/svg">
<path d="M2.064 12L6.288 2.144L7.296 3.728H1.984L3.456 2.016V5.36H0.336V0.799999H9.92V3.12L6.192 12H2.064ZM15.0485 0.544C16.1152 0.544 17.0485 0.752 17.8485 1.168C18.6592 1.57333 19.2885 2.18133 19.7365 2.992C20.1952 3.80267 20.4245 4.82133 20.4245 6.048C20.4245 7.36 20.1632 8.48 19.6405 9.408C19.1178 10.3253 18.3925 11.0293 17.4645 11.52C16.5365 12.0107 15.4538 12.256 14.2165 12.256C13.5552 12.256 12.9152 12.176 12.2965 12.016C11.6885 11.8667 11.1712 11.6533 10.7445 11.376L12.1045 8.736C12.4352 8.97067 12.7658 9.13067 13.0965 9.216C13.4378 9.29067 13.7845 9.328 14.1365 9.328C14.8938 9.328 15.4965 9.104 15.9445 8.656C16.4032 8.19733 16.6325 7.536 16.6325 6.672C16.6325 6.512 16.6325 6.35733 16.6325 6.208C16.6325 6.048 16.6325 5.888 16.6325 5.728L17.4965 6.352C17.2938 6.71467 17.0432 7.024 16.7445 7.28C16.4565 7.52533 16.1152 7.71733 15.7205 7.856C15.3258 7.984 14.8672 8.048 14.3445 8.048C13.6618 8.048 13.0272 7.904 12.4405 7.616C11.8645 7.31733 11.3952 6.90133 11.0325 6.368C10.6805 5.824 10.5045 5.18933 10.5045 4.464C10.5045 3.664 10.7072 2.97067 11.1125 2.384C11.5178 1.79733 12.0618 1.344 12.7445 1.024C13.4378 0.704 14.2058 0.544 15.0485 0.544ZM15.3045 3.152C15.0805 3.152 14.8832 3.2 14.7125 3.296C14.5418 3.38133 14.4032 3.50933 14.2965 3.68C14.2005 3.85067 14.1525 4.05333 14.1525 4.288C14.1525 4.64 14.2592 4.92267 14.4725 5.136C14.6965 5.33867 14.9738 5.44 15.3045 5.44C15.5285 5.44 15.7258 5.392 15.8965 5.296C16.0778 5.2 16.2165 5.06667 16.3125 4.896C16.4085 4.72533 16.4565 4.52267 16.4565 4.288C16.4565 4.05333 16.4085 3.85067 16.3125 3.68C16.2165 3.50933 16.0778 3.38133 15.8965 3.296C15.7258 3.2 15.5285 3.152 15.3045 3.152ZM26.4266 12.256C25.4346 12.256 24.5546 12.0267 23.7866 11.568C23.0293 11.1093 22.432 10.4427 21.9946 9.568C21.568 8.69333 21.3546 7.63733 21.3546 6.4C21.3546 5.16267 21.568 4.10667 21.9946 3.232C22.432 2.35733 23.0293 1.69067 23.7866 1.232C24.5546 0.773333 25.4346 0.544 26.4266 0.544C27.4186 0.544 28.2933 0.773333 29.0506 1.232C29.8186 1.69067 30.416 2.35733 30.8426 3.232C31.28 4.10667 31.4986 5.16267 31.4986 6.4C31.4986 7.63733 31.28 8.69333 30.8426 9.568C30.416 10.4427 29.8186 11.1093 29.0506 11.568C28.2933 12.0267 27.4186 12.256 26.4266 12.256ZM26.4266 9.232C26.672 9.232 26.8906 9.14667 27.0826 8.976C27.2746 8.80533 27.424 8.512 27.5306 8.096C27.648 7.68 27.7066 7.11467 27.7066 6.4C27.7066 5.67467 27.648 5.10933 27.5306 4.704C27.424 4.288 27.2746 3.99467 27.0826 3.824C26.8906 3.65333 26.672 3.568 26.4266 3.568C26.1813 3.568 25.9626 3.65333 25.7706 3.824C25.5786 3.99467 25.424 4.288 25.3066 4.704C25.2 5.10933 25.1466 5.67467 25.1466 6.4C25.1466 7.11467 25.2 7.68 25.3066 8.096C25.424 8.512 25.5786 8.80533 25.7706 8.976C25.9626 9.14667 26.1813 9.232 26.4266 9.232ZM40.1096 12V3.728H36.8296V0.799999H47.1656V3.728H43.8856V12H40.1096ZM51.6024 4.96H56.5944V7.68H51.6024V4.96ZM51.8584 9.152H57.4584V12H48.1464V0.799999H57.2504V3.648H51.8584V9.152ZM58.912 12V0.799999H62.016L67.712 7.616H66.272V0.799999H69.952V12H66.848L61.152 5.184H62.592V12H58.912ZM77.5794 12.256C76.6727 12.256 75.8354 12.1173 75.0674 11.84C74.31 11.552 73.6487 11.1467 73.0834 10.624C72.5287 10.1013 72.0967 9.48267 71.7874 8.768C71.478 8.05333 71.3234 7.264 71.3234 6.4C71.3234 5.536 71.478 4.74667 71.7874 4.032C72.0967 3.31733 72.534 2.69867 73.0994 2.176C73.6647 1.65333 74.3314 1.25333 75.0994 0.976C75.878 0.688 76.7314 0.544 77.6594 0.544C78.7687 0.544 79.7554 0.730666 80.6194 1.104C81.494 1.47733 82.214 2.01067 82.7794 2.704L80.3634 4.832C80.0114 4.42667 79.6274 4.12267 79.2114 3.92C78.806 3.70667 78.3527 3.6 77.8514 3.6C77.4354 3.6 77.0567 3.664 76.7154 3.792C76.3847 3.92 76.102 4.10667 75.8674 4.352C75.6327 4.59733 75.4514 4.89067 75.3234 5.232C75.1954 5.57333 75.1314 5.96267 75.1314 6.4C75.1314 6.816 75.1954 7.2 75.3234 7.552C75.4514 7.89333 75.6327 8.18667 75.8674 8.432C76.102 8.67733 76.3794 8.86933 76.6994 9.008C77.03 9.136 77.398 9.2 77.8034 9.2C78.23 9.2 78.646 9.13067 79.0514 8.992C79.4567 8.84267 79.8887 8.592 80.3474 8.24L82.4594 10.832C81.7767 11.2907 80.998 11.6427 80.1234 11.888C79.2487 12.1333 78.4007 12.256 77.5794 12.256ZM79.1794 10.352V6.096H82.4594V10.832L79.1794 10.352ZM87.5243 4.96H92.5163V7.68H87.5243V4.96ZM87.7803 9.152H93.3803V12H84.0683V0.799999H93.1723V3.648H87.7803V9.152Z" fill="url(#paint0_linear_45_202)"/>
<defs>
<linearGradient id="paint0_linear_45_202" x1="59" y1="-4" x2="59" y2="27.5" gradientUnits="userSpaceOnUse">
<stop stop-color="#E82652"/>
<stop offset="1" stop-color="#E82652" stop-opacity="0"/>
</linearGradient>
</defs>
</svg>
