<svg width="88" height="16" viewBox="0 0 88 16" fill="none" xmlns="http://www.w3.org/2000/svg">
<path d="M0.368 10.08V7.68L5.12 0.799999H8.992L4.416 7.68L2.656 7.152H11.328V10.08H0.368ZM6.176 12V10.08L6.288 7.152V5.44H9.84V12H6.176ZM15.8866 12.256C15.1186 12.256 14.34 12.1707 13.5506 12C12.7613 11.8293 12.068 11.5787 11.4706 11.248L12.7506 8.464C13.2306 8.74133 13.732 8.94933 14.2546 9.088C14.7773 9.216 15.2733 9.28 15.7426 9.28C16.1693 9.28 16.5213 9.20533 16.7986 9.056C17.076 8.90667 17.2146 8.688 17.2146 8.4C17.2146 8.24 17.1666 8.10133 17.0706 7.984C16.9746 7.856 16.804 7.76 16.5586 7.696C16.324 7.632 15.9773 7.6 15.5186 7.6H12.2706L12.8306 0.799999H20.2706V3.648H14.1586L16.0626 2.032L15.7266 6.368L13.8226 4.752H16.4306C17.54 4.752 18.4253 4.912 19.0866 5.232C19.7586 5.552 20.244 5.984 20.5426 6.528C20.852 7.06133 21.0066 7.65867 21.0066 8.32C21.0066 8.98133 20.8253 9.616 20.4626 10.224C20.1106 10.8213 19.556 11.312 18.7986 11.696C18.052 12.0693 17.0813 12.256 15.8866 12.256ZM26.8329 12.256C25.8409 12.256 24.9609 12.0267 24.1929 11.568C23.4355 11.1093 22.8382 10.4427 22.4009 9.568C21.9742 8.69333 21.7609 7.63733 21.7609 6.4C21.7609 5.16267 21.9742 4.10667 22.4009 3.232C22.8382 2.35733 23.4355 1.69067 24.1929 1.232C24.9609 0.773333 25.8409 0.544 26.8329 0.544C27.8249 0.544 28.6995 0.773333 29.4569 1.232C30.2249 1.69067 30.8222 2.35733 31.2489 3.232C31.6862 4.10667 31.9049 5.16267 31.9049 6.4C31.9049 7.63733 31.6862 8.69333 31.2489 9.568C30.8222 10.4427 30.2249 11.1093 29.4569 11.568C28.6995 12.0267 27.8249 12.256 26.8329 12.256ZM26.8329 9.232C27.0782 9.232 27.2969 9.14667 27.4889 8.976C27.6809 8.80533 27.8302 8.512 27.9369 8.096C28.0542 7.68 28.1129 7.11467 28.1129 6.4C28.1129 5.67467 28.0542 5.10933 27.9369 4.704C27.8302 4.288 27.6809 3.99467 27.4889 3.824C27.2969 3.65333 27.0782 3.568 26.8329 3.568C26.5875 3.568 26.3689 3.65333 26.1769 3.824C25.9849 3.99467 25.8302 4.288 25.7129 4.704C25.6062 5.10933 25.5529 5.67467 25.5529 6.4C25.5529 7.11467 25.6062 7.68 25.7129 8.096C25.8302 8.512 25.9849 8.80533 26.1769 8.976C26.3689 9.14667 26.5875 9.232 26.8329 9.232ZM42.1959 12.16C40.9905 12.16 40.0519 11.872 39.3799 11.296C38.7079 10.7093 38.3719 9.81333 38.3719 8.608V1.28H41.9879V8.576C41.9879 8.84267 42.0572 9.05067 42.1959 9.2C42.3452 9.34933 42.5265 9.424 42.7399 9.424C43.0492 9.424 43.3212 9.344 43.5559 9.184L44.4199 11.696C44.1425 11.856 43.8065 11.9733 43.4119 12.048C43.0279 12.1227 42.6225 12.16 42.1959 12.16ZM37.1719 6.368V3.728H43.7799V6.368H37.1719ZM49.9289 12.16C48.8622 12.16 47.9289 11.9627 47.1289 11.568C46.3395 11.1733 45.7262 10.6347 45.2889 9.952C44.8515 9.25867 44.6329 8.48 44.6329 7.616C44.6329 6.73067 44.8462 5.94667 45.2729 5.264C45.7102 4.58133 46.3022 4.048 47.0489 3.664C47.8062 3.28 48.6542 3.088 49.5929 3.088C50.4569 3.088 51.2515 3.25867 51.9769 3.6C52.7129 3.94133 53.2995 4.448 53.7369 5.12C54.1849 5.792 54.4089 6.624 54.4089 7.616C54.4089 7.744 54.4035 7.888 54.3929 8.048C54.3822 8.19733 54.3715 8.336 54.3609 8.464H47.6249V6.72H52.4409L51.0809 7.184C51.0809 6.84267 51.0169 6.55467 50.8889 6.32C50.7715 6.07467 50.6062 5.888 50.3929 5.76C50.1795 5.62133 49.9235 5.552 49.6249 5.552C49.3262 5.552 49.0649 5.62133 48.8409 5.76C48.6275 5.888 48.4622 6.07467 48.3449 6.32C48.2275 6.55467 48.1689 6.84267 48.1689 7.184V7.728C48.1689 8.10133 48.2435 8.42133 48.3929 8.688C48.5422 8.95467 48.7555 9.15733 49.0329 9.296C49.3102 9.424 49.6462 9.488 50.0409 9.488C50.4462 9.488 50.7769 9.43467 51.0329 9.328C51.2995 9.22133 51.5769 9.06133 51.8649 8.848L53.7529 10.752C53.3262 11.2107 52.7982 11.5627 52.1689 11.808C51.5502 12.0427 50.8035 12.16 49.9289 12.16ZM61.63 3.088C62.302 3.088 62.91 3.22667 63.454 3.504C63.998 3.77067 64.4247 4.192 64.734 4.768C65.054 5.344 65.214 6.09067 65.214 7.008V12H61.598V7.632C61.598 7.088 61.502 6.704 61.31 6.48C61.118 6.24533 60.8567 6.128 60.526 6.128C60.2807 6.128 60.0513 6.18667 59.838 6.304C59.6353 6.41067 59.47 6.592 59.342 6.848C59.2247 7.104 59.166 7.45067 59.166 7.888V12H55.55V3.248H58.99V5.808L58.302 5.072C58.6433 4.41067 59.102 3.91467 59.678 3.584C60.2647 3.25333 60.9153 3.088 61.63 3.088ZM71.3886 15.264C70.5246 15.264 69.714 15.1733 68.9566 14.992C68.1993 14.8107 67.5486 14.5387 67.0046 14.176L68.2206 11.712C68.562 11.9787 68.994 12.1867 69.5166 12.336C70.05 12.496 70.5513 12.576 71.0206 12.576C71.7673 12.576 72.3006 12.416 72.6206 12.096C72.9406 11.7867 73.1006 11.3387 73.1006 10.752V10.016L73.2606 7.296L73.2766 4.576V3.248H76.7166V10.256C76.7166 11.952 76.2473 13.2107 75.3086 14.032C74.37 14.8533 73.0633 15.264 71.3886 15.264ZM70.6846 11.52C69.9486 11.52 69.2606 11.3493 68.6206 11.008C67.9806 10.656 67.4633 10.1653 67.0686 9.536C66.674 8.90667 66.4766 8.16 66.4766 7.296C66.4766 6.432 66.674 5.68533 67.0686 5.056C67.4633 4.42667 67.9806 3.94133 68.6206 3.6C69.2606 3.25867 69.9486 3.088 70.6846 3.088C71.442 3.088 72.0606 3.23733 72.5406 3.536C73.0313 3.83467 73.394 4.29867 73.6286 4.928C73.8633 5.54667 73.9806 6.336 73.9806 7.296C73.9806 8.256 73.8633 9.05067 73.6286 9.68C73.394 10.2987 73.0313 10.7627 72.5406 11.072C72.0606 11.3707 71.442 11.52 70.6846 11.52ZM71.6446 8.704C71.9326 8.704 72.1886 8.64533 72.4126 8.528C72.6366 8.41067 72.8126 8.24533 72.9406 8.032C73.0686 7.81867 73.1326 7.57333 73.1326 7.296C73.1326 7.008 73.0686 6.76267 72.9406 6.56C72.8126 6.34667 72.6366 6.18667 72.4126 6.08C72.1886 5.96267 71.9326 5.904 71.6446 5.904C71.3673 5.904 71.1113 5.96267 70.8766 6.08C70.6526 6.18667 70.4713 6.34667 70.3326 6.56C70.2046 6.76267 70.1406 7.008 70.1406 7.296C70.1406 7.57333 70.2046 7.81867 70.3326 8.032C70.4713 8.24533 70.6526 8.41067 70.8766 8.528C71.1113 8.64533 71.3673 8.704 71.6446 8.704ZM83.1476 12.16C82.081 12.16 81.1476 11.9627 80.3476 11.568C79.5583 11.1733 78.945 10.6347 78.5076 9.952C78.0703 9.25867 77.8516 8.48 77.8516 7.616C77.8516 6.73067 78.065 5.94667 78.4916 5.264C78.929 4.58133 79.521 4.048 80.2676 3.664C81.025 3.28 81.873 3.088 82.8116 3.088C83.6756 3.088 84.4703 3.25867 85.1956 3.6C85.9316 3.94133 86.5183 4.448 86.9556 5.12C87.4036 5.792 87.6276 6.624 87.6276 7.616C87.6276 7.744 87.6223 7.888 87.6116 8.048C87.601 8.19733 87.5903 8.336 87.5796 8.464H80.8436V6.72H85.6596L84.2996 7.184C84.2996 6.84267 84.2356 6.55467 84.1076 6.32C83.9903 6.07467 83.825 5.888 83.6116 5.76C83.3983 5.62133 83.1423 5.552 82.8436 5.552C82.545 5.552 82.2836 5.62133 82.0596 5.76C81.8463 5.888 81.681 6.07467 81.5636 6.32C81.4463 6.55467 81.3876 6.84267 81.3876 7.184V7.728C81.3876 8.10133 81.4623 8.42133 81.6116 8.688C81.761 8.95467 81.9743 9.15733 82.2516 9.296C82.529 9.424 82.865 9.488 83.2596 9.488C83.665 9.488 83.9956 9.43467 84.2516 9.328C84.5183 9.22133 84.7956 9.06133 85.0836 8.848L86.9716 10.752C86.545 11.2107 86.017 11.5627 85.3876 11.808C84.769 12.0427 84.0223 12.16 83.1476 12.16Z" fill="url(#paint0_linear_6_294)"/>
<defs>
<linearGradient id="paint0_linear_6_294" x1="59" y1="-4" x2="59" y2="27.5" gradientUnits="userSpaceOnUse">
<stop stop-color="#E82652"/>
<stop offset="1" stop-color="#E82652" stop-opacity="0"/>
</linearGradient>
</defs>
</svg>
