<svg width="87" height="16" viewBox="0 0 87 16" fill="none" xmlns="http://www.w3.org/2000/svg">
<path d="M5.84 12.256C4.77333 12.256 3.83467 12.0533 3.024 11.648C2.224 11.232 1.59467 10.6187 1.136 9.808C0.688 8.98667 0.464 7.968 0.464 6.752C0.464 5.44 0.725333 4.32533 1.248 3.408C1.77067 2.48 2.496 1.77067 3.424 1.28C4.36267 0.789333 5.44533 0.544 6.672 0.544C7.33333 0.544 7.968 0.624 8.576 0.783999C9.19467 0.933333 9.71733 1.14667 10.144 1.424L8.784 4.064C8.45333 3.82933 8.11733 3.67467 7.776 3.6C7.44533 3.51467 7.104 3.472 6.752 3.472C5.99467 3.472 5.38667 3.70133 4.928 4.16C4.48 4.608 4.256 5.264 4.256 6.128C4.256 6.288 4.256 6.448 4.256 6.608C4.256 6.75733 4.256 6.912 4.256 7.072L3.392 6.448C3.60533 6.08533 3.856 5.78133 4.144 5.536C4.432 5.28 4.77333 5.088 5.168 4.96C5.56267 4.82133 6.02133 4.752 6.544 4.752C7.22667 4.752 7.856 4.90133 8.432 5.2C9.01867 5.488 9.488 5.89867 9.84 6.432C10.2027 6.96533 10.384 7.6 10.384 8.336C10.384 9.136 10.1813 9.82933 9.776 10.416C9.37067 11.0027 8.82133 11.456 8.128 11.776C7.44533 12.096 6.68267 12.256 5.84 12.256ZM5.584 9.648C5.808 9.648 6.00533 9.60533 6.176 9.52C6.35733 9.424 6.496 9.29067 6.592 9.12C6.688 8.94933 6.736 8.74667 6.736 8.512C6.736 8.16 6.62933 7.88267 6.416 7.68C6.20267 7.46667 5.92533 7.36 5.584 7.36C5.36 7.36 5.16267 7.408 4.992 7.504C4.82133 7.6 4.68267 7.73333 4.576 7.904C4.48 8.07467 4.432 8.27733 4.432 8.512C4.432 8.74667 4.48 8.94933 4.576 9.12C4.68267 9.29067 4.82133 9.424 4.992 9.52C5.16267 9.60533 5.36 9.648 5.584 9.648ZM14.8981 12.256C14.1301 12.256 13.3515 12.1707 12.5621 12C11.7728 11.8293 11.0795 11.5787 10.4821 11.248L11.7621 8.464C12.2421 8.74133 12.7435 8.94933 13.2661 9.088C13.7995 9.216 14.3008 9.28 14.7701 9.28C15.1968 9.28 15.5435 9.21067 15.8101 9.072C16.0875 8.92267 16.2261 8.704 16.2261 8.416C16.2261 8.17067 16.1248 7.984 15.9221 7.856C15.7195 7.71733 15.3781 7.648 14.8981 7.648H13.4101V5.328L16.3061 2.384L16.6421 3.648H11.0581V0.799999H19.4101V3.12L16.5141 6.064L14.7061 5.04H15.6981C17.1061 5.04 18.1781 5.35467 18.9141 5.984C19.6501 6.61333 20.0181 7.424 20.0181 8.416C20.0181 9.056 19.8368 9.66933 19.4741 10.256C19.1221 10.8427 18.5675 11.3227 17.8101 11.696C17.0635 12.0693 16.0928 12.256 14.8981 12.256ZM25.9423 12.256C24.9503 12.256 24.0703 12.0267 23.3023 11.568C22.5449 11.1093 21.9476 10.4427 21.5103 9.568C21.0836 8.69333 20.8703 7.63733 20.8703 6.4C20.8703 5.16267 21.0836 4.10667 21.5103 3.232C21.9476 2.35733 22.5449 1.69067 23.3023 1.232C24.0703 0.773333 24.9503 0.544 25.9423 0.544C26.9343 0.544 27.8089 0.773333 28.5663 1.232C29.3343 1.69067 29.9316 2.35733 30.3583 3.232C30.7956 4.10667 31.0143 5.16267 31.0143 6.4C31.0143 7.63733 30.7956 8.69333 30.3583 9.568C29.9316 10.4427 29.3343 11.1093 28.5663 11.568C27.8089 12.0267 26.9343 12.256 25.9423 12.256ZM25.9423 9.232C26.1876 9.232 26.4063 9.14667 26.5983 8.976C26.7903 8.80533 26.9396 8.512 27.0463 8.096C27.1636 7.68 27.2223 7.11467 27.2223 6.4C27.2223 5.67467 27.1636 5.10933 27.0463 4.704C26.9396 4.288 26.7903 3.99467 26.5983 3.824C26.4063 3.65333 26.1876 3.568 25.9423 3.568C25.6969 3.568 25.4783 3.65333 25.2863 3.824C25.0943 3.99467 24.9396 4.288 24.8223 4.704C24.7156 5.10933 24.6623 5.67467 24.6623 6.4C24.6623 7.11467 24.7156 7.68 24.8223 8.096C24.9396 8.512 25.0943 8.80533 25.2863 8.976C25.4783 9.14667 25.6969 9.232 25.9423 9.232ZM41.3053 12.16C40.0999 12.16 39.1613 11.872 38.4893 11.296C37.8173 10.7093 37.4813 9.81333 37.4813 8.608V1.28H41.0973V8.576C41.0973 8.84267 41.1666 9.05067 41.3053 9.2C41.4546 9.34933 41.6359 9.424 41.8493 9.424C42.1586 9.424 42.4306 9.344 42.6653 9.184L43.5293 11.696C43.2519 11.856 42.9159 11.9733 42.5213 12.048C42.1373 12.1227 41.7319 12.16 41.3053 12.16ZM36.2812 6.368V3.728H42.8893V6.368H36.2812ZM49.0383 12.16C47.9716 12.16 47.0383 11.9627 46.2383 11.568C45.4489 11.1733 44.8356 10.6347 44.3983 9.952C43.9609 9.25867 43.7423 8.48 43.7423 7.616C43.7423 6.73067 43.9556 5.94667 44.3823 5.264C44.8196 4.58133 45.4116 4.048 46.1583 3.664C46.9156 3.28 47.7636 3.088 48.7023 3.088C49.5663 3.088 50.3609 3.25867 51.0863 3.6C51.8223 3.94133 52.4089 4.448 52.8463 5.12C53.2943 5.792 53.5183 6.624 53.5183 7.616C53.5183 7.744 53.5129 7.888 53.5023 8.048C53.4916 8.19733 53.4809 8.336 53.4703 8.464H46.7343V6.72H51.5503L50.1903 7.184C50.1903 6.84267 50.1263 6.55467 49.9983 6.32C49.8809 6.07467 49.7156 5.888 49.5023 5.76C49.2889 5.62133 49.0329 5.552 48.7343 5.552C48.4356 5.552 48.1743 5.62133 47.9503 5.76C47.7369 5.888 47.5716 6.07467 47.4543 6.32C47.3369 6.55467 47.2783 6.84267 47.2783 7.184V7.728C47.2783 8.10133 47.3529 8.42133 47.5023 8.688C47.6516 8.95467 47.8649 9.15733 48.1423 9.296C48.4196 9.424 48.7556 9.488 49.1503 9.488C49.5556 9.488 49.8863 9.43467 50.1423 9.328C50.4089 9.22133 50.6863 9.06133 50.9743 8.848L52.8623 10.752C52.4356 11.2107 51.9076 11.5627 51.2783 11.808C50.6596 12.0427 49.9129 12.16 49.0383 12.16ZM60.7394 3.088C61.4114 3.088 62.0194 3.22667 62.5634 3.504C63.1074 3.77067 63.534 4.192 63.8434 4.768C64.1634 5.344 64.3234 6.09067 64.3234 7.008V12H60.7074V7.632C60.7074 7.088 60.6114 6.704 60.4194 6.48C60.2274 6.24533 59.966 6.128 59.6354 6.128C59.39 6.128 59.1607 6.18667 58.9474 6.304C58.7447 6.41067 58.5794 6.592 58.4514 6.848C58.334 7.104 58.2754 7.45067 58.2754 7.888V12H54.6594V3.248H58.0994V5.808L57.4114 5.072C57.7527 4.41067 58.2114 3.91467 58.7874 3.584C59.374 3.25333 60.0247 3.088 60.7394 3.088ZM70.498 15.264C69.634 15.264 68.8233 15.1733 68.066 14.992C67.3087 14.8107 66.658 14.5387 66.114 14.176L67.33 11.712C67.6713 11.9787 68.1033 12.1867 68.626 12.336C69.1593 12.496 69.6607 12.576 70.13 12.576C70.8767 12.576 71.41 12.416 71.73 12.096C72.05 11.7867 72.21 11.3387 72.21 10.752V10.016L72.37 7.296L72.386 4.576V3.248H75.826V10.256C75.826 11.952 75.3567 13.2107 74.418 14.032C73.4793 14.8533 72.1727 15.264 70.498 15.264ZM69.794 11.52C69.058 11.52 68.37 11.3493 67.73 11.008C67.09 10.656 66.5727 10.1653 66.178 9.536C65.7833 8.90667 65.586 8.16 65.586 7.296C65.586 6.432 65.7833 5.68533 66.178 5.056C66.5727 4.42667 67.09 3.94133 67.73 3.6C68.37 3.25867 69.058 3.088 69.794 3.088C70.5513 3.088 71.17 3.23733 71.65 3.536C72.1407 3.83467 72.5033 4.29867 72.738 4.928C72.9727 5.54667 73.09 6.336 73.09 7.296C73.09 8.256 72.9727 9.05067 72.738 9.68C72.5033 10.2987 72.1407 10.7627 71.65 11.072C71.17 11.3707 70.5513 11.52 69.794 11.52ZM70.754 8.704C71.042 8.704 71.298 8.64533 71.522 8.528C71.746 8.41067 71.922 8.24533 72.05 8.032C72.178 7.81867 72.242 7.57333 72.242 7.296C72.242 7.008 72.178 6.76267 72.05 6.56C71.922 6.34667 71.746 6.18667 71.522 6.08C71.298 5.96267 71.042 5.904 70.754 5.904C70.4767 5.904 70.2207 5.96267 69.986 6.08C69.762 6.18667 69.5807 6.34667 69.442 6.56C69.314 6.76267 69.25 7.008 69.25 7.296C69.25 7.57333 69.314 7.81867 69.442 8.032C69.5807 8.24533 69.762 8.41067 69.986 8.528C70.2207 8.64533 70.4767 8.704 70.754 8.704ZM82.257 12.16C81.1903 12.16 80.257 11.9627 79.457 11.568C78.6677 11.1733 78.0543 10.6347 77.617 9.952C77.1797 9.25867 76.961 8.48 76.961 7.616C76.961 6.73067 77.1743 5.94667 77.601 5.264C78.0383 4.58133 78.6303 4.048 79.377 3.664C80.1343 3.28 80.9823 3.088 81.921 3.088C82.785 3.088 83.5797 3.25867 84.305 3.6C85.041 3.94133 85.6277 4.448 86.065 5.12C86.513 5.792 86.737 6.624 86.737 7.616C86.737 7.744 86.7317 7.888 86.721 8.048C86.7103 8.19733 86.6997 8.336 86.689 8.464H79.953V6.72H84.769L83.409 7.184C83.409 6.84267 83.345 6.55467 83.217 6.32C83.0997 6.07467 82.9343 5.888 82.721 5.76C82.5077 5.62133 82.2517 5.552 81.953 5.552C81.6543 5.552 81.393 5.62133 81.169 5.76C80.9557 5.888 80.7903 6.07467 80.673 6.32C80.5557 6.55467 80.497 6.84267 80.497 7.184V7.728C80.497 8.10133 80.5717 8.42133 80.721 8.688C80.8703 8.95467 81.0837 9.15733 81.361 9.296C81.6383 9.424 81.9743 9.488 82.369 9.488C82.7743 9.488 83.105 9.43467 83.361 9.328C83.6277 9.22133 83.905 9.06133 84.193 8.848L86.081 10.752C85.6543 11.2107 85.1263 11.5627 84.497 11.808C83.8783 12.0427 83.1317 12.16 82.257 12.16Z" fill="url(#paint0_linear_6_294)"/>
<defs>
<linearGradient id="paint0_linear_6_294" x1="59" y1="-4" x2="59" y2="27.5" gradientUnits="userSpaceOnUse">
<stop stop-color="#E82652"/>
<stop offset="1" stop-color="#E82652" stop-opacity="0"/>
</linearGradient>
</defs>
</svg>
