<svg width="83" height="16" viewBox="0 0 83 16" fill="none" xmlns="http://www.w3.org/2000/svg">
<path d="M4.496 12.256C3.728 12.256 2.94933 12.1707 2.16 12C1.37067 11.8293 0.677333 11.5787 0.08 11.248L1.36 8.464C1.84 8.74133 2.34133 8.94933 2.864 9.088C3.38667 9.216 3.88267 9.28 4.352 9.28C4.77867 9.28 5.13067 9.20533 5.408 9.056C5.68533 8.90667 5.824 8.688 5.824 8.4C5.824 8.24 5.776 8.10133 5.68 7.984C5.584 7.856 5.41333 7.76 5.168 7.696C4.93333 7.632 4.58667 7.6 4.128 7.6H0.88L1.44 0.799999H8.88V3.648H2.768L4.672 2.032L4.336 6.368L2.432 4.752H5.04C6.14933 4.752 7.03467 4.912 7.696 5.232C8.368 5.552 8.85333 5.984 9.152 6.528C9.46133 7.06133 9.616 7.65867 9.616 8.32C9.616 8.98133 9.43467 9.616 9.072 10.224C8.72 10.8213 8.16533 11.312 7.408 11.696C6.66133 12.0693 5.69067 12.256 4.496 12.256ZM11.9062 12V2.112L13.5223 3.648H9.98625V0.799999H15.6823V12H11.9062ZM22.1298 12.256C21.1378 12.256 20.2578 12.0267 19.4898 11.568C18.7324 11.1093 18.1351 10.4427 17.6978 9.568C17.2711 8.69333 17.0578 7.63733 17.0578 6.4C17.0578 5.16267 17.2711 4.10667 17.6978 3.232C18.1351 2.35733 18.7324 1.69067 19.4898 1.232C20.2578 0.773333 21.1378 0.544 22.1298 0.544C23.1218 0.544 23.9964 0.773333 24.7538 1.232C25.5218 1.69067 26.1191 2.35733 26.5458 3.232C26.9831 4.10667 27.2018 5.16267 27.2018 6.4C27.2018 7.63733 26.9831 8.69333 26.5458 9.568C26.1191 10.4427 25.5218 11.1093 24.7538 11.568C23.9964 12.0267 23.1218 12.256 22.1298 12.256ZM22.1298 9.232C22.3751 9.232 22.5938 9.14667 22.7858 8.976C22.9778 8.80533 23.1271 8.512 23.2338 8.096C23.3511 7.68 23.4098 7.11467 23.4098 6.4C23.4098 5.67467 23.3511 5.10933 23.2338 4.704C23.1271 4.288 22.9778 3.99467 22.7858 3.824C22.5938 3.65333 22.3751 3.568 22.1298 3.568C21.8844 3.568 21.6658 3.65333 21.4738 3.824C21.2818 3.99467 21.1271 4.288 21.0098 4.704C20.9031 5.10933 20.8498 5.67467 20.8498 6.4C20.8498 7.11467 20.9031 7.68 21.0098 8.096C21.1271 8.512 21.2818 8.80533 21.4738 8.976C21.6658 9.14667 21.8844 9.232 22.1298 9.232ZM37.4928 12.16C36.2874 12.16 35.3488 11.872 34.6768 11.296C34.0048 10.7093 33.6688 9.81333 33.6688 8.608V1.28H37.2848V8.576C37.2848 8.84267 37.3541 9.05067 37.4928 9.2C37.6421 9.34933 37.8234 9.424 38.0368 9.424C38.3461 9.424 38.6181 9.344 38.8528 9.184L39.7168 11.696C39.4394 11.856 39.1034 11.9733 38.7088 12.048C38.3248 12.1227 37.9194 12.16 37.4928 12.16ZM32.4688 6.368V3.728H39.0768V6.368H32.4688ZM45.2258 12.16C44.1591 12.16 43.2258 11.9627 42.4258 11.568C41.6364 11.1733 41.0231 10.6347 40.5858 9.952C40.1484 9.25867 39.9298 8.48 39.9298 7.616C39.9298 6.73067 40.1431 5.94667 40.5698 5.264C41.0071 4.58133 41.5991 4.048 42.3458 3.664C43.1031 3.28 43.9511 3.088 44.8898 3.088C45.7538 3.088 46.5484 3.25867 47.2738 3.6C48.0098 3.94133 48.5964 4.448 49.0338 5.12C49.4818 5.792 49.7058 6.624 49.7058 7.616C49.7058 7.744 49.7004 7.888 49.6898 8.048C49.6791 8.19733 49.6684 8.336 49.6578 8.464H42.9218V6.72H47.7378L46.3778 7.184C46.3778 6.84267 46.3138 6.55467 46.1858 6.32C46.0684 6.07467 45.9031 5.888 45.6898 5.76C45.4764 5.62133 45.2204 5.552 44.9218 5.552C44.6231 5.552 44.3618 5.62133 44.1378 5.76C43.9244 5.888 43.7591 6.07467 43.6418 6.32C43.5244 6.55467 43.4658 6.84267 43.4658 7.184V7.728C43.4658 8.10133 43.5404 8.42133 43.6898 8.688C43.8391 8.95467 44.0524 9.15733 44.3298 9.296C44.6071 9.424 44.9431 9.488 45.3378 9.488C45.7431 9.488 46.0738 9.43467 46.3298 9.328C46.5964 9.22133 46.8738 9.06133 47.1618 8.848L49.0498 10.752C48.6231 11.2107 48.0951 11.5627 47.4658 11.808C46.8471 12.0427 46.1004 12.16 45.2258 12.16ZM56.9269 3.088C57.5989 3.088 58.2069 3.22667 58.7509 3.504C59.2949 3.77067 59.7215 4.192 60.0309 4.768C60.3509 5.344 60.5109 6.09067 60.5109 7.008V12H56.8949V7.632C56.8949 7.088 56.7989 6.704 56.6069 6.48C56.4149 6.24533 56.1535 6.128 55.8229 6.128C55.5775 6.128 55.3482 6.18667 55.1349 6.304C54.9322 6.41067 54.7669 6.592 54.6389 6.848C54.5215 7.104 54.4629 7.45067 54.4629 7.888V12H50.8469V3.248H54.2869V5.808L53.5989 5.072C53.9402 4.41067 54.3989 3.91467 54.9749 3.584C55.5615 3.25333 56.2122 3.088 56.9269 3.088ZM66.6855 15.264C65.8215 15.264 65.0108 15.1733 64.2535 14.992C63.4962 14.8107 62.8455 14.5387 62.3015 14.176L63.5175 11.712C63.8588 11.9787 64.2908 12.1867 64.8135 12.336C65.3468 12.496 65.8482 12.576 66.3175 12.576C67.0642 12.576 67.5975 12.416 67.9175 12.096C68.2375 11.7867 68.3975 11.3387 68.3975 10.752V10.016L68.5575 7.296L68.5735 4.576V3.248H72.0135V10.256C72.0135 11.952 71.5442 13.2107 70.6055 14.032C69.6668 14.8533 68.3602 15.264 66.6855 15.264ZM65.9815 11.52C65.2455 11.52 64.5575 11.3493 63.9175 11.008C63.2775 10.656 62.7602 10.1653 62.3655 9.536C61.9708 8.90667 61.7735 8.16 61.7735 7.296C61.7735 6.432 61.9708 5.68533 62.3655 5.056C62.7602 4.42667 63.2775 3.94133 63.9175 3.6C64.5575 3.25867 65.2455 3.088 65.9815 3.088C66.7388 3.088 67.3575 3.23733 67.8375 3.536C68.3282 3.83467 68.6908 4.29867 68.9255 4.928C69.1602 5.54667 69.2775 6.336 69.2775 7.296C69.2775 8.256 69.1602 9.05067 68.9255 9.68C68.6908 10.2987 68.3282 10.7627 67.8375 11.072C67.3575 11.3707 66.7388 11.52 65.9815 11.52ZM66.9415 8.704C67.2295 8.704 67.4855 8.64533 67.7095 8.528C67.9335 8.41067 68.1095 8.24533 68.2375 8.032C68.3655 7.81867 68.4295 7.57333 68.4295 7.296C68.4295 7.008 68.3655 6.76267 68.2375 6.56C68.1095 6.34667 67.9335 6.18667 67.7095 6.08C67.4855 5.96267 67.2295 5.904 66.9415 5.904C66.6642 5.904 66.4082 5.96267 66.1735 6.08C65.9495 6.18667 65.7682 6.34667 65.6295 6.56C65.5015 6.76267 65.4375 7.008 65.4375 7.296C65.4375 7.57333 65.5015 7.81867 65.6295 8.032C65.7682 8.24533 65.9495 8.41067 66.1735 8.528C66.4082 8.64533 66.6642 8.704 66.9415 8.704ZM78.4445 12.16C77.3778 12.16 76.4445 11.9627 75.6445 11.568C74.8552 11.1733 74.2418 10.6347 73.8045 9.952C73.3672 9.25867 73.1485 8.48 73.1485 7.616C73.1485 6.73067 73.3618 5.94667 73.7885 5.264C74.2258 4.58133 74.8178 4.048 75.5645 3.664C76.3218 3.28 77.1698 3.088 78.1085 3.088C78.9725 3.088 79.7672 3.25867 80.4925 3.6C81.2285 3.94133 81.8152 4.448 82.2525 5.12C82.7005 5.792 82.9245 6.624 82.9245 7.616C82.9245 7.744 82.9192 7.888 82.9085 8.048C82.8978 8.19733 82.8872 8.336 82.8765 8.464H76.1405V6.72H80.9565L79.5965 7.184C79.5965 6.84267 79.5325 6.55467 79.4045 6.32C79.2872 6.07467 79.1218 5.888 78.9085 5.76C78.6952 5.62133 78.4392 5.552 78.1405 5.552C77.8418 5.552 77.5805 5.62133 77.3565 5.76C77.1432 5.888 76.9778 6.07467 76.8605 6.32C76.7432 6.55467 76.6845 6.84267 76.6845 7.184V7.728C76.6845 8.10133 76.7592 8.42133 76.9085 8.688C77.0578 8.95467 77.2712 9.15733 77.5485 9.296C77.8258 9.424 78.1618 9.488 78.5565 9.488C78.9618 9.488 79.2925 9.43467 79.5485 9.328C79.8152 9.22133 80.0925 9.06133 80.3805 8.848L82.2685 10.752C81.8418 11.2107 81.3138 11.5627 80.6845 11.808C80.0658 12.0427 79.3192 12.16 78.4445 12.16Z" fill="url(#paint0_linear_6_294)"/>
<defs>
<linearGradient id="paint0_linear_6_294" x1="59" y1="-4" x2="59" y2="27.5" gradientUnits="userSpaceOnUse">
<stop stop-color="#E82652"/>
<stop offset="1" stop-color="#E82652" stop-opacity="0"/>
</linearGradient>
</defs>
</svg>
