<svg width="87" height="16" viewBox="0 0 87 16" fill="none" xmlns="http://www.w3.org/2000/svg">
<path d="M5.32 12.256C4.552 12.256 3.77333 12.1707 2.984 12C2.19467 11.8293 1.50133 11.5787 0.904 11.248L2.184 8.464C2.664 8.74133 3.16533 8.94933 3.688 9.088C4.22133 9.216 4.72267 9.28 5.192 9.28C5.61867 9.28 5.96533 9.21067 6.232 9.072C6.50933 8.92267 6.648 8.704 6.648 8.416C6.648 8.17067 6.54667 7.984 6.344 7.856C6.14133 7.71733 5.8 7.648 5.32 7.648H3.832V5.328L6.728 2.384L7.064 3.648H1.48V0.799999H9.832V3.12L6.936 6.064L5.128 5.04H6.12C7.528 5.04 8.6 5.35467 9.336 5.984C10.072 6.61333 10.44 7.424 10.44 8.416C10.44 9.056 10.2587 9.66933 9.896 10.256C9.544 10.8427 8.98933 11.3227 8.232 11.696C7.48533 12.0693 6.51467 12.256 5.32 12.256ZM15.1679 12.256C14.3999 12.256 13.6212 12.1707 12.8319 12C12.0425 11.8293 11.3492 11.5787 10.7519 11.248L12.0319 8.464C12.5119 8.74133 13.0132 8.94933 13.5359 9.088C14.0585 9.216 14.5545 9.28 15.0239 9.28C15.4505 9.28 15.8025 9.20533 16.0799 9.056C16.3572 8.90667 16.4959 8.688 16.4959 8.4C16.4959 8.24 16.4479 8.10133 16.3519 7.984C16.2559 7.856 16.0852 7.76 15.8399 7.696C15.6052 7.632 15.2585 7.6 14.7999 7.6H11.5519L12.1119 0.799999H19.5519V3.648H13.4399L15.3439 2.032L15.0079 6.368L13.1039 4.752H15.7119C16.8212 4.752 17.7065 4.912 18.3679 5.232C19.0399 5.552 19.5252 5.984 19.8239 6.528C20.1332 7.06133 20.2879 7.65867 20.2879 8.32C20.2879 8.98133 20.1065 9.616 19.7439 10.224C19.3919 10.8213 18.8372 11.312 18.0799 11.696C17.3332 12.0693 16.3625 12.256 15.1679 12.256ZM26.1141 12.256C25.1221 12.256 24.2421 12.0267 23.4741 11.568C22.7168 11.1093 22.1195 10.4427 21.6821 9.568C21.2555 8.69333 21.0421 7.63733 21.0421 6.4C21.0421 5.16267 21.2555 4.10667 21.6821 3.232C22.1195 2.35733 22.7168 1.69067 23.4741 1.232C24.2421 0.773333 25.1221 0.544 26.1141 0.544C27.1061 0.544 27.9808 0.773333 28.7381 1.232C29.5061 1.69067 30.1035 2.35733 30.5301 3.232C30.9675 4.10667 31.1861 5.16267 31.1861 6.4C31.1861 7.63733 30.9675 8.69333 30.5301 9.568C30.1035 10.4427 29.5061 11.1093 28.7381 11.568C27.9808 12.0267 27.1061 12.256 26.1141 12.256ZM26.1141 9.232C26.3595 9.232 26.5781 9.14667 26.7701 8.976C26.9621 8.80533 27.1115 8.512 27.2181 8.096C27.3355 7.68 27.3941 7.11467 27.3941 6.4C27.3941 5.67467 27.3355 5.10933 27.2181 4.704C27.1115 4.288 26.9621 3.99467 26.7701 3.824C26.5781 3.65333 26.3595 3.568 26.1141 3.568C25.8688 3.568 25.6501 3.65333 25.4581 3.824C25.2661 3.99467 25.1115 4.288 24.9941 4.704C24.8875 5.10933 24.8341 5.67467 24.8341 6.4C24.8341 7.11467 24.8875 7.68 24.9941 8.096C25.1115 8.512 25.2661 8.80533 25.4581 8.976C25.6501 9.14667 25.8688 9.232 26.1141 9.232ZM41.4771 12.16C40.2718 12.16 39.3331 11.872 38.6611 11.296C37.9891 10.7093 37.6531 9.81333 37.6531 8.608V1.28H41.2691V8.576C41.2691 8.84267 41.3385 9.05067 41.4771 9.2C41.6265 9.34933 41.8078 9.424 42.0211 9.424C42.3305 9.424 42.6025 9.344 42.8371 9.184L43.7011 11.696C43.4238 11.856 43.0878 11.9733 42.6931 12.048C42.3091 12.1227 41.9038 12.16 41.4771 12.16ZM36.4531 6.368V3.728H43.0611V6.368H36.4531ZM49.2101 12.16C48.1435 12.16 47.2101 11.9627 46.4101 11.568C45.6208 11.1733 45.0075 10.6347 44.5701 9.952C44.1328 9.25867 43.9141 8.48 43.9141 7.616C43.9141 6.73067 44.1275 5.94667 44.5541 5.264C44.9915 4.58133 45.5835 4.048 46.3301 3.664C47.0875 3.28 47.9355 3.088 48.8741 3.088C49.7381 3.088 50.5328 3.25867 51.2581 3.6C51.9941 3.94133 52.5808 4.448 53.0181 5.12C53.4661 5.792 53.6901 6.624 53.6901 7.616C53.6901 7.744 53.6848 7.888 53.6741 8.048C53.6635 8.19733 53.6528 8.336 53.6421 8.464H46.9061V6.72H51.7221L50.3621 7.184C50.3621 6.84267 50.2981 6.55467 50.1701 6.32C50.0528 6.07467 49.8875 5.888 49.6741 5.76C49.4608 5.62133 49.2048 5.552 48.9061 5.552C48.6075 5.552 48.3461 5.62133 48.1221 5.76C47.9088 5.888 47.7435 6.07467 47.6261 6.32C47.5088 6.55467 47.4501 6.84267 47.4501 7.184V7.728C47.4501 8.10133 47.5248 8.42133 47.6741 8.688C47.8235 8.95467 48.0368 9.15733 48.3141 9.296C48.5915 9.424 48.9275 9.488 49.3221 9.488C49.7275 9.488 50.0581 9.43467 50.3141 9.328C50.5808 9.22133 50.8581 9.06133 51.1461 8.848L53.0341 10.752C52.6075 11.2107 52.0795 11.5627 51.4501 11.808C50.8315 12.0427 50.0848 12.16 49.2101 12.16ZM60.9113 3.088C61.5833 3.088 62.1913 3.22667 62.7353 3.504C63.2793 3.77067 63.7059 4.192 64.0153 4.768C64.3353 5.344 64.4953 6.09067 64.4953 7.008V12H60.8793V7.632C60.8793 7.088 60.7833 6.704 60.5913 6.48C60.3993 6.24533 60.1379 6.128 59.8073 6.128C59.5619 6.128 59.3326 6.18667 59.1193 6.304C58.9166 6.41067 58.7513 6.592 58.6233 6.848C58.5059 7.104 58.4473 7.45067 58.4473 7.888V12H54.8313V3.248H58.2713V5.808L57.5833 5.072C57.9246 4.41067 58.3833 3.91467 58.9593 3.584C59.5459 3.25333 60.1966 3.088 60.9113 3.088ZM70.6699 15.264C69.8059 15.264 68.9952 15.1733 68.2379 14.992C67.4805 14.8107 66.8299 14.5387 66.2859 14.176L67.5019 11.712C67.8432 11.9787 68.2752 12.1867 68.7979 12.336C69.3312 12.496 69.8325 12.576 70.3019 12.576C71.0485 12.576 71.5819 12.416 71.9019 12.096C72.2219 11.7867 72.3819 11.3387 72.3819 10.752V10.016L72.5419 7.296L72.5579 4.576V3.248H75.9979V10.256C75.9979 11.952 75.5285 13.2107 74.5899 14.032C73.6512 14.8533 72.3445 15.264 70.6699 15.264ZM69.9659 11.52C69.2299 11.52 68.5419 11.3493 67.9019 11.008C67.2619 10.656 66.7445 10.1653 66.3499 9.536C65.9552 8.90667 65.7579 8.16 65.7579 7.296C65.7579 6.432 65.9552 5.68533 66.3499 5.056C66.7445 4.42667 67.2619 3.94133 67.9019 3.6C68.5419 3.25867 69.2299 3.088 69.9659 3.088C70.7232 3.088 71.3419 3.23733 71.8219 3.536C72.3125 3.83467 72.6752 4.29867 72.9099 4.928C73.1445 5.54667 73.2619 6.336 73.2619 7.296C73.2619 8.256 73.1445 9.05067 72.9099 9.68C72.6752 10.2987 72.3125 10.7627 71.8219 11.072C71.3419 11.3707 70.7232 11.52 69.9659 11.52ZM70.9259 8.704C71.2139 8.704 71.4699 8.64533 71.6939 8.528C71.9179 8.41067 72.0939 8.24533 72.2219 8.032C72.3499 7.81867 72.4139 7.57333 72.4139 7.296C72.4139 7.008 72.3499 6.76267 72.2219 6.56C72.0939 6.34667 71.9179 6.18667 71.6939 6.08C71.4699 5.96267 71.2139 5.904 70.9259 5.904C70.6485 5.904 70.3925 5.96267 70.1579 6.08C69.9339 6.18667 69.7525 6.34667 69.6139 6.56C69.4859 6.76267 69.4219 7.008 69.4219 7.296C69.4219 7.57333 69.4859 7.81867 69.6139 8.032C69.7525 8.24533 69.9339 8.41067 70.1579 8.528C70.3925 8.64533 70.6485 8.704 70.9259 8.704ZM82.4289 12.16C81.3622 12.16 80.4289 11.9627 79.6289 11.568C78.8395 11.1733 78.2262 10.6347 77.7889 9.952C77.3515 9.25867 77.1329 8.48 77.1329 7.616C77.1329 6.73067 77.3462 5.94667 77.7729 5.264C78.2102 4.58133 78.8022 4.048 79.5489 3.664C80.3062 3.28 81.1542 3.088 82.0929 3.088C82.9569 3.088 83.7515 3.25867 84.4769 3.6C85.2129 3.94133 85.7995 4.448 86.2369 5.12C86.6849 5.792 86.9089 6.624 86.9089 7.616C86.9089 7.744 86.9035 7.888 86.8929 8.048C86.8822 8.19733 86.8715 8.336 86.8609 8.464H80.1249V6.72H84.9409L83.5809 7.184C83.5809 6.84267 83.5169 6.55467 83.3889 6.32C83.2715 6.07467 83.1062 5.888 82.8929 5.76C82.6795 5.62133 82.4235 5.552 82.1249 5.552C81.8262 5.552 81.5649 5.62133 81.3409 5.76C81.1275 5.888 80.9622 6.07467 80.8449 6.32C80.7275 6.55467 80.6689 6.84267 80.6689 7.184V7.728C80.6689 8.10133 80.7435 8.42133 80.8929 8.688C81.0422 8.95467 81.2555 9.15733 81.5329 9.296C81.8102 9.424 82.1462 9.488 82.5409 9.488C82.9462 9.488 83.2769 9.43467 83.5329 9.328C83.7995 9.22133 84.0769 9.06133 84.3649 8.848L86.2529 10.752C85.8262 11.2107 85.2982 11.5627 84.6689 11.808C84.0502 12.0427 83.3035 12.16 82.4289 12.16Z" fill="url(#paint0_linear_6_294)"/>
<defs>
<linearGradient id="paint0_linear_6_294" x1="60" y1="-4" x2="60" y2="27.5" gradientUnits="userSpaceOnUse">
<stop stop-color="#E82652"/>
<stop offset="1" stop-color="#E82652" stop-opacity="0"/>
</linearGradient>
</defs>
</svg>
