<svg width="87" height="16" viewBox="0 0 87 16" fill="none" xmlns="http://www.w3.org/2000/svg">
<path d="M4.496 12.256C3.728 12.256 2.94933 12.1707 2.16 12C1.37067 11.8293 0.677333 11.5787 0.08 11.248L1.36 8.464C1.84 8.74133 2.34133 8.94933 2.864 9.088C3.38667 9.216 3.88267 9.28 4.352 9.28C4.77867 9.28 5.13067 9.20533 5.408 9.056C5.68533 8.90667 5.824 8.688 5.824 8.4C5.824 8.24 5.776 8.10133 5.68 7.984C5.584 7.856 5.41333 7.76 5.168 7.696C4.93333 7.632 4.58667 7.6 4.128 7.6H0.88L1.44 0.799999H8.88V3.648H2.768L4.672 2.032L4.336 6.368L2.432 4.752H5.04C6.14933 4.752 7.03467 4.912 7.696 5.232C8.368 5.552 8.85333 5.984 9.152 6.528C9.46133 7.06133 9.616 7.65867 9.616 8.32C9.616 8.98133 9.43467 9.616 9.072 10.224C8.72 10.8213 8.16533 11.312 7.408 11.696C6.66133 12.0693 5.69067 12.256 4.496 12.256ZM14.6423 0.544C15.7089 0.544 16.6423 0.752 17.4423 1.168C18.2529 1.57333 18.8823 2.18133 19.3303 2.992C19.7889 3.80267 20.0183 4.82133 20.0183 6.048C20.0183 7.36 19.7569 8.48 19.2343 9.408C18.7116 10.3253 17.9863 11.0293 17.0583 11.52C16.1303 12.0107 15.0476 12.256 13.8103 12.256C13.1489 12.256 12.5089 12.176 11.8903 12.016C11.2823 11.8667 10.7649 11.6533 10.3383 11.376L11.6983 8.736C12.0289 8.97067 12.3596 9.13067 12.6903 9.216C13.0316 9.29067 13.3783 9.328 13.7303 9.328C14.4876 9.328 15.0903 9.104 15.5383 8.656C15.9969 8.19733 16.2263 7.536 16.2263 6.672C16.2263 6.512 16.2263 6.35733 16.2263 6.208C16.2263 6.048 16.2263 5.888 16.2263 5.728L17.0903 6.352C16.8876 6.71467 16.6369 7.024 16.3383 7.28C16.0503 7.52533 15.7089 7.71733 15.3143 7.856C14.9196 7.984 14.4609 8.048 13.9383 8.048C13.2556 8.048 12.6209 7.904 12.0343 7.616C11.4583 7.31733 10.9889 6.90133 10.6263 6.368C10.2743 5.824 10.0983 5.18933 10.0983 4.464C10.0983 3.664 10.3009 2.97067 10.7063 2.384C11.1116 1.79733 11.6556 1.344 12.3383 1.024C13.0316 0.704 13.7996 0.544 14.6423 0.544ZM14.8983 3.152C14.6743 3.152 14.4769 3.2 14.3063 3.296C14.1356 3.38133 13.9969 3.50933 13.8903 3.68C13.7943 3.85067 13.7463 4.05333 13.7463 4.288C13.7463 4.64 13.8529 4.92267 14.0663 5.136C14.2903 5.33867 14.5676 5.44 14.8983 5.44C15.1223 5.44 15.3196 5.392 15.4903 5.296C15.6716 5.2 15.8103 5.06667 15.9063 4.896C16.0023 4.72533 16.0503 4.52267 16.0503 4.288C16.0503 4.05333 16.0023 3.85067 15.9063 3.68C15.8103 3.50933 15.6716 3.38133 15.4903 3.296C15.3196 3.2 15.1223 3.152 14.8983 3.152ZM26.0204 12.256C25.0284 12.256 24.1484 12.0267 23.3804 11.568C22.623 11.1093 22.0257 10.4427 21.5884 9.568C21.1617 8.69333 20.9484 7.63733 20.9484 6.4C20.9484 5.16267 21.1617 4.10667 21.5884 3.232C22.0257 2.35733 22.623 1.69067 23.3804 1.232C24.1484 0.773333 25.0284 0.544 26.0204 0.544C27.0124 0.544 27.887 0.773333 28.6444 1.232C29.4124 1.69067 30.0097 2.35733 30.4364 3.232C30.8737 4.10667 31.0924 5.16267 31.0924 6.4C31.0924 7.63733 30.8737 8.69333 30.4364 9.568C30.0097 10.4427 29.4124 11.1093 28.6444 11.568C27.887 12.0267 27.0124 12.256 26.0204 12.256ZM26.0204 9.232C26.2657 9.232 26.4844 9.14667 26.6764 8.976C26.8684 8.80533 27.0177 8.512 27.1244 8.096C27.2417 7.68 27.3004 7.11467 27.3004 6.4C27.3004 5.67467 27.2417 5.10933 27.1244 4.704C27.0177 4.288 26.8684 3.99467 26.6764 3.824C26.4844 3.65333 26.2657 3.568 26.0204 3.568C25.775 3.568 25.5564 3.65333 25.3644 3.824C25.1724 3.99467 25.0177 4.288 24.9004 4.704C24.7937 5.10933 24.7404 5.67467 24.7404 6.4C24.7404 7.11467 24.7937 7.68 24.9004 8.096C25.0177 8.512 25.1724 8.80533 25.3644 8.976C25.5564 9.14667 25.775 9.232 26.0204 9.232ZM41.3834 12.16C40.178 12.16 39.2394 11.872 38.5674 11.296C37.8954 10.7093 37.5594 9.81333 37.5594 8.608V1.28H41.1754V8.576C41.1754 8.84267 41.2447 9.05067 41.3834 9.2C41.5327 9.34933 41.714 9.424 41.9274 9.424C42.2367 9.424 42.5087 9.344 42.7434 9.184L43.6074 11.696C43.33 11.856 42.994 11.9733 42.5994 12.048C42.2154 12.1227 41.81 12.16 41.3834 12.16ZM36.3594 6.368V3.728H42.9674V6.368H36.3594ZM49.1164 12.16C48.0497 12.16 47.1164 11.9627 46.3164 11.568C45.527 11.1733 44.9137 10.6347 44.4764 9.952C44.039 9.25867 43.8204 8.48 43.8204 7.616C43.8204 6.73067 44.0337 5.94667 44.4604 5.264C44.8977 4.58133 45.4897 4.048 46.2364 3.664C46.9937 3.28 47.8417 3.088 48.7804 3.088C49.6444 3.088 50.439 3.25867 51.1644 3.6C51.9004 3.94133 52.487 4.448 52.9244 5.12C53.3724 5.792 53.5964 6.624 53.5964 7.616C53.5964 7.744 53.591 7.888 53.5804 8.048C53.5697 8.19733 53.559 8.336 53.5484 8.464H46.8124V6.72H51.6284L50.2684 7.184C50.2684 6.84267 50.2044 6.55467 50.0764 6.32C49.959 6.07467 49.7937 5.888 49.5804 5.76C49.367 5.62133 49.111 5.552 48.8124 5.552C48.5137 5.552 48.2524 5.62133 48.0284 5.76C47.815 5.888 47.6497 6.07467 47.5324 6.32C47.415 6.55467 47.3564 6.84267 47.3564 7.184V7.728C47.3564 8.10133 47.431 8.42133 47.5804 8.688C47.7297 8.95467 47.943 9.15733 48.2204 9.296C48.4977 9.424 48.8337 9.488 49.2284 9.488C49.6337 9.488 49.9644 9.43467 50.2204 9.328C50.487 9.22133 50.7644 9.06133 51.0524 8.848L52.9404 10.752C52.5137 11.2107 51.9857 11.5627 51.3564 11.808C50.7377 12.0427 49.991 12.16 49.1164 12.16ZM60.8175 3.088C61.4895 3.088 62.0975 3.22667 62.6415 3.504C63.1855 3.77067 63.6122 4.192 63.9215 4.768C64.2415 5.344 64.4015 6.09067 64.4015 7.008V12H60.7855V7.632C60.7855 7.088 60.6895 6.704 60.4975 6.48C60.3055 6.24533 60.0442 6.128 59.7135 6.128C59.4682 6.128 59.2388 6.18667 59.0255 6.304C58.8228 6.41067 58.6575 6.592 58.5295 6.848C58.4122 7.104 58.3535 7.45067 58.3535 7.888V12H54.7375V3.248H58.1775V5.808L57.4895 5.072C57.8308 4.41067 58.2895 3.91467 58.8655 3.584C59.4522 3.25333 60.1028 3.088 60.8175 3.088ZM70.5761 15.264C69.7121 15.264 68.9015 15.1733 68.1441 14.992C67.3868 14.8107 66.7361 14.5387 66.1921 14.176L67.4081 11.712C67.7495 11.9787 68.1815 12.1867 68.7041 12.336C69.2375 12.496 69.7388 12.576 70.2081 12.576C70.9548 12.576 71.4881 12.416 71.8081 12.096C72.1281 11.7867 72.2881 11.3387 72.2881 10.752V10.016L72.4481 7.296L72.4641 4.576V3.248H75.9041V10.256C75.9041 11.952 75.4348 13.2107 74.4961 14.032C73.5575 14.8533 72.2508 15.264 70.5761 15.264ZM69.8721 11.52C69.1361 11.52 68.4481 11.3493 67.8081 11.008C67.1681 10.656 66.6508 10.1653 66.2561 9.536C65.8615 8.90667 65.6641 8.16 65.6641 7.296C65.6641 6.432 65.8615 5.68533 66.2561 5.056C66.6508 4.42667 67.1681 3.94133 67.8081 3.6C68.4481 3.25867 69.1361 3.088 69.8721 3.088C70.6295 3.088 71.2481 3.23733 71.7281 3.536C72.2188 3.83467 72.5815 4.29867 72.8161 4.928C73.0508 5.54667 73.1681 6.336 73.1681 7.296C73.1681 8.256 73.0508 9.05067 72.8161 9.68C72.5815 10.2987 72.2188 10.7627 71.7281 11.072C71.2481 11.3707 70.6295 11.52 69.8721 11.52ZM70.8321 8.704C71.1201 8.704 71.3761 8.64533 71.6001 8.528C71.8241 8.41067 72.0001 8.24533 72.1281 8.032C72.2561 7.81867 72.3201 7.57333 72.3201 7.296C72.3201 7.008 72.2561 6.76267 72.1281 6.56C72.0001 6.34667 71.8241 6.18667 71.6001 6.08C71.3761 5.96267 71.1201 5.904 70.8321 5.904C70.5548 5.904 70.2988 5.96267 70.0641 6.08C69.8401 6.18667 69.6588 6.34667 69.5201 6.56C69.3921 6.76267 69.3281 7.008 69.3281 7.296C69.3281 7.57333 69.3921 7.81867 69.5201 8.032C69.6588 8.24533 69.8401 8.41067 70.0641 8.528C70.2988 8.64533 70.5548 8.704 70.8321 8.704ZM82.3351 12.16C81.2685 12.16 80.3351 11.9627 79.5351 11.568C78.7458 11.1733 78.1325 10.6347 77.6951 9.952C77.2578 9.25867 77.0391 8.48 77.0391 7.616C77.0391 6.73067 77.2525 5.94667 77.6791 5.264C78.1165 4.58133 78.7085 4.048 79.4551 3.664C80.2125 3.28 81.0605 3.088 81.9991 3.088C82.8631 3.088 83.6578 3.25867 84.3831 3.6C85.1191 3.94133 85.7058 4.448 86.1431 5.12C86.5911 5.792 86.8151 6.624 86.8151 7.616C86.8151 7.744 86.8098 7.888 86.7991 8.048C86.7885 8.19733 86.7778 8.336 86.7671 8.464H80.0311V6.72H84.8471L83.4871 7.184C83.4871 6.84267 83.4231 6.55467 83.2951 6.32C83.1778 6.07467 83.0125 5.888 82.7991 5.76C82.5858 5.62133 82.3298 5.552 82.0311 5.552C81.7325 5.552 81.4711 5.62133 81.2471 5.76C81.0338 5.888 80.8685 6.07467 80.7511 6.32C80.6338 6.55467 80.5751 6.84267 80.5751 7.184V7.728C80.5751 8.10133 80.6498 8.42133 80.7991 8.688C80.9485 8.95467 81.1618 9.15733 81.4391 9.296C81.7165 9.424 82.0525 9.488 82.4471 9.488C82.8525 9.488 83.1831 9.43467 83.4391 9.328C83.7058 9.22133 83.9831 9.06133 84.2711 8.848L86.1591 10.752C85.7325 11.2107 85.2045 11.5627 84.5751 11.808C83.9565 12.0427 83.2098 12.16 82.3351 12.16Z" fill="url(#paint0_linear_6_281)"/>
<defs>
<linearGradient id="paint0_linear_6_281" x1="59" y1="-4" x2="59" y2="27.5" gradientUnits="userSpaceOnUse">
<stop stop-color="#E82652"/>
<stop offset="1" stop-color="#E82652" stop-opacity="0"/>
</linearGradient>
</defs>
</svg>
