<svg width="87" height="16" viewBox="0 0 87 16" fill="none" xmlns="http://www.w3.org/2000/svg">
<path d="M4.496 12.256C3.728 12.256 2.94933 12.1707 2.16 12C1.37067 11.8293 0.677333 11.5787 0.08 11.248L1.36 8.464C1.84 8.74133 2.34133 8.94933 2.864 9.088C3.38667 9.216 3.88267 9.28 4.352 9.28C4.77867 9.28 5.13067 9.20533 5.408 9.056C5.68533 8.90667 5.824 8.688 5.824 8.4C5.824 8.24 5.776 8.10133 5.68 7.984C5.584 7.856 5.41333 7.76 5.168 7.696C4.93333 7.632 4.58667 7.6 4.128 7.6H0.88L1.44 0.799999H8.88V3.648H2.768L4.672 2.032L4.336 6.368L2.432 4.752H5.04C6.14933 4.752 7.03467 4.912 7.696 5.232C8.368 5.552 8.85333 5.984 9.152 6.528C9.46133 7.06133 9.616 7.65867 9.616 8.32C9.616 8.98133 9.43467 9.616 9.072 10.224C8.72 10.8213 8.16533 11.312 7.408 11.696C6.66133 12.0693 5.69067 12.256 4.496 12.256ZM14.3241 12.256C13.5561 12.256 12.7775 12.1707 11.9881 12C11.1988 11.8293 10.5055 11.5787 9.90813 11.248L11.1881 8.464C11.6681 8.74133 12.1695 8.94933 12.6921 9.088C13.2148 9.216 13.7108 9.28 14.1801 9.28C14.6068 9.28 14.9588 9.20533 15.2361 9.056C15.5135 8.90667 15.6521 8.688 15.6521 8.4C15.6521 8.24 15.6041 8.10133 15.5081 7.984C15.4121 7.856 15.2415 7.76 14.9961 7.696C14.7615 7.632 14.4148 7.6 13.9561 7.6H10.7081L11.2681 0.799999H18.7081V3.648H12.5961L14.5001 2.032L14.1641 6.368L12.2601 4.752H14.8681C15.9775 4.752 16.8628 4.912 17.5241 5.232C18.1961 5.552 18.6815 5.984 18.9801 6.528C19.2895 7.06133 19.4441 7.65867 19.4441 8.32C19.4441 8.98133 19.2628 9.616 18.9001 10.224C18.5481 10.8213 17.9935 11.312 17.2361 11.696C16.4895 12.0693 15.5188 12.256 14.3241 12.256ZM25.2704 12.256C24.2784 12.256 23.3984 12.0267 22.6304 11.568C21.873 11.1093 21.2757 10.4427 20.8384 9.568C20.4117 8.69333 20.1984 7.63733 20.1984 6.4C20.1984 5.16267 20.4117 4.10667 20.8384 3.232C21.2757 2.35733 21.873 1.69067 22.6304 1.232C23.3984 0.773333 24.2784 0.544 25.2704 0.544C26.2624 0.544 27.137 0.773333 27.8944 1.232C28.6624 1.69067 29.2597 2.35733 29.6864 3.232C30.1237 4.10667 30.3424 5.16267 30.3424 6.4C30.3424 7.63733 30.1237 8.69333 29.6864 9.568C29.2597 10.4427 28.6624 11.1093 27.8944 11.568C27.137 12.0267 26.2624 12.256 25.2704 12.256ZM25.2704 9.232C25.5157 9.232 25.7344 9.14667 25.9264 8.976C26.1184 8.80533 26.2677 8.512 26.3744 8.096C26.4917 7.68 26.5504 7.11467 26.5504 6.4C26.5504 5.67467 26.4917 5.10933 26.3744 4.704C26.2677 4.288 26.1184 3.99467 25.9264 3.824C25.7344 3.65333 25.5157 3.568 25.2704 3.568C25.025 3.568 24.8064 3.65333 24.6144 3.824C24.4224 3.99467 24.2677 4.288 24.1504 4.704C24.0437 5.10933 23.9904 5.67467 23.9904 6.4C23.9904 7.11467 24.0437 7.68 24.1504 8.096C24.2677 8.512 24.4224 8.80533 24.6144 8.976C24.8064 9.14667 25.025 9.232 25.2704 9.232ZM40.6334 12.16C39.428 12.16 38.4894 11.872 37.8174 11.296C37.1454 10.7093 36.8094 9.81333 36.8094 8.608V1.28H40.4254V8.576C40.4254 8.84267 40.4947 9.05067 40.6334 9.2C40.7827 9.34933 40.964 9.424 41.1774 9.424C41.4867 9.424 41.7587 9.344 41.9934 9.184L42.8574 11.696C42.58 11.856 42.244 11.9733 41.8494 12.048C41.4654 12.1227 41.06 12.16 40.6334 12.16ZM35.6094 6.368V3.728H42.2174V6.368H35.6094ZM48.3664 12.16C47.2997 12.16 46.3664 11.9627 45.5664 11.568C44.777 11.1733 44.1637 10.6347 43.7264 9.952C43.289 9.25867 43.0704 8.48 43.0704 7.616C43.0704 6.73067 43.2837 5.94667 43.7104 5.264C44.1477 4.58133 44.7397 4.048 45.4864 3.664C46.2437 3.28 47.0917 3.088 48.0304 3.088C48.8944 3.088 49.689 3.25867 50.4144 3.6C51.1504 3.94133 51.737 4.448 52.1744 5.12C52.6224 5.792 52.8464 6.624 52.8464 7.616C52.8464 7.744 52.841 7.888 52.8304 8.048C52.8197 8.19733 52.809 8.336 52.7984 8.464H46.0624V6.72H50.8784L49.5184 7.184C49.5184 6.84267 49.4544 6.55467 49.3264 6.32C49.209 6.07467 49.0437 5.888 48.8304 5.76C48.617 5.62133 48.361 5.552 48.0624 5.552C47.7637 5.552 47.5024 5.62133 47.2784 5.76C47.065 5.888 46.8997 6.07467 46.7824 6.32C46.665 6.55467 46.6064 6.84267 46.6064 7.184V7.728C46.6064 8.10133 46.681 8.42133 46.8304 8.688C46.9797 8.95467 47.193 9.15733 47.4704 9.296C47.7477 9.424 48.0837 9.488 48.4784 9.488C48.8837 9.488 49.2144 9.43467 49.4704 9.328C49.737 9.22133 50.0144 9.06133 50.3024 8.848L52.1904 10.752C51.7637 11.2107 51.2357 11.5627 50.6064 11.808C49.9877 12.0427 49.241 12.16 48.3664 12.16ZM60.0675 3.088C60.7395 3.088 61.3475 3.22667 61.8915 3.504C62.4355 3.77067 62.8622 4.192 63.1715 4.768C63.4915 5.344 63.6515 6.09067 63.6515 7.008V12H60.0355V7.632C60.0355 7.088 59.9395 6.704 59.7475 6.48C59.5555 6.24533 59.2942 6.128 58.9635 6.128C58.7182 6.128 58.4888 6.18667 58.2755 6.304C58.0728 6.41067 57.9075 6.592 57.7795 6.848C57.6622 7.104 57.6035 7.45067 57.6035 7.888V12H53.9875V3.248H57.4275V5.808L56.7395 5.072C57.0808 4.41067 57.5395 3.91467 58.1155 3.584C58.7022 3.25333 59.3528 3.088 60.0675 3.088ZM69.8261 15.264C68.9621 15.264 68.1515 15.1733 67.3941 14.992C66.6368 14.8107 65.9861 14.5387 65.4421 14.176L66.6581 11.712C66.9995 11.9787 67.4315 12.1867 67.9541 12.336C68.4875 12.496 68.9888 12.576 69.4581 12.576C70.2048 12.576 70.7381 12.416 71.0581 12.096C71.3781 11.7867 71.5381 11.3387 71.5381 10.752V10.016L71.6981 7.296L71.7141 4.576V3.248H75.1541V10.256C75.1541 11.952 74.6848 13.2107 73.7461 14.032C72.8075 14.8533 71.5008 15.264 69.8261 15.264ZM69.1221 11.52C68.3861 11.52 67.6981 11.3493 67.0581 11.008C66.4181 10.656 65.9008 10.1653 65.5061 9.536C65.1115 8.90667 64.9141 8.16 64.9141 7.296C64.9141 6.432 65.1115 5.68533 65.5061 5.056C65.9008 4.42667 66.4181 3.94133 67.0581 3.6C67.6981 3.25867 68.3861 3.088 69.1221 3.088C69.8795 3.088 70.4981 3.23733 70.9781 3.536C71.4688 3.83467 71.8315 4.29867 72.0661 4.928C72.3008 5.54667 72.4181 6.336 72.4181 7.296C72.4181 8.256 72.3008 9.05067 72.0661 9.68C71.8315 10.2987 71.4688 10.7627 70.9781 11.072C70.4981 11.3707 69.8795 11.52 69.1221 11.52ZM70.0821 8.704C70.3701 8.704 70.6261 8.64533 70.8501 8.528C71.0741 8.41067 71.2501 8.24533 71.3781 8.032C71.5061 7.81867 71.5701 7.57333 71.5701 7.296C71.5701 7.008 71.5061 6.76267 71.3781 6.56C71.2501 6.34667 71.0741 6.18667 70.8501 6.08C70.6261 5.96267 70.3701 5.904 70.0821 5.904C69.8048 5.904 69.5488 5.96267 69.3141 6.08C69.0901 6.18667 68.9088 6.34667 68.7701 6.56C68.6421 6.76267 68.5781 7.008 68.5781 7.296C68.5781 7.57333 68.6421 7.81867 68.7701 8.032C68.9088 8.24533 69.0901 8.41067 69.3141 8.528C69.5488 8.64533 69.8048 8.704 70.0821 8.704ZM81.5851 12.16C80.5185 12.16 79.5851 11.9627 78.7851 11.568C77.9958 11.1733 77.3825 10.6347 76.9451 9.952C76.5078 9.25867 76.2891 8.48 76.2891 7.616C76.2891 6.73067 76.5025 5.94667 76.9291 5.264C77.3665 4.58133 77.9585 4.048 78.7051 3.664C79.4625 3.28 80.3105 3.088 81.2491 3.088C82.1131 3.088 82.9078 3.25867 83.6331 3.6C84.3691 3.94133 84.9558 4.448 85.3931 5.12C85.8411 5.792 86.0651 6.624 86.0651 7.616C86.0651 7.744 86.0598 7.888 86.0491 8.048C86.0385 8.19733 86.0278 8.336 86.0171 8.464H79.2811V6.72H84.0971L82.7371 7.184C82.7371 6.84267 82.6731 6.55467 82.5451 6.32C82.4278 6.07467 82.2625 5.888 82.0491 5.76C81.8358 5.62133 81.5798 5.552 81.2811 5.552C80.9825 5.552 80.7211 5.62133 80.4971 5.76C80.2838 5.888 80.1185 6.07467 80.0011 6.32C79.8838 6.55467 79.8251 6.84267 79.8251 7.184V7.728C79.8251 8.10133 79.8998 8.42133 80.0491 8.688C80.1985 8.95467 80.4118 9.15733 80.6891 9.296C80.9665 9.424 81.3025 9.488 81.6971 9.488C82.1025 9.488 82.4331 9.43467 82.6891 9.328C82.9558 9.22133 83.2331 9.06133 83.5211 8.848L85.4091 10.752C84.9825 11.2107 84.4545 11.5627 83.8251 11.808C83.2065 12.0427 82.4598 12.16 81.5851 12.16Z" fill="url(#paint0_linear_6_294)"/>
<defs>
<linearGradient id="paint0_linear_6_294" x1="59" y1="-4" x2="59" y2="27.5" gradientUnits="userSpaceOnUse">
<stop stop-color="#E82652"/>
<stop offset="1" stop-color="#E82652" stop-opacity="0"/>
</linearGradient>
</defs>
</svg>
