<svg width="88" height="16" viewBox="0 0 88 16" fill="none" xmlns="http://www.w3.org/2000/svg">
<path d="M5.424 12.256C4.432 12.256 3.55733 12.112 2.8 11.824C2.05333 11.5253 1.46667 11.1093 1.04 10.576C0.613333 10.032 0.4 9.39733 0.4 8.672C0.4 7.94667 0.618667 7.328 1.056 6.816C1.49333 6.304 2.09067 5.91467 2.848 5.648C3.60533 5.38133 4.464 5.248 5.424 5.248C6.384 5.248 7.24267 5.38133 8 5.648C8.75733 5.91467 9.35467 6.304 9.792 6.816C10.2293 7.328 10.448 7.94667 10.448 8.672C10.448 9.39733 10.2347 10.032 9.808 10.576C9.38133 11.1093 8.78933 11.5253 8.032 11.824C7.28533 12.112 6.416 12.256 5.424 12.256ZM5.424 9.712C5.78667 9.712 6.08 9.61067 6.304 9.408C6.53867 9.19467 6.656 8.90667 6.656 8.544C6.656 8.18133 6.53867 7.89867 6.304 7.696C6.08 7.48267 5.78667 7.376 5.424 7.376C5.06133 7.376 4.76267 7.48267 4.528 7.696C4.304 7.89867 4.192 8.18133 4.192 8.544C4.192 8.90667 4.304 9.19467 4.528 9.408C4.76267 9.61067 5.06133 9.712 5.424 9.712ZM5.424 7.072C4.54933 7.072 3.76 6.94933 3.056 6.704C2.36267 6.448 1.81333 6.08533 1.408 5.616C1.00267 5.136 0.8 4.56 0.8 3.888C0.8 3.20533 0.997333 2.61867 1.392 2.128C1.78667 1.62667 2.33067 1.23733 3.024 0.959999C3.71733 0.682666 4.51733 0.544 5.424 0.544C6.33067 0.544 7.13067 0.682666 7.824 0.959999C8.51733 1.23733 9.06133 1.62667 9.456 2.128C9.85067 2.61867 10.048 3.20533 10.048 3.888C10.048 4.56 9.84533 5.136 9.44 5.616C9.03467 6.08533 8.48533 6.448 7.792 6.704C7.09867 6.94933 6.30933 7.072 5.424 7.072ZM5.424 5.008C5.68 5.008 5.89333 4.92267 6.064 4.752C6.23467 4.58133 6.32 4.34667 6.32 4.048C6.32 3.73867 6.23467 3.504 6.064 3.344C5.89333 3.17333 5.68 3.088 5.424 3.088C5.168 3.088 4.95467 3.17333 4.784 3.344C4.61333 3.504 4.528 3.73867 4.528 4.048C4.528 4.34667 4.61333 4.58133 4.784 4.752C4.95467 4.92267 5.168 5.008 5.424 5.008ZM15.3398 12.256C14.5718 12.256 13.7931 12.1707 13.0038 12C12.2144 11.8293 11.5211 11.5787 10.9238 11.248L12.2038 8.464C12.6838 8.74133 13.1851 8.94933 13.7078 9.088C14.2304 9.216 14.7264 9.28 15.1958 9.28C15.6224 9.28 15.9744 9.20533 16.2518 9.056C16.5291 8.90667 16.6678 8.688 16.6678 8.4C16.6678 8.24 16.6198 8.10133 16.5238 7.984C16.4278 7.856 16.2571 7.76 16.0118 7.696C15.7771 7.632 15.4304 7.6 14.9718 7.6H11.7238L12.2838 0.799999H19.7238V3.648H13.6118L15.5158 2.032L15.1798 6.368L13.2758 4.752H15.8838C16.9931 4.752 17.8784 4.912 18.5398 5.232C19.2118 5.552 19.6971 5.984 19.9958 6.528C20.3051 7.06133 20.4598 7.65867 20.4598 8.32C20.4598 8.98133 20.2784 9.616 19.9158 10.224C19.5638 10.8213 19.0091 11.312 18.2518 11.696C17.5051 12.0693 16.5344 12.256 15.3398 12.256ZM26.286 12.256C25.294 12.256 24.414 12.0267 23.646 11.568C22.8887 11.1093 22.2913 10.4427 21.854 9.568C21.4273 8.69333 21.214 7.63733 21.214 6.4C21.214 5.16267 21.4273 4.10667 21.854 3.232C22.2913 2.35733 22.8887 1.69067 23.646 1.232C24.414 0.773333 25.294 0.544 26.286 0.544C27.278 0.544 28.1527 0.773333 28.91 1.232C29.678 1.69067 30.2753 2.35733 30.702 3.232C31.1393 4.10667 31.358 5.16267 31.358 6.4C31.358 7.63733 31.1393 8.69333 30.702 9.568C30.2753 10.4427 29.678 11.1093 28.91 11.568C28.1527 12.0267 27.278 12.256 26.286 12.256ZM26.286 9.232C26.5313 9.232 26.75 9.14667 26.942 8.976C27.134 8.80533 27.2833 8.512 27.39 8.096C27.5073 7.68 27.566 7.11467 27.566 6.4C27.566 5.67467 27.5073 5.10933 27.39 4.704C27.2833 4.288 27.134 3.99467 26.942 3.824C26.75 3.65333 26.5313 3.568 26.286 3.568C26.0407 3.568 25.822 3.65333 25.63 3.824C25.438 3.99467 25.2833 4.288 25.166 4.704C25.0593 5.10933 25.006 5.67467 25.006 6.4C25.006 7.11467 25.0593 7.68 25.166 8.096C25.2833 8.512 25.438 8.80533 25.63 8.976C25.822 9.14667 26.0407 9.232 26.286 9.232ZM41.649 12.16C40.4437 12.16 39.505 11.872 38.833 11.296C38.161 10.7093 37.825 9.81333 37.825 8.608V1.28H41.441V8.576C41.441 8.84267 41.5103 9.05067 41.649 9.2C41.7983 9.34933 41.9797 9.424 42.193 9.424C42.5023 9.424 42.7743 9.344 43.009 9.184L43.873 11.696C43.5957 11.856 43.2597 11.9733 42.865 12.048C42.481 12.1227 42.0757 12.16 41.649 12.16ZM36.625 6.368V3.728H43.233V6.368H36.625ZM49.382 12.16C48.3153 12.16 47.382 11.9627 46.582 11.568C45.7927 11.1733 45.1793 10.6347 44.742 9.952C44.3047 9.25867 44.086 8.48 44.086 7.616C44.086 6.73067 44.2993 5.94667 44.726 5.264C45.1633 4.58133 45.7553 4.048 46.502 3.664C47.2593 3.28 48.1073 3.088 49.046 3.088C49.91 3.088 50.7047 3.25867 51.43 3.6C52.166 3.94133 52.7527 4.448 53.19 5.12C53.638 5.792 53.862 6.624 53.862 7.616C53.862 7.744 53.8567 7.888 53.846 8.048C53.8353 8.19733 53.8247 8.336 53.814 8.464H47.078V6.72H51.894L50.534 7.184C50.534 6.84267 50.47 6.55467 50.342 6.32C50.2247 6.07467 50.0593 5.888 49.846 5.76C49.6327 5.62133 49.3767 5.552 49.078 5.552C48.7793 5.552 48.518 5.62133 48.294 5.76C48.0807 5.888 47.9153 6.07467 47.798 6.32C47.6807 6.55467 47.622 6.84267 47.622 7.184V7.728C47.622 8.10133 47.6967 8.42133 47.846 8.688C47.9953 8.95467 48.2087 9.15733 48.486 9.296C48.7633 9.424 49.0993 9.488 49.494 9.488C49.8993 9.488 50.23 9.43467 50.486 9.328C50.7527 9.22133 51.03 9.06133 51.318 8.848L53.206 10.752C52.7793 11.2107 52.2513 11.5627 51.622 11.808C51.0033 12.0427 50.2567 12.16 49.382 12.16ZM61.0831 3.088C61.7551 3.088 62.3631 3.22667 62.9071 3.504C63.4511 3.77067 63.8778 4.192 64.1871 4.768C64.5071 5.344 64.6671 6.09067 64.6671 7.008V12H61.0511V7.632C61.0511 7.088 60.9551 6.704 60.7631 6.48C60.5711 6.24533 60.3098 6.128 59.9791 6.128C59.7338 6.128 59.5045 6.18667 59.2911 6.304C59.0885 6.41067 58.9231 6.592 58.7951 6.848C58.6778 7.104 58.6191 7.45067 58.6191 7.888V12H55.0031V3.248H58.4431V5.808L57.7551 5.072C58.0965 4.41067 58.5551 3.91467 59.1311 3.584C59.7178 3.25333 60.3685 3.088 61.0831 3.088ZM70.8418 15.264C69.9778 15.264 69.1671 15.1733 68.4098 14.992C67.6524 14.8107 67.0018 14.5387 66.4578 14.176L67.6738 11.712C68.0151 11.9787 68.4471 12.1867 68.9698 12.336C69.5031 12.496 70.0044 12.576 70.4738 12.576C71.2204 12.576 71.7538 12.416 72.0738 12.096C72.3938 11.7867 72.5538 11.3387 72.5538 10.752V10.016L72.7138 7.296L72.7298 4.576V3.248H76.1698V10.256C76.1698 11.952 75.7004 13.2107 74.7618 14.032C73.8231 14.8533 72.5164 15.264 70.8418 15.264ZM70.1378 11.52C69.4018 11.52 68.7138 11.3493 68.0738 11.008C67.4338 10.656 66.9164 10.1653 66.5218 9.536C66.1271 8.90667 65.9298 8.16 65.9298 7.296C65.9298 6.432 66.1271 5.68533 66.5218 5.056C66.9164 4.42667 67.4338 3.94133 68.0738 3.6C68.7138 3.25867 69.4018 3.088 70.1378 3.088C70.8951 3.088 71.5138 3.23733 71.9938 3.536C72.4844 3.83467 72.8471 4.29867 73.0818 4.928C73.3164 5.54667 73.4338 6.336 73.4338 7.296C73.4338 8.256 73.3164 9.05067 73.0818 9.68C72.8471 10.2987 72.4844 10.7627 71.9938 11.072C71.5138 11.3707 70.8951 11.52 70.1378 11.52ZM71.0978 8.704C71.3858 8.704 71.6418 8.64533 71.8658 8.528C72.0898 8.41067 72.2658 8.24533 72.3938 8.032C72.5218 7.81867 72.5858 7.57333 72.5858 7.296C72.5858 7.008 72.5218 6.76267 72.3938 6.56C72.2658 6.34667 72.0898 6.18667 71.8658 6.08C71.6418 5.96267 71.3858 5.904 71.0978 5.904C70.8204 5.904 70.5644 5.96267 70.3298 6.08C70.1058 6.18667 69.9244 6.34667 69.7858 6.56C69.6578 6.76267 69.5938 7.008 69.5938 7.296C69.5938 7.57333 69.6578 7.81867 69.7858 8.032C69.9244 8.24533 70.1058 8.41067 70.3298 8.528C70.5644 8.64533 70.8204 8.704 71.0978 8.704ZM82.6008 12.16C81.5341 12.16 80.6008 11.9627 79.8008 11.568C79.0114 11.1733 78.3981 10.6347 77.9608 9.952C77.5234 9.25867 77.3048 8.48 77.3048 7.616C77.3048 6.73067 77.5181 5.94667 77.9448 5.264C78.3821 4.58133 78.9741 4.048 79.7208 3.664C80.4781 3.28 81.3261 3.088 82.2648 3.088C83.1288 3.088 83.9234 3.25867 84.6488 3.6C85.3848 3.94133 85.9714 4.448 86.4088 5.12C86.8568 5.792 87.0808 6.624 87.0808 7.616C87.0808 7.744 87.0754 7.888 87.0648 8.048C87.0541 8.19733 87.0434 8.336 87.0328 8.464H80.2968V6.72H85.1128L83.7528 7.184C83.7528 6.84267 83.6888 6.55467 83.5608 6.32C83.4434 6.07467 83.2781 5.888 83.0648 5.76C82.8514 5.62133 82.5954 5.552 82.2968 5.552C81.9981 5.552 81.7368 5.62133 81.5128 5.76C81.2994 5.888 81.1341 6.07467 81.0168 6.32C80.8994 6.55467 80.8408 6.84267 80.8408 7.184V7.728C80.8408 8.10133 80.9154 8.42133 81.0648 8.688C81.2141 8.95467 81.4274 9.15733 81.7048 9.296C81.9821 9.424 82.3181 9.488 82.7128 9.488C83.1181 9.488 83.4488 9.43467 83.7048 9.328C83.9714 9.22133 84.2488 9.06133 84.5368 8.848L86.4248 10.752C85.9981 11.2107 85.4701 11.5627 84.8408 11.808C84.2221 12.0427 83.4754 12.16 82.6008 12.16Z" fill="url(#paint0_linear_6_294)"/>
<defs>
<linearGradient id="paint0_linear_6_294" x1="59" y1="-4" x2="59" y2="27.5" gradientUnits="userSpaceOnUse">
<stop stop-color="#E82652"/>
<stop offset="1" stop-color="#E82652" stop-opacity="0"/>
</linearGradient>
</defs>
</svg>
