<svg width="87" height="16" viewBox="0 0 87 16" fill="none" xmlns="http://www.w3.org/2000/svg">
<path d="M1.448 12V9.68L5.496 5.936C5.752 5.69067 5.93867 5.47733 6.056 5.296C6.184 5.11467 6.26933 4.95467 6.312 4.816C6.35467 4.66667 6.376 4.528 6.376 4.4C6.376 4.12267 6.28533 3.90933 6.104 3.76C5.92267 3.6 5.65067 3.52 5.288 3.52C4.95733 3.52 4.64267 3.61067 4.344 3.792C4.04533 3.96267 3.81067 4.21867 3.64 4.56L0.792 3.136C1.19733 2.368 1.80533 1.744 2.616 1.264C3.42667 0.784 4.43467 0.544 5.64 0.544C6.52533 0.544 7.30933 0.688 7.992 0.976C8.67467 1.264 9.208 1.66933 9.592 2.192C9.976 2.71467 10.168 3.33333 10.168 4.048C10.168 4.41067 10.12 4.77333 10.024 5.136C9.93867 5.49867 9.75733 5.88267 9.48 6.288C9.20267 6.68267 8.792 7.12533 8.248 7.616L5.208 10.384L4.616 9.072H10.424V12H1.448ZM15.2304 12.256C14.4624 12.256 13.6837 12.1707 12.8944 12C12.105 11.8293 11.4117 11.5787 10.8144 11.248L12.0944 8.464C12.5744 8.74133 13.0757 8.94933 13.5984 9.088C14.121 9.216 14.617 9.28 15.0864 9.28C15.513 9.28 15.865 9.20533 16.1424 9.056C16.4197 8.90667 16.5584 8.688 16.5584 8.4C16.5584 8.24 16.5104 8.10133 16.4144 7.984C16.3184 7.856 16.1477 7.76 15.9024 7.696C15.6677 7.632 15.321 7.6 14.8624 7.6H11.6144L12.1744 0.799999H19.6144V3.648H13.5024L15.4064 2.032L15.0704 6.368L13.1664 4.752H15.7744C16.8837 4.752 17.769 4.912 18.4304 5.232C19.1024 5.552 19.5877 5.984 19.8864 6.528C20.1957 7.06133 20.3504 7.65867 20.3504 8.32C20.3504 8.98133 20.169 9.616 19.8064 10.224C19.4544 10.8213 18.8997 11.312 18.1424 11.696C17.3957 12.0693 16.425 12.256 15.2304 12.256ZM26.1766 12.256C25.1846 12.256 24.3046 12.0267 23.5366 11.568C22.7793 11.1093 22.182 10.4427 21.7446 9.568C21.318 8.69333 21.1046 7.63733 21.1046 6.4C21.1046 5.16267 21.318 4.10667 21.7446 3.232C22.182 2.35733 22.7793 1.69067 23.5366 1.232C24.3046 0.773333 25.1846 0.544 26.1766 0.544C27.1686 0.544 28.0433 0.773333 28.8006 1.232C29.5686 1.69067 30.166 2.35733 30.5926 3.232C31.03 4.10667 31.2486 5.16267 31.2486 6.4C31.2486 7.63733 31.03 8.69333 30.5926 9.568C30.166 10.4427 29.5686 11.1093 28.8006 11.568C28.0433 12.0267 27.1686 12.256 26.1766 12.256ZM26.1766 9.232C26.422 9.232 26.6406 9.14667 26.8326 8.976C27.0246 8.80533 27.174 8.512 27.2806 8.096C27.398 7.68 27.4566 7.11467 27.4566 6.4C27.4566 5.67467 27.398 5.10933 27.2806 4.704C27.174 4.288 27.0246 3.99467 26.8326 3.824C26.6406 3.65333 26.422 3.568 26.1766 3.568C25.9313 3.568 25.7126 3.65333 25.5206 3.824C25.3286 3.99467 25.174 4.288 25.0566 4.704C24.95 5.10933 24.8966 5.67467 24.8966 6.4C24.8966 7.11467 24.95 7.68 25.0566 8.096C25.174 8.512 25.3286 8.80533 25.5206 8.976C25.7126 9.14667 25.9313 9.232 26.1766 9.232ZM41.5396 12.16C40.3343 12.16 39.3956 11.872 38.7236 11.296C38.0516 10.7093 37.7156 9.81333 37.7156 8.608V1.28H41.3316V8.576C41.3316 8.84267 41.401 9.05067 41.5396 9.2C41.689 9.34933 41.8703 9.424 42.0836 9.424C42.393 9.424 42.665 9.344 42.8996 9.184L43.7636 11.696C43.4863 11.856 43.1503 11.9733 42.7556 12.048C42.3716 12.1227 41.9663 12.16 41.5396 12.16ZM36.5156 6.368V3.728H43.1236V6.368H36.5156ZM49.2726 12.16C48.206 12.16 47.2726 11.9627 46.4726 11.568C45.6833 11.1733 45.07 10.6347 44.6326 9.952C44.1953 9.25867 43.9766 8.48 43.9766 7.616C43.9766 6.73067 44.19 5.94667 44.6166 5.264C45.054 4.58133 45.646 4.048 46.3926 3.664C47.15 3.28 47.998 3.088 48.9366 3.088C49.8006 3.088 50.5953 3.25867 51.3206 3.6C52.0566 3.94133 52.6433 4.448 53.0806 5.12C53.5286 5.792 53.7526 6.624 53.7526 7.616C53.7526 7.744 53.7473 7.888 53.7366 8.048C53.726 8.19733 53.7153 8.336 53.7046 8.464H46.9686V6.72H51.7846L50.4246 7.184C50.4246 6.84267 50.3606 6.55467 50.2326 6.32C50.1153 6.07467 49.95 5.888 49.7366 5.76C49.5233 5.62133 49.2673 5.552 48.9686 5.552C48.67 5.552 48.4086 5.62133 48.1846 5.76C47.9713 5.888 47.806 6.07467 47.6886 6.32C47.5713 6.55467 47.5126 6.84267 47.5126 7.184V7.728C47.5126 8.10133 47.5873 8.42133 47.7366 8.688C47.886 8.95467 48.0993 9.15733 48.3766 9.296C48.654 9.424 48.99 9.488 49.3846 9.488C49.79 9.488 50.1206 9.43467 50.3766 9.328C50.6433 9.22133 50.9206 9.06133 51.2086 8.848L53.0966 10.752C52.67 11.2107 52.142 11.5627 51.5126 11.808C50.894 12.0427 50.1473 12.16 49.2726 12.16ZM60.9738 3.088C61.6458 3.088 62.2538 3.22667 62.7978 3.504C63.3418 3.77067 63.7684 4.192 64.0778 4.768C64.3978 5.344 64.5578 6.09067 64.5578 7.008V12H60.9418V7.632C60.9418 7.088 60.8458 6.704 60.6538 6.48C60.4618 6.24533 60.2004 6.128 59.8698 6.128C59.6244 6.128 59.3951 6.18667 59.1818 6.304C58.9791 6.41067 58.8138 6.592 58.6858 6.848C58.5684 7.104 58.5098 7.45067 58.5098 7.888V12H54.8938V3.248H58.3338V5.808L57.6458 5.072C57.9871 4.41067 58.4458 3.91467 59.0218 3.584C59.6084 3.25333 60.2591 3.088 60.9738 3.088ZM70.7324 15.264C69.8684 15.264 69.0577 15.1733 68.3004 14.992C67.543 14.8107 66.8924 14.5387 66.3484 14.176L67.5644 11.712C67.9057 11.9787 68.3377 12.1867 68.8604 12.336C69.3937 12.496 69.895 12.576 70.3644 12.576C71.111 12.576 71.6444 12.416 71.9644 12.096C72.2844 11.7867 72.4444 11.3387 72.4444 10.752V10.016L72.6044 7.296L72.6204 4.576V3.248H76.0604V10.256C76.0604 11.952 75.591 13.2107 74.6524 14.032C73.7137 14.8533 72.407 15.264 70.7324 15.264ZM70.0284 11.52C69.2924 11.52 68.6044 11.3493 67.9644 11.008C67.3244 10.656 66.807 10.1653 66.4124 9.536C66.0177 8.90667 65.8204 8.16 65.8204 7.296C65.8204 6.432 66.0177 5.68533 66.4124 5.056C66.807 4.42667 67.3244 3.94133 67.9644 3.6C68.6044 3.25867 69.2924 3.088 70.0284 3.088C70.7857 3.088 71.4044 3.23733 71.8844 3.536C72.375 3.83467 72.7377 4.29867 72.9724 4.928C73.207 5.54667 73.3244 6.336 73.3244 7.296C73.3244 8.256 73.207 9.05067 72.9724 9.68C72.7377 10.2987 72.375 10.7627 71.8844 11.072C71.4044 11.3707 70.7857 11.52 70.0284 11.52ZM70.9884 8.704C71.2764 8.704 71.5324 8.64533 71.7564 8.528C71.9804 8.41067 72.1564 8.24533 72.2844 8.032C72.4124 7.81867 72.4764 7.57333 72.4764 7.296C72.4764 7.008 72.4124 6.76267 72.2844 6.56C72.1564 6.34667 71.9804 6.18667 71.7564 6.08C71.5324 5.96267 71.2764 5.904 70.9884 5.904C70.711 5.904 70.455 5.96267 70.2204 6.08C69.9964 6.18667 69.815 6.34667 69.6764 6.56C69.5484 6.76267 69.4844 7.008 69.4844 7.296C69.4844 7.57333 69.5484 7.81867 69.6764 8.032C69.815 8.24533 69.9964 8.41067 70.2204 8.528C70.455 8.64533 70.711 8.704 70.9884 8.704ZM82.4914 12.16C81.4247 12.16 80.4914 11.9627 79.6914 11.568C78.902 11.1733 78.2887 10.6347 77.8514 9.952C77.414 9.25867 77.1954 8.48 77.1954 7.616C77.1954 6.73067 77.4087 5.94667 77.8354 5.264C78.2727 4.58133 78.8647 4.048 79.6114 3.664C80.3687 3.28 81.2167 3.088 82.1554 3.088C83.0194 3.088 83.814 3.25867 84.5394 3.6C85.2754 3.94133 85.862 4.448 86.2994 5.12C86.7474 5.792 86.9714 6.624 86.9714 7.616C86.9714 7.744 86.966 7.888 86.9554 8.048C86.9447 8.19733 86.934 8.336 86.9234 8.464H80.1874V6.72H85.0034L83.6434 7.184C83.6434 6.84267 83.5794 6.55467 83.4514 6.32C83.334 6.07467 83.1687 5.888 82.9554 5.76C82.742 5.62133 82.486 5.552 82.1874 5.552C81.8887 5.552 81.6274 5.62133 81.4034 5.76C81.19 5.888 81.0247 6.07467 80.9074 6.32C80.79 6.55467 80.7314 6.84267 80.7314 7.184V7.728C80.7314 8.10133 80.806 8.42133 80.9554 8.688C81.1047 8.95467 81.318 9.15733 81.5954 9.296C81.8727 9.424 82.2087 9.488 82.6034 9.488C83.0087 9.488 83.3394 9.43467 83.5954 9.328C83.862 9.22133 84.1394 9.06133 84.4274 8.848L86.3154 10.752C85.8887 11.2107 85.3607 11.5627 84.7314 11.808C84.1127 12.0427 83.366 12.16 82.4914 12.16Z" fill="url(#paint0_linear_6_294)"/>
<defs>
<linearGradient id="paint0_linear_6_294" x1="60" y1="-4" x2="60" y2="27.5" gradientUnits="userSpaceOnUse">
<stop stop-color="#E82652"/>
<stop offset="1" stop-color="#E82652" stop-opacity="0"/>
</linearGradient>
</defs>
</svg>
