<svg width="88" height="16" viewBox="0 0 88 16" fill="none" xmlns="http://www.w3.org/2000/svg">
<path d="M4.736 0.544C5.80267 0.544 6.736 0.752 7.536 1.168C8.34667 1.57333 8.976 2.18133 9.424 2.992C9.88267 3.80267 10.112 4.82133 10.112 6.048C10.112 7.36 9.85067 8.48 9.328 9.408C8.80533 10.3253 8.08 11.0293 7.152 11.52C6.224 12.0107 5.14133 12.256 3.904 12.256C3.24267 12.256 2.60267 12.176 1.984 12.016C1.376 11.8667 0.858667 11.6533 0.432 11.376L1.792 8.736C2.12267 8.97067 2.45333 9.13067 2.784 9.216C3.12533 9.29067 3.472 9.328 3.824 9.328C4.58133 9.328 5.184 9.104 5.632 8.656C6.09067 8.19733 6.32 7.536 6.32 6.672C6.32 6.512 6.32 6.35733 6.32 6.208C6.32 6.048 6.32 5.888 6.32 5.728L7.184 6.352C6.98133 6.71467 6.73067 7.024 6.432 7.28C6.144 7.52533 5.80267 7.71733 5.408 7.856C5.01333 7.984 4.55467 8.048 4.032 8.048C3.34933 8.048 2.71467 7.904 2.128 7.616C1.552 7.31733 1.08267 6.90133 0.72 6.368C0.368 5.824 0.192 5.18933 0.192 4.464C0.192 3.664 0.394667 2.97067 0.8 2.384C1.20533 1.79733 1.74933 1.344 2.432 1.024C3.12533 0.704 3.89333 0.544 4.736 0.544ZM4.992 3.152C4.768 3.152 4.57067 3.2 4.4 3.296C4.22933 3.38133 4.09067 3.50933 3.984 3.68C3.888 3.85067 3.84 4.05333 3.84 4.288C3.84 4.64 3.94667 4.92267 4.16 5.136C4.384 5.33867 4.66133 5.44 4.992 5.44C5.216 5.44 5.41333 5.392 5.584 5.296C5.76533 5.2 5.904 5.06667 6 4.896C6.096 4.72533 6.144 4.52267 6.144 4.288C6.144 4.05333 6.096 3.85067 6 3.68C5.904 3.50933 5.76533 3.38133 5.584 3.296C5.41333 3.2 5.216 3.152 4.992 3.152ZM16.1141 12.256C15.1221 12.256 14.2421 12.0267 13.4741 11.568C12.7168 11.1093 12.1195 10.4427 11.6821 9.568C11.2555 8.69333 11.0421 7.63733 11.0421 6.4C11.0421 5.16267 11.2555 4.10667 11.6821 3.232C12.1195 2.35733 12.7168 1.69067 13.4741 1.232C14.2421 0.773333 15.1221 0.544 16.1141 0.544C17.1061 0.544 17.9808 0.773333 18.7381 1.232C19.5061 1.69067 20.1035 2.35733 20.5301 3.232C20.9675 4.10667 21.1861 5.16267 21.1861 6.4C21.1861 7.63733 20.9675 8.69333 20.5301 9.568C20.1035 10.4427 19.5061 11.1093 18.7381 11.568C17.9808 12.0267 17.1061 12.256 16.1141 12.256ZM16.1141 9.232C16.3595 9.232 16.5781 9.14667 16.7701 8.976C16.9621 8.80533 17.1115 8.512 17.2181 8.096C17.3355 7.68 17.3941 7.11467 17.3941 6.4C17.3941 5.67467 17.3355 5.10933 17.2181 4.704C17.1115 4.288 16.9621 3.99467 16.7701 3.824C16.5781 3.65333 16.3595 3.568 16.1141 3.568C15.8688 3.568 15.6501 3.65333 15.4581 3.824C15.2661 3.99467 15.1115 4.288 14.9941 4.704C14.8875 5.10933 14.8341 5.67467 14.8341 6.4C14.8341 7.11467 14.8875 7.68 14.9941 8.096C15.1115 8.512 15.2661 8.80533 15.4581 8.976C15.6501 9.14667 15.8688 9.232 16.1141 9.232ZM27.1923 12.256C26.2003 12.256 25.3203 12.0267 24.5523 11.568C23.7949 11.1093 23.1976 10.4427 22.7603 9.568C22.3336 8.69333 22.1203 7.63733 22.1203 6.4C22.1203 5.16267 22.3336 4.10667 22.7603 3.232C23.1976 2.35733 23.7949 1.69067 24.5523 1.232C25.3203 0.773333 26.2003 0.544 27.1923 0.544C28.1843 0.544 29.0589 0.773333 29.8163 1.232C30.5843 1.69067 31.1816 2.35733 31.6083 3.232C32.0456 4.10667 32.2643 5.16267 32.2643 6.4C32.2643 7.63733 32.0456 8.69333 31.6083 9.568C31.1816 10.4427 30.5843 11.1093 29.8163 11.568C29.0589 12.0267 28.1843 12.256 27.1923 12.256ZM27.1923 9.232C27.4376 9.232 27.6563 9.14667 27.8483 8.976C28.0403 8.80533 28.1896 8.512 28.2963 8.096C28.4136 7.68 28.4723 7.11467 28.4723 6.4C28.4723 5.67467 28.4136 5.10933 28.2963 4.704C28.1896 4.288 28.0403 3.99467 27.8483 3.824C27.6563 3.65333 27.4376 3.568 27.1923 3.568C26.9469 3.568 26.7283 3.65333 26.5363 3.824C26.3443 3.99467 26.1896 4.288 26.0723 4.704C25.9656 5.10933 25.9123 5.67467 25.9123 6.4C25.9123 7.11467 25.9656 7.68 26.0723 8.096C26.1896 8.512 26.3443 8.80533 26.5363 8.976C26.7283 9.14667 26.9469 9.232 27.1923 9.232ZM42.5553 12.16C41.3499 12.16 40.4113 11.872 39.7393 11.296C39.0673 10.7093 38.7313 9.81333 38.7313 8.608V1.28H42.3473V8.576C42.3473 8.84267 42.4166 9.05067 42.5553 9.2C42.7046 9.34933 42.8859 9.424 43.0993 9.424C43.4086 9.424 43.6806 9.344 43.9153 9.184L44.7793 11.696C44.5019 11.856 44.1659 11.9733 43.7713 12.048C43.3873 12.1227 42.9819 12.16 42.5553 12.16ZM37.5312 6.368V3.728H44.1393V6.368H37.5312ZM50.2883 12.16C49.2216 12.16 48.2883 11.9627 47.4883 11.568C46.6989 11.1733 46.0856 10.6347 45.6483 9.952C45.2109 9.25867 44.9923 8.48 44.9923 7.616C44.9923 6.73067 45.2056 5.94667 45.6323 5.264C46.0696 4.58133 46.6616 4.048 47.4083 3.664C48.1656 3.28 49.0136 3.088 49.9523 3.088C50.8163 3.088 51.6109 3.25867 52.3363 3.6C53.0723 3.94133 53.6589 4.448 54.0963 5.12C54.5443 5.792 54.7683 6.624 54.7683 7.616C54.7683 7.744 54.7629 7.888 54.7523 8.048C54.7416 8.19733 54.7309 8.336 54.7203 8.464H47.9843V6.72H52.8003L51.4403 7.184C51.4403 6.84267 51.3763 6.55467 51.2483 6.32C51.1309 6.07467 50.9656 5.888 50.7523 5.76C50.5389 5.62133 50.2829 5.552 49.9843 5.552C49.6856 5.552 49.4243 5.62133 49.2003 5.76C48.9869 5.888 48.8216 6.07467 48.7043 6.32C48.5869 6.55467 48.5283 6.84267 48.5283 7.184V7.728C48.5283 8.10133 48.6029 8.42133 48.7523 8.688C48.9016 8.95467 49.1149 9.15733 49.3923 9.296C49.6696 9.424 50.0056 9.488 50.4003 9.488C50.8056 9.488 51.1363 9.43467 51.3923 9.328C51.6589 9.22133 51.9363 9.06133 52.2243 8.848L54.1123 10.752C53.6856 11.2107 53.1576 11.5627 52.5283 11.808C51.9096 12.0427 51.1629 12.16 50.2883 12.16ZM61.9894 3.088C62.6614 3.088 63.2694 3.22667 63.8134 3.504C64.3574 3.77067 64.784 4.192 65.0934 4.768C65.4134 5.344 65.5734 6.09067 65.5734 7.008V12H61.9574V7.632C61.9574 7.088 61.8614 6.704 61.6694 6.48C61.4774 6.24533 61.216 6.128 60.8854 6.128C60.64 6.128 60.4107 6.18667 60.1974 6.304C59.9947 6.41067 59.8294 6.592 59.7014 6.848C59.584 7.104 59.5254 7.45067 59.5254 7.888V12H55.9094V3.248H59.3494V5.808L58.6614 5.072C59.0027 4.41067 59.4614 3.91467 60.0374 3.584C60.624 3.25333 61.2747 3.088 61.9894 3.088ZM71.748 15.264C70.884 15.264 70.0733 15.1733 69.316 14.992C68.5587 14.8107 67.908 14.5387 67.364 14.176L68.58 11.712C68.9213 11.9787 69.3533 12.1867 69.876 12.336C70.4093 12.496 70.9107 12.576 71.38 12.576C72.1267 12.576 72.66 12.416 72.98 12.096C73.3 11.7867 73.46 11.3387 73.46 10.752V10.016L73.62 7.296L73.636 4.576V3.248H77.076V10.256C77.076 11.952 76.6067 13.2107 75.668 14.032C74.7293 14.8533 73.4227 15.264 71.748 15.264ZM71.044 11.52C70.308 11.52 69.62 11.3493 68.98 11.008C68.34 10.656 67.8227 10.1653 67.428 9.536C67.0333 8.90667 66.836 8.16 66.836 7.296C66.836 6.432 67.0333 5.68533 67.428 5.056C67.8227 4.42667 68.34 3.94133 68.98 3.6C69.62 3.25867 70.308 3.088 71.044 3.088C71.8013 3.088 72.42 3.23733 72.9 3.536C73.3907 3.83467 73.7533 4.29867 73.988 4.928C74.2227 5.54667 74.34 6.336 74.34 7.296C74.34 8.256 74.2227 9.05067 73.988 9.68C73.7533 10.2987 73.3907 10.7627 72.9 11.072C72.42 11.3707 71.8013 11.52 71.044 11.52ZM72.004 8.704C72.292 8.704 72.548 8.64533 72.772 8.528C72.996 8.41067 73.172 8.24533 73.3 8.032C73.428 7.81867 73.492 7.57333 73.492 7.296C73.492 7.008 73.428 6.76267 73.3 6.56C73.172 6.34667 72.996 6.18667 72.772 6.08C72.548 5.96267 72.292 5.904 72.004 5.904C71.7267 5.904 71.4707 5.96267 71.236 6.08C71.012 6.18667 70.8307 6.34667 70.692 6.56C70.564 6.76267 70.5 7.008 70.5 7.296C70.5 7.57333 70.564 7.81867 70.692 8.032C70.8307 8.24533 71.012 8.41067 71.236 8.528C71.4707 8.64533 71.7267 8.704 72.004 8.704ZM83.507 12.16C82.4403 12.16 81.507 11.9627 80.707 11.568C79.9177 11.1733 79.3043 10.6347 78.867 9.952C78.4297 9.25867 78.211 8.48 78.211 7.616C78.211 6.73067 78.4243 5.94667 78.851 5.264C79.2883 4.58133 79.8803 4.048 80.627 3.664C81.3843 3.28 82.2323 3.088 83.171 3.088C84.035 3.088 84.8297 3.25867 85.555 3.6C86.291 3.94133 86.8777 4.448 87.315 5.12C87.763 5.792 87.987 6.624 87.987 7.616C87.987 7.744 87.9817 7.888 87.971 8.048C87.9603 8.19733 87.9497 8.336 87.939 8.464H81.203V6.72H86.019L84.659 7.184C84.659 6.84267 84.595 6.55467 84.467 6.32C84.3497 6.07467 84.1843 5.888 83.971 5.76C83.7577 5.62133 83.5017 5.552 83.203 5.552C82.9043 5.552 82.643 5.62133 82.419 5.76C82.2057 5.888 82.0403 6.07467 81.923 6.32C81.8057 6.55467 81.747 6.84267 81.747 7.184V7.728C81.747 8.10133 81.8217 8.42133 81.971 8.688C82.1203 8.95467 82.3337 9.15733 82.611 9.296C82.8883 9.424 83.2243 9.488 83.619 9.488C84.0243 9.488 84.355 9.43467 84.611 9.328C84.8777 9.22133 85.155 9.06133 85.443 8.848L87.331 10.752C86.9043 11.2107 86.3763 11.5627 85.747 11.808C85.1283 12.0427 84.3817 12.16 83.507 12.16Z" fill="url(#paint0_linear_6_294)"/>
<defs>
<linearGradient id="paint0_linear_6_294" x1="59" y1="-4" x2="59" y2="27.5" gradientUnits="userSpaceOnUse">
<stop stop-color="#E82652"/>
<stop offset="1" stop-color="#E82652" stop-opacity="0"/>
</linearGradient>
</defs>
</svg>
