<svg width="87" height="16" viewBox="0 0 87 16" fill="none" xmlns="http://www.w3.org/2000/svg">
<path d="M2.064 12L6.288 2.144L7.296 3.728H1.984L3.456 2.016V5.36H0.336V0.799999H9.92V3.12L6.192 12H2.064ZM14.5741 12.256C13.8061 12.256 13.0275 12.1707 12.2381 12C11.4488 11.8293 10.7555 11.5787 10.1581 11.248L11.4381 8.464C11.9181 8.74133 12.4195 8.94933 12.9421 9.088C13.4648 9.216 13.9608 9.28 14.4301 9.28C14.8568 9.28 15.2088 9.20533 15.4861 9.056C15.7635 8.90667 15.9021 8.688 15.9021 8.4C15.9021 8.24 15.8541 8.10133 15.7581 7.984C15.6621 7.856 15.4915 7.76 15.2461 7.696C15.0115 7.632 14.6648 7.6 14.2061 7.6H10.9581L11.5181 0.799999H18.9581V3.648H12.8461L14.7501 2.032L14.4141 6.368L12.5101 4.752H15.1181C16.2275 4.752 17.1128 4.912 17.7741 5.232C18.4461 5.552 18.9315 5.984 19.2301 6.528C19.5395 7.06133 19.6941 7.65867 19.6941 8.32C19.6941 8.98133 19.5128 9.616 19.1501 10.224C18.7981 10.8213 18.2435 11.312 17.4861 11.696C16.7395 12.0693 15.7688 12.256 14.5741 12.256ZM25.5204 12.256C24.5284 12.256 23.6484 12.0267 22.8804 11.568C22.123 11.1093 21.5257 10.4427 21.0884 9.568C20.6617 8.69333 20.4484 7.63733 20.4484 6.4C20.4484 5.16267 20.6617 4.10667 21.0884 3.232C21.5257 2.35733 22.123 1.69067 22.8804 1.232C23.6484 0.773333 24.5284 0.544 25.5204 0.544C26.5124 0.544 27.387 0.773333 28.1444 1.232C28.9124 1.69067 29.5097 2.35733 29.9364 3.232C30.3737 4.10667 30.5924 5.16267 30.5924 6.4C30.5924 7.63733 30.3737 8.69333 29.9364 9.568C29.5097 10.4427 28.9124 11.1093 28.1444 11.568C27.387 12.0267 26.5124 12.256 25.5204 12.256ZM25.5204 9.232C25.7657 9.232 25.9844 9.14667 26.1764 8.976C26.3684 8.80533 26.5177 8.512 26.6244 8.096C26.7417 7.68 26.8004 7.11467 26.8004 6.4C26.8004 5.67467 26.7417 5.10933 26.6244 4.704C26.5177 4.288 26.3684 3.99467 26.1764 3.824C25.9844 3.65333 25.7657 3.568 25.5204 3.568C25.275 3.568 25.0564 3.65333 24.8644 3.824C24.6724 3.99467 24.5177 4.288 24.4004 4.704C24.2937 5.10933 24.2404 5.67467 24.2404 6.4C24.2404 7.11467 24.2937 7.68 24.4004 8.096C24.5177 8.512 24.6724 8.80533 24.8644 8.976C25.0564 9.14667 25.275 9.232 25.5204 9.232ZM40.8834 12.16C39.678 12.16 38.7394 11.872 38.0674 11.296C37.3954 10.7093 37.0594 9.81333 37.0594 8.608V1.28H40.6754V8.576C40.6754 8.84267 40.7447 9.05067 40.8834 9.2C41.0327 9.34933 41.214 9.424 41.4274 9.424C41.7367 9.424 42.0087 9.344 42.2434 9.184L43.1074 11.696C42.83 11.856 42.494 11.9733 42.0994 12.048C41.7154 12.1227 41.31 12.16 40.8834 12.16ZM35.8594 6.368V3.728H42.4674V6.368H35.8594ZM48.6164 12.16C47.5497 12.16 46.6164 11.9627 45.8164 11.568C45.027 11.1733 44.4137 10.6347 43.9764 9.952C43.539 9.25867 43.3204 8.48 43.3204 7.616C43.3204 6.73067 43.5337 5.94667 43.9604 5.264C44.3977 4.58133 44.9897 4.048 45.7364 3.664C46.4937 3.28 47.3417 3.088 48.2804 3.088C49.1444 3.088 49.939 3.25867 50.6644 3.6C51.4004 3.94133 51.987 4.448 52.4244 5.12C52.8724 5.792 53.0964 6.624 53.0964 7.616C53.0964 7.744 53.091 7.888 53.0804 8.048C53.0697 8.19733 53.059 8.336 53.0484 8.464H46.3124V6.72H51.1284L49.7684 7.184C49.7684 6.84267 49.7044 6.55467 49.5764 6.32C49.459 6.07467 49.2937 5.888 49.0804 5.76C48.867 5.62133 48.611 5.552 48.3124 5.552C48.0137 5.552 47.7524 5.62133 47.5284 5.76C47.315 5.888 47.1497 6.07467 47.0324 6.32C46.915 6.55467 46.8564 6.84267 46.8564 7.184V7.728C46.8564 8.10133 46.931 8.42133 47.0804 8.688C47.2297 8.95467 47.443 9.15733 47.7204 9.296C47.9977 9.424 48.3337 9.488 48.7284 9.488C49.1337 9.488 49.4644 9.43467 49.7204 9.328C49.987 9.22133 50.2644 9.06133 50.5524 8.848L52.4404 10.752C52.0137 11.2107 51.4857 11.5627 50.8564 11.808C50.2377 12.0427 49.491 12.16 48.6164 12.16ZM60.3175 3.088C60.9895 3.088 61.5975 3.22667 62.1415 3.504C62.6855 3.77067 63.1122 4.192 63.4215 4.768C63.7415 5.344 63.9015 6.09067 63.9015 7.008V12H60.2855V7.632C60.2855 7.088 60.1895 6.704 59.9975 6.48C59.8055 6.24533 59.5442 6.128 59.2135 6.128C58.9682 6.128 58.7388 6.18667 58.5255 6.304C58.3228 6.41067 58.1575 6.592 58.0295 6.848C57.9122 7.104 57.8535 7.45067 57.8535 7.888V12H54.2375V3.248H57.6775V5.808L56.9895 5.072C57.3308 4.41067 57.7895 3.91467 58.3655 3.584C58.9522 3.25333 59.6028 3.088 60.3175 3.088ZM70.0761 15.264C69.2121 15.264 68.4015 15.1733 67.6441 14.992C66.8868 14.8107 66.2361 14.5387 65.6921 14.176L66.9081 11.712C67.2495 11.9787 67.6815 12.1867 68.2041 12.336C68.7375 12.496 69.2388 12.576 69.7081 12.576C70.4548 12.576 70.9881 12.416 71.3081 12.096C71.6281 11.7867 71.7881 11.3387 71.7881 10.752V10.016L71.9481 7.296L71.9641 4.576V3.248H75.4041V10.256C75.4041 11.952 74.9348 13.2107 73.9961 14.032C73.0575 14.8533 71.7508 15.264 70.0761 15.264ZM69.3721 11.52C68.6361 11.52 67.9481 11.3493 67.3081 11.008C66.6681 10.656 66.1508 10.1653 65.7561 9.536C65.3615 8.90667 65.1641 8.16 65.1641 7.296C65.1641 6.432 65.3615 5.68533 65.7561 5.056C66.1508 4.42667 66.6681 3.94133 67.3081 3.6C67.9481 3.25867 68.6361 3.088 69.3721 3.088C70.1295 3.088 70.7481 3.23733 71.2281 3.536C71.7188 3.83467 72.0815 4.29867 72.3161 4.928C72.5508 5.54667 72.6681 6.336 72.6681 7.296C72.6681 8.256 72.5508 9.05067 72.3161 9.68C72.0815 10.2987 71.7188 10.7627 71.2281 11.072C70.7481 11.3707 70.1295 11.52 69.3721 11.52ZM70.3321 8.704C70.6201 8.704 70.8761 8.64533 71.1001 8.528C71.3241 8.41067 71.5001 8.24533 71.6281 8.032C71.7561 7.81867 71.8201 7.57333 71.8201 7.296C71.8201 7.008 71.7561 6.76267 71.6281 6.56C71.5001 6.34667 71.3241 6.18667 71.1001 6.08C70.8761 5.96267 70.6201 5.904 70.3321 5.904C70.0548 5.904 69.7988 5.96267 69.5641 6.08C69.3401 6.18667 69.1588 6.34667 69.0201 6.56C68.8921 6.76267 68.8281 7.008 68.8281 7.296C68.8281 7.57333 68.8921 7.81867 69.0201 8.032C69.1588 8.24533 69.3401 8.41067 69.5641 8.528C69.7988 8.64533 70.0548 8.704 70.3321 8.704ZM81.8351 12.16C80.7685 12.16 79.8351 11.9627 79.0351 11.568C78.2458 11.1733 77.6325 10.6347 77.1951 9.952C76.7578 9.25867 76.5391 8.48 76.5391 7.616C76.5391 6.73067 76.7525 5.94667 77.1791 5.264C77.6165 4.58133 78.2085 4.048 78.9551 3.664C79.7125 3.28 80.5605 3.088 81.4991 3.088C82.3631 3.088 83.1578 3.25867 83.8831 3.6C84.6191 3.94133 85.2058 4.448 85.6431 5.12C86.0911 5.792 86.3151 6.624 86.3151 7.616C86.3151 7.744 86.3098 7.888 86.2991 8.048C86.2885 8.19733 86.2778 8.336 86.2671 8.464H79.5311V6.72H84.3471L82.9871 7.184C82.9871 6.84267 82.9231 6.55467 82.7951 6.32C82.6778 6.07467 82.5125 5.888 82.2991 5.76C82.0858 5.62133 81.8298 5.552 81.5311 5.552C81.2325 5.552 80.9711 5.62133 80.7471 5.76C80.5338 5.888 80.3685 6.07467 80.2511 6.32C80.1338 6.55467 80.0751 6.84267 80.0751 7.184V7.728C80.0751 8.10133 80.1498 8.42133 80.2991 8.688C80.4485 8.95467 80.6618 9.15733 80.9391 9.296C81.2165 9.424 81.5525 9.488 81.9471 9.488C82.3525 9.488 82.6831 9.43467 82.9391 9.328C83.2058 9.22133 83.4831 9.06133 83.7711 8.848L85.6591 10.752C85.2325 11.2107 84.7045 11.5627 84.0751 11.808C83.4565 12.0427 82.7098 12.16 81.8351 12.16Z" fill="url(#paint0_linear_6_294)"/>
<defs>
<linearGradient id="paint0_linear_6_294" x1="59" y1="-4" x2="59" y2="27.5" gradientUnits="userSpaceOnUse">
<stop stop-color="#E82652"/>
<stop offset="1" stop-color="#E82652" stop-opacity="0"/>
</linearGradient>
</defs>
</svg>
