<svg width="89" height="16" viewBox="0 0 89 16" fill="none" xmlns="http://www.w3.org/2000/svg">
<path d="M0.368 10.08V7.68L5.12 0.799999H8.992L4.416 7.68L2.656 7.152H11.328V10.08H0.368ZM6.176 12V10.08L6.288 7.152V5.44H9.84V12H6.176ZM16.1266 0.544C17.1933 0.544 18.1266 0.752 18.9266 1.168C19.7373 1.57333 20.3666 2.18133 20.8146 2.992C21.2733 3.80267 21.5026 4.82133 21.5026 6.048C21.5026 7.36 21.2413 8.48 20.7186 9.408C20.196 10.3253 19.4706 11.0293 18.5426 11.52C17.6146 12.0107 16.532 12.256 15.2946 12.256C14.6333 12.256 13.9933 12.176 13.3746 12.016C12.7666 11.8667 12.2493 11.6533 11.8226 11.376L13.1826 8.736C13.5133 8.97067 13.844 9.13067 14.1746 9.216C14.516 9.29067 14.8626 9.328 15.2146 9.328C15.972 9.328 16.5746 9.104 17.0226 8.656C17.4813 8.19733 17.7106 7.536 17.7106 6.672C17.7106 6.512 17.7106 6.35733 17.7106 6.208C17.7106 6.048 17.7106 5.888 17.7106 5.728L18.5746 6.352C18.372 6.71467 18.1213 7.024 17.8226 7.28C17.5346 7.52533 17.1933 7.71733 16.7986 7.856C16.404 7.984 15.9453 8.048 15.4226 8.048C14.74 8.048 14.1053 7.904 13.5186 7.616C12.9426 7.31733 12.4733 6.90133 12.1106 6.368C11.7586 5.824 11.5826 5.18933 11.5826 4.464C11.5826 3.664 11.7853 2.97067 12.1906 2.384C12.596 1.79733 13.14 1.344 13.8226 1.024C14.516 0.704 15.284 0.544 16.1266 0.544ZM16.3826 3.152C16.1586 3.152 15.9613 3.2 15.7906 3.296C15.62 3.38133 15.4813 3.50933 15.3746 3.68C15.2786 3.85067 15.2306 4.05333 15.2306 4.288C15.2306 4.64 15.3373 4.92267 15.5506 5.136C15.7746 5.33867 16.052 5.44 16.3826 5.44C16.6066 5.44 16.804 5.392 16.9746 5.296C17.156 5.2 17.2946 5.06667 17.3906 4.896C17.4866 4.72533 17.5346 4.52267 17.5346 4.288C17.5346 4.05333 17.4866 3.85067 17.3906 3.68C17.2946 3.50933 17.156 3.38133 16.9746 3.296C16.804 3.2 16.6066 3.152 16.3826 3.152ZM27.5048 12.256C26.5128 12.256 25.6328 12.0267 24.8648 11.568C24.1074 11.1093 23.5101 10.4427 23.0728 9.568C22.6461 8.69333 22.4328 7.63733 22.4328 6.4C22.4328 5.16267 22.6461 4.10667 23.0728 3.232C23.5101 2.35733 24.1074 1.69067 24.8648 1.232C25.6328 0.773333 26.5128 0.544 27.5048 0.544C28.4968 0.544 29.3714 0.773333 30.1288 1.232C30.8968 1.69067 31.4941 2.35733 31.9208 3.232C32.3581 4.10667 32.5768 5.16267 32.5768 6.4C32.5768 7.63733 32.3581 8.69333 31.9208 9.568C31.4941 10.4427 30.8968 11.1093 30.1288 11.568C29.3714 12.0267 28.4968 12.256 27.5048 12.256ZM27.5048 9.232C27.7501 9.232 27.9688 9.14667 28.1608 8.976C28.3528 8.80533 28.5021 8.512 28.6088 8.096C28.7261 7.68 28.7848 7.11467 28.7848 6.4C28.7848 5.67467 28.7261 5.10933 28.6088 4.704C28.5021 4.288 28.3528 3.99467 28.1608 3.824C27.9688 3.65333 27.7501 3.568 27.5048 3.568C27.2594 3.568 27.0408 3.65333 26.8488 3.824C26.6568 3.99467 26.5021 4.288 26.3848 4.704C26.2781 5.10933 26.2248 5.67467 26.2248 6.4C26.2248 7.11467 26.2781 7.68 26.3848 8.096C26.5021 8.512 26.6568 8.80533 26.8488 8.976C27.0408 9.14667 27.2594 9.232 27.5048 9.232ZM42.8678 12.16C41.6624 12.16 40.7238 11.872 40.0518 11.296C39.3798 10.7093 39.0438 9.81333 39.0438 8.608V1.28H42.6598V8.576C42.6598 8.84267 42.7291 9.05067 42.8678 9.2C43.0171 9.34933 43.1984 9.424 43.4118 9.424C43.7211 9.424 43.9931 9.344 44.2278 9.184L45.0918 11.696C44.8144 11.856 44.4784 11.9733 44.0838 12.048C43.6998 12.1227 43.2944 12.16 42.8678 12.16ZM37.8438 6.368V3.728H44.4518V6.368H37.8438ZM50.6008 12.16C49.5341 12.16 48.6008 11.9627 47.8008 11.568C47.0114 11.1733 46.3981 10.6347 45.9608 9.952C45.5234 9.25867 45.3048 8.48 45.3048 7.616C45.3048 6.73067 45.5181 5.94667 45.9448 5.264C46.3821 4.58133 46.9741 4.048 47.7208 3.664C48.4781 3.28 49.3261 3.088 50.2648 3.088C51.1288 3.088 51.9234 3.25867 52.6488 3.6C53.3848 3.94133 53.9714 4.448 54.4088 5.12C54.8568 5.792 55.0808 6.624 55.0808 7.616C55.0808 7.744 55.0754 7.888 55.0648 8.048C55.0541 8.19733 55.0434 8.336 55.0328 8.464H48.2968V6.72H53.1128L51.7528 7.184C51.7528 6.84267 51.6888 6.55467 51.5608 6.32C51.4434 6.07467 51.2781 5.888 51.0648 5.76C50.8514 5.62133 50.5954 5.552 50.2968 5.552C49.9981 5.552 49.7368 5.62133 49.5128 5.76C49.2994 5.888 49.1341 6.07467 49.0168 6.32C48.8994 6.55467 48.8408 6.84267 48.8408 7.184V7.728C48.8408 8.10133 48.9154 8.42133 49.0648 8.688C49.2141 8.95467 49.4274 9.15733 49.7048 9.296C49.9821 9.424 50.3181 9.488 50.7128 9.488C51.1181 9.488 51.4488 9.43467 51.7048 9.328C51.9714 9.22133 52.2488 9.06133 52.5368 8.848L54.4248 10.752C53.9981 11.2107 53.4701 11.5627 52.8408 11.808C52.2221 12.0427 51.4754 12.16 50.6008 12.16ZM62.3019 3.088C62.9739 3.088 63.5819 3.22667 64.1259 3.504C64.6699 3.77067 65.0965 4.192 65.4059 4.768C65.7259 5.344 65.8859 6.09067 65.8859 7.008V12H62.2699V7.632C62.2699 7.088 62.1739 6.704 61.9819 6.48C61.7899 6.24533 61.5285 6.128 61.1979 6.128C60.9525 6.128 60.7232 6.18667 60.5099 6.304C60.3072 6.41067 60.1419 6.592 60.0139 6.848C59.8965 7.104 59.8379 7.45067 59.8379 7.888V12H56.2219V3.248H59.6619V5.808L58.9739 5.072C59.3152 4.41067 59.7739 3.91467 60.3499 3.584C60.9365 3.25333 61.5872 3.088 62.3019 3.088ZM72.0605 15.264C71.1965 15.264 70.3858 15.1733 69.6285 14.992C68.8712 14.8107 68.2205 14.5387 67.6765 14.176L68.8925 11.712C69.2338 11.9787 69.6658 12.1867 70.1885 12.336C70.7218 12.496 71.2232 12.576 71.6925 12.576C72.4392 12.576 72.9725 12.416 73.2925 12.096C73.6125 11.7867 73.7725 11.3387 73.7725 10.752V10.016L73.9325 7.296L73.9485 4.576V3.248H77.3885V10.256C77.3885 11.952 76.9192 13.2107 75.9805 14.032C75.0418 14.8533 73.7352 15.264 72.0605 15.264ZM71.3565 11.52C70.6205 11.52 69.9325 11.3493 69.2925 11.008C68.6525 10.656 68.1352 10.1653 67.7405 9.536C67.3458 8.90667 67.1485 8.16 67.1485 7.296C67.1485 6.432 67.3458 5.68533 67.7405 5.056C68.1352 4.42667 68.6525 3.94133 69.2925 3.6C69.9325 3.25867 70.6205 3.088 71.3565 3.088C72.1138 3.088 72.7325 3.23733 73.2125 3.536C73.7032 3.83467 74.0658 4.29867 74.3005 4.928C74.5352 5.54667 74.6525 6.336 74.6525 7.296C74.6525 8.256 74.5352 9.05067 74.3005 9.68C74.0658 10.2987 73.7032 10.7627 73.2125 11.072C72.7325 11.3707 72.1138 11.52 71.3565 11.52ZM72.3165 8.704C72.6045 8.704 72.8605 8.64533 73.0845 8.528C73.3085 8.41067 73.4845 8.24533 73.6125 8.032C73.7405 7.81867 73.8045 7.57333 73.8045 7.296C73.8045 7.008 73.7405 6.76267 73.6125 6.56C73.4845 6.34667 73.3085 6.18667 73.0845 6.08C72.8605 5.96267 72.6045 5.904 72.3165 5.904C72.0392 5.904 71.7832 5.96267 71.5485 6.08C71.3245 6.18667 71.1432 6.34667 71.0045 6.56C70.8765 6.76267 70.8125 7.008 70.8125 7.296C70.8125 7.57333 70.8765 7.81867 71.0045 8.032C71.1432 8.24533 71.3245 8.41067 71.5485 8.528C71.7832 8.64533 72.0392 8.704 72.3165 8.704ZM83.8195 12.16C82.7528 12.16 81.8195 11.9627 81.0195 11.568C80.2302 11.1733 79.6168 10.6347 79.1795 9.952C78.7422 9.25867 78.5235 8.48 78.5235 7.616C78.5235 6.73067 78.7368 5.94667 79.1635 5.264C79.6008 4.58133 80.1928 4.048 80.9395 3.664C81.6968 3.28 82.5448 3.088 83.4835 3.088C84.3475 3.088 85.1422 3.25867 85.8675 3.6C86.6035 3.94133 87.1902 4.448 87.6275 5.12C88.0755 5.792 88.2995 6.624 88.2995 7.616C88.2995 7.744 88.2942 7.888 88.2835 8.048C88.2728 8.19733 88.2622 8.336 88.2515 8.464H81.5155V6.72H86.3315L84.9715 7.184C84.9715 6.84267 84.9075 6.55467 84.7795 6.32C84.6622 6.07467 84.4968 5.888 84.2835 5.76C84.0702 5.62133 83.8142 5.552 83.5155 5.552C83.2168 5.552 82.9555 5.62133 82.7315 5.76C82.5182 5.888 82.3528 6.07467 82.2355 6.32C82.1182 6.55467 82.0595 6.84267 82.0595 7.184V7.728C82.0595 8.10133 82.1342 8.42133 82.2835 8.688C82.4328 8.95467 82.6462 9.15733 82.9235 9.296C83.2008 9.424 83.5368 9.488 83.9315 9.488C84.3368 9.488 84.6675 9.43467 84.9235 9.328C85.1902 9.22133 85.4675 9.06133 85.7555 8.848L87.6435 10.752C87.2168 11.2107 86.6888 11.5627 86.0595 11.808C85.4408 12.0427 84.6942 12.16 83.8195 12.16Z" fill="url(#paint0_linear_6_294)"/>
<defs>
<linearGradient id="paint0_linear_6_294" x1="59" y1="-4" x2="59" y2="27.5" gradientUnits="userSpaceOnUse">
<stop stop-color="#E82652"/>
<stop offset="1" stop-color="#E82652" stop-opacity="0"/>
</linearGradient>
</defs>
</svg>
