<svg width="84" height="16" viewBox="0 0 84 16" fill="none" xmlns="http://www.w3.org/2000/svg">
<path d="M2.064 12L6.288 2.144L7.296 3.728H1.984L3.456 2.016V5.36H0.336V0.799999H9.92V3.12L6.192 12H2.064ZM12.4688 12V2.112L14.0848 3.648H10.5488V0.799999H16.2448V12H12.4688ZM22.6923 12.256C21.7003 12.256 20.8203 12.0267 20.0523 11.568C19.2949 11.1093 18.6976 10.4427 18.2603 9.568C17.8336 8.69333 17.6203 7.63733 17.6203 6.4C17.6203 5.16267 17.8336 4.10667 18.2603 3.232C18.6976 2.35733 19.2949 1.69067 20.0523 1.232C20.8203 0.773333 21.7003 0.544 22.6923 0.544C23.6843 0.544 24.5589 0.773333 25.3163 1.232C26.0843 1.69067 26.6816 2.35733 27.1083 3.232C27.5456 4.10667 27.7643 5.16267 27.7643 6.4C27.7643 7.63733 27.5456 8.69333 27.1083 9.568C26.6816 10.4427 26.0843 11.1093 25.3163 11.568C24.5589 12.0267 23.6843 12.256 22.6923 12.256ZM22.6923 9.232C22.9376 9.232 23.1563 9.14667 23.3483 8.976C23.5403 8.80533 23.6896 8.512 23.7963 8.096C23.9136 7.68 23.9723 7.11467 23.9723 6.4C23.9723 5.67467 23.9136 5.10933 23.7963 4.704C23.6896 4.288 23.5403 3.99467 23.3483 3.824C23.1563 3.65333 22.9376 3.568 22.6923 3.568C22.4469 3.568 22.2283 3.65333 22.0363 3.824C21.8443 3.99467 21.6896 4.288 21.5723 4.704C21.4656 5.10933 21.4123 5.67467 21.4123 6.4C21.4123 7.11467 21.4656 7.68 21.5723 8.096C21.6896 8.512 21.8443 8.80533 22.0363 8.976C22.2283 9.14667 22.4469 9.232 22.6923 9.232ZM38.0553 12.16C36.8499 12.16 35.9113 11.872 35.2393 11.296C34.5673 10.7093 34.2313 9.81333 34.2313 8.608V1.28H37.8473V8.576C37.8473 8.84267 37.9166 9.05067 38.0553 9.2C38.2046 9.34933 38.3859 9.424 38.5993 9.424C38.9086 9.424 39.1806 9.344 39.4153 9.184L40.2793 11.696C40.0019 11.856 39.6659 11.9733 39.2713 12.048C38.8873 12.1227 38.4819 12.16 38.0553 12.16ZM33.0312 6.368V3.728H39.6393V6.368H33.0312ZM45.7883 12.16C44.7216 12.16 43.7883 11.9627 42.9883 11.568C42.1989 11.1733 41.5856 10.6347 41.1483 9.952C40.7109 9.25867 40.4923 8.48 40.4923 7.616C40.4923 6.73067 40.7056 5.94667 41.1323 5.264C41.5696 4.58133 42.1616 4.048 42.9083 3.664C43.6656 3.28 44.5136 3.088 45.4523 3.088C46.3163 3.088 47.1109 3.25867 47.8363 3.6C48.5723 3.94133 49.1589 4.448 49.5963 5.12C50.0443 5.792 50.2683 6.624 50.2683 7.616C50.2683 7.744 50.2629 7.888 50.2523 8.048C50.2416 8.19733 50.2309 8.336 50.2203 8.464H43.4843V6.72H48.3003L46.9403 7.184C46.9403 6.84267 46.8763 6.55467 46.7483 6.32C46.6309 6.07467 46.4656 5.888 46.2523 5.76C46.0389 5.62133 45.7829 5.552 45.4843 5.552C45.1856 5.552 44.9243 5.62133 44.7003 5.76C44.4869 5.888 44.3216 6.07467 44.2043 6.32C44.0869 6.55467 44.0283 6.84267 44.0283 7.184V7.728C44.0283 8.10133 44.1029 8.42133 44.2523 8.688C44.4016 8.95467 44.6149 9.15733 44.8923 9.296C45.1696 9.424 45.5056 9.488 45.9003 9.488C46.3056 9.488 46.6363 9.43467 46.8923 9.328C47.1589 9.22133 47.4363 9.06133 47.7243 8.848L49.6123 10.752C49.1856 11.2107 48.6576 11.5627 48.0283 11.808C47.4096 12.0427 46.6629 12.16 45.7883 12.16ZM57.4894 3.088C58.1614 3.088 58.7694 3.22667 59.3134 3.504C59.8574 3.77067 60.284 4.192 60.5934 4.768C60.9134 5.344 61.0734 6.09067 61.0734 7.008V12H57.4574V7.632C57.4574 7.088 57.3614 6.704 57.1694 6.48C56.9774 6.24533 56.716 6.128 56.3854 6.128C56.14 6.128 55.9107 6.18667 55.6974 6.304C55.4947 6.41067 55.3294 6.592 55.2014 6.848C55.084 7.104 55.0254 7.45067 55.0254 7.888V12H51.4094V3.248H54.8494V5.808L54.1614 5.072C54.5027 4.41067 54.9614 3.91467 55.5374 3.584C56.124 3.25333 56.7747 3.088 57.4894 3.088ZM67.248 15.264C66.384 15.264 65.5733 15.1733 64.816 14.992C64.0587 14.8107 63.408 14.5387 62.864 14.176L64.08 11.712C64.4213 11.9787 64.8533 12.1867 65.376 12.336C65.9093 12.496 66.4107 12.576 66.88 12.576C67.6267 12.576 68.16 12.416 68.48 12.096C68.8 11.7867 68.96 11.3387 68.96 10.752V10.016L69.12 7.296L69.136 4.576V3.248H72.576V10.256C72.576 11.952 72.1067 13.2107 71.168 14.032C70.2293 14.8533 68.9227 15.264 67.248 15.264ZM66.544 11.52C65.808 11.52 65.12 11.3493 64.48 11.008C63.84 10.656 63.3227 10.1653 62.928 9.536C62.5333 8.90667 62.336 8.16 62.336 7.296C62.336 6.432 62.5333 5.68533 62.928 5.056C63.3227 4.42667 63.84 3.94133 64.48 3.6C65.12 3.25867 65.808 3.088 66.544 3.088C67.3013 3.088 67.92 3.23733 68.4 3.536C68.8907 3.83467 69.2533 4.29867 69.488 4.928C69.7227 5.54667 69.84 6.336 69.84 7.296C69.84 8.256 69.7227 9.05067 69.488 9.68C69.2533 10.2987 68.8907 10.7627 68.4 11.072C67.92 11.3707 67.3013 11.52 66.544 11.52ZM67.504 8.704C67.792 8.704 68.048 8.64533 68.272 8.528C68.496 8.41067 68.672 8.24533 68.8 8.032C68.928 7.81867 68.992 7.57333 68.992 7.296C68.992 7.008 68.928 6.76267 68.8 6.56C68.672 6.34667 68.496 6.18667 68.272 6.08C68.048 5.96267 67.792 5.904 67.504 5.904C67.2267 5.904 66.9707 5.96267 66.736 6.08C66.512 6.18667 66.3307 6.34667 66.192 6.56C66.064 6.76267 66 7.008 66 7.296C66 7.57333 66.064 7.81867 66.192 8.032C66.3307 8.24533 66.512 8.41067 66.736 8.528C66.9707 8.64533 67.2267 8.704 67.504 8.704ZM79.007 12.16C77.9403 12.16 77.007 11.9627 76.207 11.568C75.4177 11.1733 74.8043 10.6347 74.367 9.952C73.9297 9.25867 73.711 8.48 73.711 7.616C73.711 6.73067 73.9243 5.94667 74.351 5.264C74.7883 4.58133 75.3803 4.048 76.127 3.664C76.8843 3.28 77.7323 3.088 78.671 3.088C79.535 3.088 80.3297 3.25867 81.055 3.6C81.791 3.94133 82.3777 4.448 82.815 5.12C83.263 5.792 83.487 6.624 83.487 7.616C83.487 7.744 83.4817 7.888 83.471 8.048C83.4603 8.19733 83.4497 8.336 83.439 8.464H76.703V6.72H81.519L80.159 7.184C80.159 6.84267 80.095 6.55467 79.967 6.32C79.8497 6.07467 79.6843 5.888 79.471 5.76C79.2577 5.62133 79.0017 5.552 78.703 5.552C78.4043 5.552 78.143 5.62133 77.919 5.76C77.7057 5.888 77.5403 6.07467 77.423 6.32C77.3057 6.55467 77.247 6.84267 77.247 7.184V7.728C77.247 8.10133 77.3217 8.42133 77.471 8.688C77.6203 8.95467 77.8337 9.15733 78.111 9.296C78.3883 9.424 78.7243 9.488 79.119 9.488C79.5243 9.488 79.855 9.43467 80.111 9.328C80.3777 9.22133 80.655 9.06133 80.943 8.848L82.831 10.752C82.4043 11.2107 81.8763 11.5627 81.247 11.808C80.6283 12.0427 79.8817 12.16 79.007 12.16Z" fill="url(#paint0_linear_6_294)"/>
<defs>
<linearGradient id="paint0_linear_6_294" x1="59" y1="-4" x2="59" y2="27.5" gradientUnits="userSpaceOnUse">
<stop stop-color="#E82652"/>
<stop offset="1" stop-color="#E82652" stop-opacity="0"/>
</linearGradient>
</defs>
</svg>
