<svg width="88" height="16" viewBox="0 0 88 16" fill="none" xmlns="http://www.w3.org/2000/svg">
<path d="M1.448 12V9.68L5.496 5.936C5.752 5.69067 5.93867 5.47733 6.056 5.296C6.184 5.11467 6.26933 4.95467 6.312 4.816C6.35467 4.66667 6.376 4.528 6.376 4.4C6.376 4.12267 6.28533 3.90933 6.104 3.76C5.92267 3.6 5.65067 3.52 5.288 3.52C4.95733 3.52 4.64267 3.61067 4.344 3.792C4.04533 3.96267 3.81067 4.21867 3.64 4.56L0.792 3.136C1.19733 2.368 1.80533 1.744 2.616 1.264C3.42667 0.784 4.43467 0.544 5.64 0.544C6.52533 0.544 7.30933 0.688 7.992 0.976C8.67467 1.264 9.208 1.66933 9.592 2.192C9.976 2.71467 10.168 3.33333 10.168 4.048C10.168 4.41067 10.12 4.77333 10.024 5.136C9.93867 5.49867 9.75733 5.88267 9.48 6.288C9.20267 6.68267 8.792 7.12533 8.248 7.616L5.208 10.384L4.616 9.072H10.424V12H1.448ZM15.4704 0.544C16.537 0.544 17.4704 0.752 18.2704 1.168C19.081 1.57333 19.7104 2.18133 20.1584 2.992C20.617 3.80267 20.8464 4.82133 20.8464 6.048C20.8464 7.36 20.585 8.48 20.0624 9.408C19.5397 10.3253 18.8144 11.0293 17.8864 11.52C16.9584 12.0107 15.8757 12.256 14.6384 12.256C13.977 12.256 13.337 12.176 12.7184 12.016C12.1104 11.8667 11.593 11.6533 11.1664 11.376L12.5264 8.736C12.857 8.97067 13.1877 9.13067 13.5184 9.216C13.8597 9.29067 14.2064 9.328 14.5584 9.328C15.3157 9.328 15.9184 9.104 16.3664 8.656C16.825 8.19733 17.0544 7.536 17.0544 6.672C17.0544 6.512 17.0544 6.35733 17.0544 6.208C17.0544 6.048 17.0544 5.888 17.0544 5.728L17.9184 6.352C17.7157 6.71467 17.465 7.024 17.1664 7.28C16.8784 7.52533 16.537 7.71733 16.1424 7.856C15.7477 7.984 15.289 8.048 14.7664 8.048C14.0837 8.048 13.449 7.904 12.8624 7.616C12.2864 7.31733 11.817 6.90133 11.4544 6.368C11.1024 5.824 10.9264 5.18933 10.9264 4.464C10.9264 3.664 11.129 2.97067 11.5344 2.384C11.9397 1.79733 12.4837 1.344 13.1664 1.024C13.8597 0.704 14.6277 0.544 15.4704 0.544ZM15.7264 3.152C15.5024 3.152 15.305 3.2 15.1344 3.296C14.9637 3.38133 14.825 3.50933 14.7184 3.68C14.6224 3.85067 14.5744 4.05333 14.5744 4.288C14.5744 4.64 14.681 4.92267 14.8944 5.136C15.1184 5.33867 15.3957 5.44 15.7264 5.44C15.9504 5.44 16.1477 5.392 16.3184 5.296C16.4997 5.2 16.6384 5.06667 16.7344 4.896C16.8304 4.72533 16.8784 4.52267 16.8784 4.288C16.8784 4.05333 16.8304 3.85067 16.7344 3.68C16.6384 3.50933 16.4997 3.38133 16.3184 3.296C16.1477 3.2 15.9504 3.152 15.7264 3.152ZM26.8485 12.256C25.8565 12.256 24.9765 12.0267 24.2085 11.568C23.4512 11.1093 22.8538 10.4427 22.4165 9.568C21.9898 8.69333 21.7765 7.63733 21.7765 6.4C21.7765 5.16267 21.9898 4.10667 22.4165 3.232C22.8538 2.35733 23.4512 1.69067 24.2085 1.232C24.9765 0.773333 25.8565 0.544 26.8485 0.544C27.8405 0.544 28.7152 0.773333 29.4725 1.232C30.2405 1.69067 30.8378 2.35733 31.2645 3.232C31.7018 4.10667 31.9205 5.16267 31.9205 6.4C31.9205 7.63733 31.7018 8.69333 31.2645 9.568C30.8378 10.4427 30.2405 11.1093 29.4725 11.568C28.7152 12.0267 27.8405 12.256 26.8485 12.256ZM26.8485 9.232C27.0938 9.232 27.3125 9.14667 27.5045 8.976C27.6965 8.80533 27.8458 8.512 27.9525 8.096C28.0698 7.68 28.1285 7.11467 28.1285 6.4C28.1285 5.67467 28.0698 5.10933 27.9525 4.704C27.8458 4.288 27.6965 3.99467 27.5045 3.824C27.3125 3.65333 27.0938 3.568 26.8485 3.568C26.6032 3.568 26.3845 3.65333 26.1925 3.824C26.0005 3.99467 25.8458 4.288 25.7285 4.704C25.6218 5.10933 25.5685 5.67467 25.5685 6.4C25.5685 7.11467 25.6218 7.68 25.7285 8.096C25.8458 8.512 26.0005 8.80533 26.1925 8.976C26.3845 9.14667 26.6032 9.232 26.8485 9.232ZM42.2115 12.16C41.0062 12.16 40.0675 11.872 39.3955 11.296C38.7235 10.7093 38.3875 9.81333 38.3875 8.608V1.28H42.0035V8.576C42.0035 8.84267 42.0728 9.05067 42.2115 9.2C42.3608 9.34933 42.5422 9.424 42.7555 9.424C43.0648 9.424 43.3368 9.344 43.5715 9.184L44.4355 11.696C44.1582 11.856 43.8222 11.9733 43.4275 12.048C43.0435 12.1227 42.6382 12.16 42.2115 12.16ZM37.1875 6.368V3.728H43.7955V6.368H37.1875ZM49.9445 12.16C48.8778 12.16 47.9445 11.9627 47.1445 11.568C46.3552 11.1733 45.7418 10.6347 45.3045 9.952C44.8672 9.25867 44.6485 8.48 44.6485 7.616C44.6485 6.73067 44.8618 5.94667 45.2885 5.264C45.7258 4.58133 46.3178 4.048 47.0645 3.664C47.8218 3.28 48.6698 3.088 49.6085 3.088C50.4725 3.088 51.2672 3.25867 51.9925 3.6C52.7285 3.94133 53.3152 4.448 53.7525 5.12C54.2005 5.792 54.4245 6.624 54.4245 7.616C54.4245 7.744 54.4192 7.888 54.4085 8.048C54.3978 8.19733 54.3872 8.336 54.3765 8.464H47.6405V6.72H52.4565L51.0965 7.184C51.0965 6.84267 51.0325 6.55467 50.9045 6.32C50.7872 6.07467 50.6218 5.888 50.4085 5.76C50.1952 5.62133 49.9392 5.552 49.6405 5.552C49.3418 5.552 49.0805 5.62133 48.8565 5.76C48.6432 5.888 48.4778 6.07467 48.3605 6.32C48.2432 6.55467 48.1845 6.84267 48.1845 7.184V7.728C48.1845 8.10133 48.2592 8.42133 48.4085 8.688C48.5578 8.95467 48.7712 9.15733 49.0485 9.296C49.3258 9.424 49.6618 9.488 50.0565 9.488C50.4618 9.488 50.7925 9.43467 51.0485 9.328C51.3152 9.22133 51.5925 9.06133 51.8805 8.848L53.7685 10.752C53.3418 11.2107 52.8138 11.5627 52.1845 11.808C51.5658 12.0427 50.8192 12.16 49.9445 12.16ZM61.6456 3.088C62.3176 3.088 62.9256 3.22667 63.4696 3.504C64.0136 3.77067 64.4403 4.192 64.7496 4.768C65.0696 5.344 65.2296 6.09067 65.2296 7.008V12H61.6136V7.632C61.6136 7.088 61.5176 6.704 61.3256 6.48C61.1336 6.24533 60.8723 6.128 60.5416 6.128C60.2963 6.128 60.067 6.18667 59.8536 6.304C59.651 6.41067 59.4856 6.592 59.3576 6.848C59.2403 7.104 59.1816 7.45067 59.1816 7.888V12H55.5656V3.248H59.0056V5.808L58.3176 5.072C58.659 4.41067 59.1176 3.91467 59.6936 3.584C60.2803 3.25333 60.931 3.088 61.6456 3.088ZM71.4043 15.264C70.5403 15.264 69.7296 15.1733 68.9723 14.992C68.2149 14.8107 67.5643 14.5387 67.0203 14.176L68.2363 11.712C68.5776 11.9787 69.0096 12.1867 69.5323 12.336C70.0656 12.496 70.5669 12.576 71.0363 12.576C71.7829 12.576 72.3163 12.416 72.6363 12.096C72.9563 11.7867 73.1163 11.3387 73.1163 10.752V10.016L73.2763 7.296L73.2923 4.576V3.248H76.7323V10.256C76.7323 11.952 76.2629 13.2107 75.3243 14.032C74.3856 14.8533 73.0789 15.264 71.4043 15.264ZM70.7003 11.52C69.9643 11.52 69.2763 11.3493 68.6363 11.008C67.9963 10.656 67.4789 10.1653 67.0843 9.536C66.6896 8.90667 66.4923 8.16 66.4923 7.296C66.4923 6.432 66.6896 5.68533 67.0843 5.056C67.4789 4.42667 67.9963 3.94133 68.6363 3.6C69.2763 3.25867 69.9643 3.088 70.7003 3.088C71.4576 3.088 72.0763 3.23733 72.5563 3.536C73.0469 3.83467 73.4096 4.29867 73.6443 4.928C73.8789 5.54667 73.9963 6.336 73.9963 7.296C73.9963 8.256 73.8789 9.05067 73.6443 9.68C73.4096 10.2987 73.0469 10.7627 72.5563 11.072C72.0763 11.3707 71.4576 11.52 70.7003 11.52ZM71.6603 8.704C71.9483 8.704 72.2043 8.64533 72.4283 8.528C72.6523 8.41067 72.8283 8.24533 72.9563 8.032C73.0843 7.81867 73.1483 7.57333 73.1483 7.296C73.1483 7.008 73.0843 6.76267 72.9563 6.56C72.8283 6.34667 72.6523 6.18667 72.4283 6.08C72.2043 5.96267 71.9483 5.904 71.6603 5.904C71.3829 5.904 71.1269 5.96267 70.8923 6.08C70.6683 6.18667 70.4869 6.34667 70.3483 6.56C70.2203 6.76267 70.1562 7.008 70.1562 7.296C70.1562 7.57333 70.2203 7.81867 70.3483 8.032C70.4869 8.24533 70.6683 8.41067 70.8923 8.528C71.1269 8.64533 71.3829 8.704 71.6603 8.704ZM83.1633 12.16C82.0966 12.16 81.1633 11.9627 80.3633 11.568C79.5739 11.1733 78.9606 10.6347 78.5233 9.952C78.0859 9.25867 77.8673 8.48 77.8673 7.616C77.8673 6.73067 78.0806 5.94667 78.5073 5.264C78.9446 4.58133 79.5366 4.048 80.2833 3.664C81.0406 3.28 81.8886 3.088 82.8273 3.088C83.6913 3.088 84.4859 3.25867 85.2113 3.6C85.9473 3.94133 86.5339 4.448 86.9713 5.12C87.4193 5.792 87.6433 6.624 87.6433 7.616C87.6433 7.744 87.6379 7.888 87.6273 8.048C87.6166 8.19733 87.6059 8.336 87.5953 8.464H80.8593V6.72H85.6753L84.3153 7.184C84.3153 6.84267 84.2513 6.55467 84.1233 6.32C84.0059 6.07467 83.8406 5.888 83.6273 5.76C83.4139 5.62133 83.1579 5.552 82.8593 5.552C82.5606 5.552 82.2993 5.62133 82.0753 5.76C81.8619 5.888 81.6966 6.07467 81.5793 6.32C81.4619 6.55467 81.4033 6.84267 81.4033 7.184V7.728C81.4033 8.10133 81.4779 8.42133 81.6273 8.688C81.7766 8.95467 81.9899 9.15733 82.2673 9.296C82.5446 9.424 82.8806 9.488 83.2753 9.488C83.6806 9.488 84.0113 9.43467 84.2673 9.328C84.5339 9.22133 84.8113 9.06133 85.0993 8.848L86.9873 10.752C86.5606 11.2107 86.0326 11.5627 85.4033 11.808C84.7846 12.0427 84.0379 12.16 83.1633 12.16Z" fill="url(#paint0_linear_6_294)"/>
<defs>
<linearGradient id="paint0_linear_6_294" x1="60" y1="-4" x2="60" y2="27.5" gradientUnits="userSpaceOnUse">
<stop stop-color="#E82652"/>
<stop offset="1" stop-color="#E82652" stop-opacity="0"/>
</linearGradient>
</defs>
</svg>
