<svg width="87" height="16" viewBox="0 0 87 16" fill="none" xmlns="http://www.w3.org/2000/svg">
<path d="M5.84 12.256C4.77333 12.256 3.83467 12.0533 3.024 11.648C2.224 11.232 1.59467 10.6187 1.136 9.808C0.688 8.98667 0.464 7.968 0.464 6.752C0.464 5.44 0.725333 4.32533 1.248 3.408C1.77067 2.48 2.496 1.77067 3.424 1.28C4.36267 0.789333 5.44533 0.544 6.672 0.544C7.33333 0.544 7.968 0.624 8.576 0.783999C9.19467 0.933333 9.71733 1.14667 10.144 1.424L8.784 4.064C8.45333 3.82933 8.11733 3.67467 7.776 3.6C7.44533 3.51467 7.104 3.472 6.752 3.472C5.99467 3.472 5.38667 3.70133 4.928 4.16C4.48 4.608 4.256 5.264 4.256 6.128C4.256 6.288 4.256 6.448 4.256 6.608C4.256 6.75733 4.256 6.912 4.256 7.072L3.392 6.448C3.60533 6.08533 3.856 5.78133 4.144 5.536C4.432 5.28 4.77333 5.088 5.168 4.96C5.56267 4.82133 6.02133 4.752 6.544 4.752C7.22667 4.752 7.856 4.90133 8.432 5.2C9.01867 5.488 9.488 5.89867 9.84 6.432C10.2027 6.96533 10.384 7.6 10.384 8.336C10.384 9.136 10.1813 9.82933 9.776 10.416C9.37067 11.0027 8.82133 11.456 8.128 11.776C7.44533 12.096 6.68267 12.256 5.84 12.256ZM5.584 9.648C5.808 9.648 6.00533 9.60533 6.176 9.52C6.35733 9.424 6.496 9.29067 6.592 9.12C6.688 8.94933 6.736 8.74667 6.736 8.512C6.736 8.16 6.62933 7.88267 6.416 7.68C6.20267 7.46667 5.92533 7.36 5.584 7.36C5.36 7.36 5.16267 7.408 4.992 7.504C4.82133 7.6 4.68267 7.73333 4.576 7.904C4.48 8.07467 4.432 8.27733 4.432 8.512C4.432 8.74667 4.48 8.94933 4.576 9.12C4.68267 9.29067 4.82133 9.424 4.992 9.52C5.16267 9.60533 5.36 9.648 5.584 9.648ZM15.0741 12.256C14.3061 12.256 13.5275 12.1707 12.7381 12C11.9488 11.8293 11.2555 11.5787 10.6581 11.248L11.9381 8.464C12.4181 8.74133 12.9195 8.94933 13.4421 9.088C13.9648 9.216 14.4608 9.28 14.9301 9.28C15.3568 9.28 15.7088 9.20533 15.9861 9.056C16.2635 8.90667 16.4021 8.688 16.4021 8.4C16.4021 8.24 16.3541 8.10133 16.2581 7.984C16.1621 7.856 15.9915 7.76 15.7461 7.696C15.5115 7.632 15.1648 7.6 14.7061 7.6H11.4581L12.0181 0.799999H19.4581V3.648H13.3461L15.2501 2.032L14.9141 6.368L13.0101 4.752H15.6181C16.7275 4.752 17.6128 4.912 18.2741 5.232C18.9461 5.552 19.4315 5.984 19.7301 6.528C20.0395 7.06133 20.1941 7.65867 20.1941 8.32C20.1941 8.98133 20.0128 9.616 19.6501 10.224C19.2981 10.8213 18.7435 11.312 17.9861 11.696C17.2395 12.0693 16.2688 12.256 15.0741 12.256ZM26.0204 12.256C25.0284 12.256 24.1484 12.0267 23.3804 11.568C22.623 11.1093 22.0257 10.4427 21.5884 9.568C21.1617 8.69333 20.9484 7.63733 20.9484 6.4C20.9484 5.16267 21.1617 4.10667 21.5884 3.232C22.0257 2.35733 22.623 1.69067 23.3804 1.232C24.1484 0.773333 25.0284 0.544 26.0204 0.544C27.0124 0.544 27.887 0.773333 28.6444 1.232C29.4124 1.69067 30.0097 2.35733 30.4364 3.232C30.8737 4.10667 31.0924 5.16267 31.0924 6.4C31.0924 7.63733 30.8737 8.69333 30.4364 9.568C30.0097 10.4427 29.4124 11.1093 28.6444 11.568C27.887 12.0267 27.0124 12.256 26.0204 12.256ZM26.0204 9.232C26.2657 9.232 26.4844 9.14667 26.6764 8.976C26.8684 8.80533 27.0177 8.512 27.1244 8.096C27.2417 7.68 27.3004 7.11467 27.3004 6.4C27.3004 5.67467 27.2417 5.10933 27.1244 4.704C27.0177 4.288 26.8684 3.99467 26.6764 3.824C26.4844 3.65333 26.2657 3.568 26.0204 3.568C25.775 3.568 25.5564 3.65333 25.3644 3.824C25.1724 3.99467 25.0177 4.288 24.9004 4.704C24.7937 5.10933 24.7404 5.67467 24.7404 6.4C24.7404 7.11467 24.7937 7.68 24.9004 8.096C25.0177 8.512 25.1724 8.80533 25.3644 8.976C25.5564 9.14667 25.775 9.232 26.0204 9.232ZM41.3834 12.16C40.178 12.16 39.2394 11.872 38.5674 11.296C37.8954 10.7093 37.5594 9.81333 37.5594 8.608V1.28H41.1754V8.576C41.1754 8.84267 41.2447 9.05067 41.3834 9.2C41.5327 9.34933 41.714 9.424 41.9274 9.424C42.2367 9.424 42.5087 9.344 42.7434 9.184L43.6074 11.696C43.33 11.856 42.994 11.9733 42.5994 12.048C42.2154 12.1227 41.81 12.16 41.3834 12.16ZM36.3594 6.368V3.728H42.9674V6.368H36.3594ZM49.1164 12.16C48.0497 12.16 47.1164 11.9627 46.3164 11.568C45.527 11.1733 44.9137 10.6347 44.4764 9.952C44.039 9.25867 43.8204 8.48 43.8204 7.616C43.8204 6.73067 44.0337 5.94667 44.4604 5.264C44.8977 4.58133 45.4897 4.048 46.2364 3.664C46.9937 3.28 47.8417 3.088 48.7804 3.088C49.6444 3.088 50.439 3.25867 51.1644 3.6C51.9004 3.94133 52.487 4.448 52.9244 5.12C53.3724 5.792 53.5964 6.624 53.5964 7.616C53.5964 7.744 53.591 7.888 53.5804 8.048C53.5697 8.19733 53.559 8.336 53.5484 8.464H46.8124V6.72H51.6284L50.2684 7.184C50.2684 6.84267 50.2044 6.55467 50.0764 6.32C49.959 6.07467 49.7937 5.888 49.5804 5.76C49.367 5.62133 49.111 5.552 48.8124 5.552C48.5137 5.552 48.2524 5.62133 48.0284 5.76C47.815 5.888 47.6497 6.07467 47.5324 6.32C47.415 6.55467 47.3564 6.84267 47.3564 7.184V7.728C47.3564 8.10133 47.431 8.42133 47.5804 8.688C47.7297 8.95467 47.943 9.15733 48.2204 9.296C48.4977 9.424 48.8337 9.488 49.2284 9.488C49.6337 9.488 49.9644 9.43467 50.2204 9.328C50.487 9.22133 50.7644 9.06133 51.0524 8.848L52.9404 10.752C52.5137 11.2107 51.9857 11.5627 51.3564 11.808C50.7377 12.0427 49.991 12.16 49.1164 12.16ZM60.8175 3.088C61.4895 3.088 62.0975 3.22667 62.6415 3.504C63.1855 3.77067 63.6122 4.192 63.9215 4.768C64.2415 5.344 64.4015 6.09067 64.4015 7.008V12H60.7855V7.632C60.7855 7.088 60.6895 6.704 60.4975 6.48C60.3055 6.24533 60.0442 6.128 59.7135 6.128C59.4682 6.128 59.2388 6.18667 59.0255 6.304C58.8228 6.41067 58.6575 6.592 58.5295 6.848C58.4122 7.104 58.3535 7.45067 58.3535 7.888V12H54.7375V3.248H58.1775V5.808L57.4895 5.072C57.8308 4.41067 58.2895 3.91467 58.8655 3.584C59.4522 3.25333 60.1028 3.088 60.8175 3.088ZM70.5761 15.264C69.7121 15.264 68.9015 15.1733 68.1441 14.992C67.3868 14.8107 66.7361 14.5387 66.1921 14.176L67.4081 11.712C67.7495 11.9787 68.1815 12.1867 68.7041 12.336C69.2375 12.496 69.7388 12.576 70.2081 12.576C70.9548 12.576 71.4881 12.416 71.8081 12.096C72.1281 11.7867 72.2881 11.3387 72.2881 10.752V10.016L72.4481 7.296L72.4641 4.576V3.248H75.9041V10.256C75.9041 11.952 75.4348 13.2107 74.4961 14.032C73.5575 14.8533 72.2508 15.264 70.5761 15.264ZM69.8721 11.52C69.1361 11.52 68.4481 11.3493 67.8081 11.008C67.1681 10.656 66.6508 10.1653 66.2561 9.536C65.8615 8.90667 65.6641 8.16 65.6641 7.296C65.6641 6.432 65.8615 5.68533 66.2561 5.056C66.6508 4.42667 67.1681 3.94133 67.8081 3.6C68.4481 3.25867 69.1361 3.088 69.8721 3.088C70.6295 3.088 71.2481 3.23733 71.7281 3.536C72.2188 3.83467 72.5815 4.29867 72.8161 4.928C73.0508 5.54667 73.1681 6.336 73.1681 7.296C73.1681 8.256 73.0508 9.05067 72.8161 9.68C72.5815 10.2987 72.2188 10.7627 71.7281 11.072C71.2481 11.3707 70.6295 11.52 69.8721 11.52ZM70.8321 8.704C71.1201 8.704 71.3761 8.64533 71.6001 8.528C71.8241 8.41067 72.0001 8.24533 72.1281 8.032C72.2561 7.81867 72.3201 7.57333 72.3201 7.296C72.3201 7.008 72.2561 6.76267 72.1281 6.56C72.0001 6.34667 71.8241 6.18667 71.6001 6.08C71.3761 5.96267 71.1201 5.904 70.8321 5.904C70.5548 5.904 70.2988 5.96267 70.0641 6.08C69.8401 6.18667 69.6588 6.34667 69.5201 6.56C69.3921 6.76267 69.3281 7.008 69.3281 7.296C69.3281 7.57333 69.3921 7.81867 69.5201 8.032C69.6588 8.24533 69.8401 8.41067 70.0641 8.528C70.2988 8.64533 70.5548 8.704 70.8321 8.704ZM82.3351 12.16C81.2685 12.16 80.3351 11.9627 79.5351 11.568C78.7458 11.1733 78.1325 10.6347 77.6951 9.952C77.2578 9.25867 77.0391 8.48 77.0391 7.616C77.0391 6.73067 77.2525 5.94667 77.6791 5.264C78.1165 4.58133 78.7085 4.048 79.4551 3.664C80.2125 3.28 81.0605 3.088 81.9991 3.088C82.8631 3.088 83.6578 3.25867 84.3831 3.6C85.1191 3.94133 85.7058 4.448 86.1431 5.12C86.5911 5.792 86.8151 6.624 86.8151 7.616C86.8151 7.744 86.8098 7.888 86.7991 8.048C86.7885 8.19733 86.7778 8.336 86.7671 8.464H80.0311V6.72H84.8471L83.4871 7.184C83.4871 6.84267 83.4231 6.55467 83.2951 6.32C83.1778 6.07467 83.0125 5.888 82.7991 5.76C82.5858 5.62133 82.3298 5.552 82.0311 5.552C81.7325 5.552 81.4711 5.62133 81.2471 5.76C81.0338 5.888 80.8685 6.07467 80.7511 6.32C80.6338 6.55467 80.5751 6.84267 80.5751 7.184V7.728C80.5751 8.10133 80.6498 8.42133 80.7991 8.688C80.9485 8.95467 81.1618 9.15733 81.4391 9.296C81.7165 9.424 82.0525 9.488 82.4471 9.488C82.8525 9.488 83.1831 9.43467 83.4391 9.328C83.7058 9.22133 83.9831 9.06133 84.2711 8.848L86.1591 10.752C85.7325 11.2107 85.2045 11.5627 84.5751 11.808C83.9565 12.0427 83.2098 12.16 82.3351 12.16Z" fill="url(#paint0_linear_6_294)"/>
<defs>
<linearGradient id="paint0_linear_6_294" x1="59" y1="-4" x2="59" y2="27.5" gradientUnits="userSpaceOnUse">
<stop stop-color="#E82652"/>
<stop offset="1" stop-color="#E82652" stop-opacity="0"/>
</linearGradient>
</defs>
</svg>
